<?xml version="1.0" encoding="UTF-8" ?>
<!DOCTYPE svg PUBLIC "-//W3C//DTD SVG 1.1//EN" "http://www.w3.org/Graphics/SVG/1.1/DTD/svg11.dtd">
<svg width="150pt" height="150pt" viewBox="0 0 150 150" version="1.1" xmlns="http://www.w3.org/2000/svg">
<path fill="#ffffff" d=" M 0.00 0.00 L 150.00 0.00 L 150.00 150.00 L 147.13 150.00 C 143.10 141.67 143.16 129.95 133.72 125.31 C 123.72 118.63 110.38 119.76 100.92 112.09 C 95.10 108.30 89.14 101.46 92.08 94.02 C 95.86 86.34 100.70 79.12 102.66 70.64 C 105.80 57.55 106.70 42.68 99.26 30.82 C 94.12 20.78 82.19 15.52 71.23 16.36 C 62.84 16.70 56.17 22.93 50.78 28.77 C 41.14 41.80 42.05 59.61 46.62 74.38 C 48.91 81.84 54.27 87.94 56.42 95.43 C 57.38 102.49 52.00 108.78 46.76 112.76 C 35.84 119.33 21.16 119.20 12.22 129.20 C 7.36 135.21 6.26 143.20 2.91 150.00 L 0.00 150.00 L 0.00 0.00 Z" />
<path fill="#c4c4c4" d=" M 50.78 28.77 C 56.17 22.93 62.84 16.70 71.23 16.36 C 82.19 15.52 94.12 20.78 99.26 30.82 C 106.70 42.68 105.80 57.55 102.66 70.64 C 100.70 79.12 95.86 86.34 92.08 94.02 C 89.14 101.46 95.10 108.30 100.92 112.09 C 110.38 119.76 123.72 118.63 133.72 125.31 C 143.16 129.95 143.10 141.67 147.13 150.00 L 2.91 150.00 C 6.26 143.20 7.36 135.21 12.22 129.20 C 21.16 119.20 35.84 119.33 46.76 112.76 C 52.00 108.78 57.38 102.49 56.42 95.43 C 54.27 87.94 48.91 81.84 46.62 74.38 C 42.05 59.61 41.14 41.80 50.78 28.77 Z" />
</svg>
