<svg xmlns="http://www.w3.org/2000/svg" width="11" height="11" fill="none" viewBox="0 0 11 11">
    <path fill="#818181" d="M10.34.816H9.26v1.542c0 .504-.387.908-.873.908h-.274c-.486 0-.873-.403-.873-.908V.816H3.932v1.542a.892.892 0 0 1-.88.908h-.275a.898.898 0 0 1-.886-.908V.816H.66c-.363 0-.66.317-.66.695v8.803c0 .377.297.686.66.686h9.68c.363 0 .66-.309.66-.686V1.511c0-.378-.297-.695-.66-.695zM3.438 9.201a.252.252 0 0 1-.253.252H1.756a.252.252 0 0 1-.252-.252V8.073a.252.252 0 0 1 .252-.253h1.43a.252.252 0 0 1 .252.253V9.2zm0-2.729a.252.252 0 0 1-.253.253H1.756a.252.252 0 0 1-.252-.253V5.344a.252.252 0 0 1 .252-.252h1.43a.252.252 0 0 1 .252.252v1.128zm3.029 2.729a.252.252 0 0 1-.253.252H4.786a.252.252 0 0 1-.253-.252V8.073a.252.252 0 0 1 .253-.253h1.428a.252.252 0 0 1 .253.253V9.2zm0-2.729a.252.252 0 0 1-.253.253H4.786a.252.252 0 0 1-.253-.253V5.344a.252.252 0 0 1 .253-.252h1.428a.252.252 0 0 1 .253.252v1.128zM9.56 9.201a.252.252 0 0 1-.253.252H7.88a.252.252 0 0 1-.252-.252V8.073a.252.252 0 0 1 .252-.253h1.43a.252.252 0 0 1 .252.253V9.2zm0-2.729a.252.252 0 0 1-.253.253H7.88a.252.252 0 0 1-.252-.253V5.344a.252.252 0 0 1 .252-.252h1.43a.252.252 0 0 1 .252.252v1.128z"/>
    <path fill="#818181" d="M3.052 2.879c.273 0 .493-.236.493-.52V.514A.504.504 0 0 0 3.052 0h-.275a.51.51 0 0 0-.5.515v1.843c0 .285.228.52.5.52h.275zM8.387 2.879c.273 0 .486-.236.486-.52V.513C8.873.231 8.66 0 8.387 0h-.275c-.272 0-.485.23-.485.514v1.844c0 .285.213.52.485.52h.275z"/>
</svg>
