<svg xmlns="http://www.w3.org/2000/svg" width="14" height="10" fill="none" viewBox="0 0 14 10">
    <path fill="#818181" d="M9.866 5.736a2.387 2.387 0 0 1-2.382-2.391A2.387 2.387 0 0 1 9.866.953a2.387 2.387 0 0 1 2.383 2.392 2.387 2.387 0 0 1-2.383 2.391zM4.17 4.783a2.387 2.387 0 0 1-2.383-2.391A2.387 2.387 0 0 1 4.169 0a2.387 2.387 0 0 1 2.383 2.392 2.387 2.387 0 0 1-2.383 2.391zM.031 7.642A4.384 4.384 0 0 1 2.916 4.91c.035-.018.09 0 .125.018.34.18.717.27 1.11.27.395 0 .789-.108 1.111-.27a.304.304 0 0 1 .126-.018 4.4 4.4 0 0 1 1.917 1.169 4.695 4.695 0 0 0-1.881 2.32H.55c-.376 0-.645-.396-.52-.756zM5.728 8.595c.018-.071.054-.125.072-.197.09-.216.179-.414.304-.594 0-.018.018-.018.018-.036.18-.287.376-.54.61-.79l.017-.019c.233-.234.502-.45.788-.63a4.18 4.18 0 0 1 1.075-.485c.036-.018.09 0 .126.018.34.18.716.27 1.11.27.395 0 .789-.108 1.111-.27a.304.304 0 0 1 .126-.018 4.384 4.384 0 0 1 2.884 2.733c.125.36-.144.756-.52.756H6.248c-.377.018-.645-.36-.52-.738z"/>
</svg>
