<svg xmlns="http://www.w3.org/2000/svg" width="11" height="13" fill="none" viewBox="0 0 11 13">
    <path fill="#5A7D8D" d="M0 0v13h11V3.17H7.806c-.185 0-.354-.15-.354-.316V0H0zm8.161.317v2.22h2.484L8.161.317zm-6.21 2.061h3.904c.196 0 .355.142.355.317 0 .175-.16.317-.355.317H1.952c-.196 0-.355-.142-.355-.317 0-.175.159-.317.355-.317zm0 2.537h7.097c.196 0 .355.142.355.317 0 .175-.159.317-.355.317H1.952c-.196 0-.355-.142-.355-.317 0-.175.159-.317.355-.317zm0 2.536h7.097c.196 0 .355.142.355.317 0 .175-.159.317-.355.317H1.952c-.196 0-.355-.142-.355-.317 0-.175.159-.317.355-.317zm0 2.537h7.097c.196 0 .355.142.355.317 0 .175-.159.317-.355.317H1.952c-.196 0-.355-.142-.355-.317 0-.175.159-.317.355-.317z"/>
</svg>
