<svg xmlns="http://www.w3.org/2000/svg" width="13" height="13" fill="none" viewBox="0 0 13 13">
    <path fill="#5A7D8D" d="M6.478 0c1.742 0 3.395.67 4.601 1.921C12.285 3.127 13 4.781 13 6.478a6.527 6.527 0 0 1-1.921 4.601A6.527 6.527 0 0 1 6.478 13c-1.787 0-3.396-.76-4.557-1.921C.715 9.918 0 8.265 0 6.478A6.27 6.27 0 0 1 1.921 1.92 6.27 6.27 0 0 1 6.478 0zm1.474.849A7.896 7.896 0 0 1 9.47 3.26a7.92 7.92 0 0 0 1.385-.67A5.734 5.734 0 0 0 7.952.85zm3.306 2.278c-.492.268-1.028.536-1.564.715.268.849.402 1.742.402 2.636h2.234a5.649 5.649 0 0 0-1.072-3.35zm1.027 3.976h-2.189c-.09.849-.268 1.742-.58 2.546.49.18.982.358 1.429.626.76-.894 1.25-2.01 1.34-3.172zm-1.787 3.663a7.544 7.544 0 0 0-1.25-.536c-.358.715-.76 1.34-1.296 1.921a5.705 5.705 0 0 0 2.546-1.385zM6.835 12.33c.715-.67 1.296-1.43 1.698-2.278a7.073 7.073 0 0 0-1.698-.224v2.502zm-.67-2.502c-.58 0-1.162.09-1.742.224a8.59 8.59 0 0 0 1.742 2.278V9.828zm.67-.67c.67.045 1.34.134 1.966.313.312-.76.491-1.564.536-2.368H6.835v2.055zm-.67-2.055H3.619c.089.804.268 1.608.536 2.368.67-.179 1.34-.268 2.01-.313V7.103zm.67-.625h2.546c0-.804-.134-1.653-.357-2.413-.715.179-1.474.313-2.189.313v2.1zm-.67-2.1c-.76 0-1.474-.134-2.19-.313-.267.76-.356 1.609-.356 2.413h2.546v-2.1zm.67-.625c.625 0 1.296-.134 1.966-.268C8.354 2.412 7.684 1.43 6.835.67v3.083zM6.165.67c-.849.76-1.519 1.742-1.966 2.815.626.134 1.296.268 1.966.268V.67zM3.529 3.261c.358-.893.849-1.742 1.52-2.412A5.734 5.734 0 0 0 2.143 2.59c.402.268.894.491 1.385.67zm-.625 3.217c0-.894.134-1.787.402-2.636-.58-.179-1.072-.447-1.564-.715-.715.938-1.072 2.1-1.117 3.35h2.279zm.58 3.171c-.312-.804-.536-1.697-.58-2.546H.67c.134 1.206.626 2.323 1.385 3.172.447-.268.938-.447 1.43-.626zm1.564 2.502c-.536-.58-.983-1.206-1.295-1.92a6.218 6.218 0 0 0-1.251.535c.714.67 1.563 1.162 2.546 1.385z"/>
</svg>
