<svg xmlns="http://www.w3.org/2000/svg" width="11" height="11" fill="none" viewBox="0 0 11 11">
    <circle cx="5.5" cy="5.5" r="5.5" fill="#818181"/>
    <path fill="#fff" d="M6.198 6.332H5.053c.012.335.1.586.267.755.168.169.43.253.783.253.239 0 .455-.035.649-.106l.123.827a3.83 3.83 0 0 1-.875.1c-.6 0-1.074-.161-1.425-.483-.349-.323-.532-.772-.55-1.346h-.578v-.52h.577v-.424h-.577v-.52h.584c.039-.574.238-1.02.598-1.336.363-.319.842-.478 1.44-.478.239 0 .507.035.806.106l-.123.83a1.954 1.954 0 0 0-.632-.11c-.645 0-.998.33-1.06.989h1.138v.52H5.053v.423h1.145v.52z"/>
</svg>
