<svg xmlns="http://www.w3.org/2000/svg" width="15" height="14" fill="none" viewBox="0 0 15 14">
    <path fill="#818181" d="M12.087 6.533l-.205-1.19 1.089-1.49-1.603-2.065-1.745.724-.862-.468L8.269.32H5.722L5.23 2.044l-.862.468-1.745-.724-1.601 2.064L2.11 5.341l-.205 1.19-1.602.83.492 2.447 1.848.17.594.852-.204 1.765 2.197 1.084 1.17-1.276h1.192l1.17 1.276 2.198-1.084-.205-1.765.596-.852 1.848-.17.492-2.446-1.604-.829zM6.995 9.394c-1.275 0-2.309-1.071-2.309-2.393 0-1.32 1.034-2.392 2.31-2.392C8.27 4.609 9.303 5.68 9.303 7c0 1.322-1.034 2.393-2.309 2.393z"/>
    <path fill="#818181" d="M12.387 6.446l-.205-1.19-.031.247.953-1.305.135-.185c.089-.12.031-.286-.048-.39l-1.405-1.81-.196-.252c-.062-.08-.211-.12-.303-.082l-1.53.634-.215.09c.08.011.16.02.24.032l-.863-.468.143.193L8.63.45 8.57.238A.32.32 0 0 0 8.27 0H5.725a.32.32 0 0 0-.3.237l-.431 1.509-.06.214.142-.193-.862.468c.08-.011.16-.02.24-.032-.51-.21-1.02-.423-1.53-.634l-.216-.09c-.092-.039-.24.003-.303.082L1 3.37c-.065.084-.13.17-.196.253-.08.101-.137.27-.048.39l.953 1.304.136.185c-.011-.082-.02-.165-.032-.247l-.204 1.19.142-.193-1.403.728c-.066.033-.132.067-.198.103-.127.066-.169.23-.142.363l.431 2.147.06.3c.03.147.168.224.3.237.54.05 1.077.1 1.615.148l.233.021-.268-.16.594.852-.041-.162c-.061.515-.12 1.031-.18 1.546-.008.073-.018.147-.025.219a.311.311 0 0 0 .153.278l1.924.951.274.135c.122.062.276.06.375-.05.342-.371.682-.744 1.024-1.116l.146-.16c-.073.033-.146.063-.22.096h1.192c-.073-.033-.146-.063-.22-.095.342.371.684.745 1.024 1.116l.146.16c.101.109.253.11.376.05.641-.317 1.282-.635 1.924-.951l.273-.136a.31.31 0 0 0 .154-.278l-.18-1.546-.025-.22-.042.163.596-.851-.268.16 1.615-.149.233-.02c.13-.012.27-.09.3-.237.144-.716.288-1.43.43-2.147l.061-.3c.027-.134-.015-.298-.142-.364l-1.404-.728c-.065-.034-.132-.067-.197-.103-.145-.075-.344-.045-.426.116-.074.147-.043.36.112.441.467.243.936.484 1.404.727l.197.103-.143-.363c-.144.716-.289 1.43-.432 2.146l-.06.301.3-.236c-.615.056-1.232.104-1.845.17a.342.342 0 0 0-.272.161l-.033.047-.149.212c-.12.17-.239.341-.357.512-.053.076-.102.138-.098.243.002.03.008.061.011.092l.062.539.132 1.134.154-.278-1.924.95-.273.136.376.05c-.216-.237-.434-.472-.65-.708l-.403-.44c-.106-.114-.184-.22-.359-.223-.362-.008-.724 0-1.085 0-.112 0-.213.003-.305.095-.02.019-.037.042-.057.063l-.356.387-.758.827.376-.05-1.924-.95-.273-.136.154.279.111-.963c.024-.204.049-.407.072-.611.015-.13.046-.25-.031-.37-.183-.285-.387-.558-.583-.834a.343.343 0 0 0-.271-.16l-.036-.004-.163-.014-.584-.053-1.062-.099.3.237c-.145-.716-.29-1.43-.432-2.147l-.06-.3c-.049.12-.095.242-.143.363.287-.15.576-.298.863-.447l.559-.29c.135-.07.286-.122.324-.296.081-.368.13-.747.193-1.118.019-.107.039-.214-.022-.312-.02-.033-.045-.063-.068-.094l-.335-.46-.684-.935-.048.39 1.405-1.81.196-.254-.303.083c.277.114.553.228.83.344l.593.246c.105.044.21.095.317.132.163.056.368-.096.509-.174l.532-.29c.097-.052.17-.109.209-.23.01-.033.018-.067.03-.1.05-.178.1-.355.151-.53L6.026.41c-.099.08-.2.158-.3.237H8.273l-.3-.237.264.924c.058.2.113.397.17.597.043.146.07.315.209.4.144.086.297.16.444.24.137.074.272.152.41.223.172.088.29.01.447-.054l.552-.228c.329-.137.658-.274.987-.409l-.303-.082 1.406 1.81.195.253-.048-.39-.78 1.068c-.1.136-.218.271-.305.418-.067.113-.038.235-.016.356l.065.374c.04.239.083.477.123.713.028.166.233.275.382.226.168-.065.242-.224.213-.403z"/>
    <path fill="#818181" d="M6.995 9.073a2.12 2.12 0 0 1-.259-.015c-.059-.005.014.005.019.003-.014.003-.04-.006-.053-.008a2.18 2.18 0 0 1-.474-.133c-.003.001-.03-.015-.037-.018a2.34 2.34 0 0 1-.37-.222c-.015-.011-.057-.032-.065-.05.013.026.044.037.016.011-.011-.01-.022-.017-.031-.027a3.005 3.005 0 0 1-.243-.24 1.87 1.87 0 0 1-.052-.063c-.01-.01-.017-.02-.027-.032-.034-.043-.014-.001.005.008-.033-.014-.075-.106-.093-.137a2.478 2.478 0 0 1-.165-.305c-.006-.013-.01-.026-.017-.039-.019-.039.022.058.008.018l-.034-.09a2.59 2.59 0 0 1-.11-.43c0-.014-.004-.029-.005-.043-.006-.045.006.064.003.019-.006-.063-.013-.126-.014-.188a2.95 2.95 0 0 1 .014-.37c.004-.046-.01.064-.003.019.001-.015.004-.03.006-.044l.015-.087c.013-.06.025-.12.042-.178.016-.055.033-.11.052-.164.009-.028.02-.053.03-.08.015-.043-.012.002-.009.017-.003-.01.017-.04.022-.048.047-.106.103-.208.163-.306.02-.03.06-.124.093-.137-.003.002-.046.061-.01.016l.026-.032c.02-.024.039-.048.059-.07a2.46 2.46 0 0 1 .24-.24l.032-.028c.028-.024-.003-.014-.016.011.008-.017.05-.038.065-.05a2.308 2.308 0 0 1 .351-.212l.038-.018c.065-.032-.066.026.001-.001a2.352 2.352 0 0 1 .49-.142l.032-.005a.587.587 0 0 1-.019.004c.034.001.072-.008.107-.012.12-.01.24-.008.357.002l.086.008c.043.005-.062-.01-.019-.003l.031.005c.062.01.125.022.187.038a2.76 2.76 0 0 1 .307.102c.013.006.025.01.037.017l.066.032a2.553 2.553 0 0 1 .298.183c.014.01.059.035.065.05-.002-.002-.059-.047-.016-.01l.04.033a2.154 2.154 0 0 1 .291.306c.01.011.017.023.027.032.023.03.014-.001-.011-.016.017.008.037.052.048.068l.051.079c.06.098.115.2.162.305.003.007.018.036.017.039 0-.002-.03-.074-.008-.018l.03.08c.018.054.035.109.05.165.016.056.029.113.041.169l.016.085a.419.419 0 0 1 .006.044c.012.075-.006-.076 0 .001.01.12.017.238.012.359-.001.06-.008.12-.012.179-.005.058.001-.012.003-.02l-.006.044-.019.108a2.423 2.423 0 0 1-.09.331l-.03.08c-.021.057.008-.016.008-.017.002.003-.014.032-.017.038a1.916 1.916 0 0 1-.084.171 1.899 1.899 0 0 1-.079.135l-.045.07c-.012.017-.036.067-.054.077.025-.013.034-.045.01-.016-.009.01-.016.022-.026.032-.017.02-.034.043-.053.064a2.052 2.052 0 0 1-.24.24l-.04.034c.034-.03 0 0-.01.006l-.04.03a2.487 2.487 0 0 1-.362.218c-.013.006-.025.011-.037.018-.038.019.055-.023.017-.008-.055.02-.109.043-.165.062a2.32 2.32 0 0 1-.346.086l-.031.004c-.044.007.062-.006.018-.003a1.544 1.544 0 0 1-.085.008c-.056.008-.117.01-.179.012a.32.32 0 0 0-.31.321c.008.174.136.324.31.322A2.55 2.55 0 0 0 8.5 9.222c.443-.33.775-.777.963-1.308.371-1.044.045-2.29-.787-2.995a2.626 2.626 0 0 0-1.496-.626 2.53 2.53 0 0 0-1.536.382c-.44.276-.809.692-1.021 1.178a2.876 2.876 0 0 0-.193 1.696c.203 1.073 1.084 1.96 2.129 2.125.144.023.29.039.436.039a.32.32 0 0 0 .31-.322c-.007-.172-.136-.318-.31-.318z"/>
</svg>
