<svg xmlns="http://www.w3.org/2000/svg" width="9" height="11" fill="none" viewBox="0 0 9 11">
    <path fill="#818181" d="M4.5 4.823c.259 0 .51.079.725.225.215.147.382.355.48.599A1.363 1.363 0 0 1 5.423 7.1a1.276 1.276 0 0 1-1.42.29 1.31 1.31 0 0 1-.586-.492 1.356 1.356 0 0 1-.22-.742 1.347 1.347 0 0 1 .378-.947 1.288 1.288 0 0 1 .926-.387z"/>
    <path fill="#818181" d="M1.25 0h6.5c.332 0 .65.135.884.375.234.24.366.565.366.904v8.442c0 .34-.132.665-.366.904-.235.24-.552.375-.884.375h-6.5c-.332 0-.65-.135-.884-.375A1.294 1.294 0 0 1 0 9.721V1.279C0 .94.132.615.366.375.601.135.918 0 1.25 0zm5.875 1.992h-5.25a.247.247 0 0 0-.177.074.259.259 0 0 0 0 .362c.047.048.11.075.177.075h5.25c.066 0 .13-.027.177-.075a.259.259 0 0 0 0-.362.247.247 0 0 0-.177-.074zM1.535 7.96a.255.255 0 0 0 .092.114c.041.028.09.043.14.043h.624v.64c0 .05.015.1.043.141a.245.245 0 0 0 .384.039L3.842 7.88c.423.165.89.165 1.313 0l1.032 1.055a.248.248 0 0 0 .271.055.251.251 0 0 0 .112-.093.26.26 0 0 0 .043-.142v-.64h.625c.049 0 .097-.015.138-.043a.255.255 0 0 0 .106-.262.258.258 0 0 0-.068-.13L6.274 6.51a1.868 1.868 0 0 0-.495-1.662 1.783 1.783 0 0 0-1.275-.54c-.479 0-.937.194-1.276.54a1.868 1.868 0 0 0-.494 1.662L1.592 7.678a.257.257 0 0 0-.057.283z"/>
</svg>
