<svg xmlns="http://www.w3.org/2000/svg" width="10" height="10" fill="none" viewBox="0 0 10 10">
    <path fill="#818181" d="M5.333 1.227c0 .197-.15.357-.334.357-.183 0-.333-.16-.333-.357V.356C4.666.16 4.816 0 5 0c.184 0 .334.16.334.356v.871zM4.666 8.773c0-.196.15-.356.333-.356.184 0 .334.16.334.356v.871c0 .196-.15.356-.334.356-.183 0-.333-.16-.333-.356v-.871zM1.228 4.667c.196 0 .356.15.356.333 0 .183-.16.334-.356.334H.356C.161 5.334 0 5.183 0 5c0-.183.161-.333.356-.333h.872zM8.771 5.334c-.195 0-.355-.15-.355-.334 0-.184.16-.333.355-.333h.872c.196 0 .357.149.357.333 0 .183-.161.334-.357.334h-.872zM7.903 2.568c-.14.14-.358.146-.488.016s-.122-.348.017-.487l.616-.616c.138-.14.358-.146.487-.017.13.13.123.35-.016.488l-.616.616zM2.098 7.432c.138-.138.357-.145.487-.016.13.13.123.35-.016.488l-.616.616c-.139.138-.358.145-.488.015-.13-.129-.122-.348.016-.487l.617-.616zM2.569 2.097c.138.138.145.358.016.487-.13.129-.35.123-.488-.015l-.616-.617c-.138-.138-.145-.359-.016-.488.129-.13.35-.122.488.016l.616.617zM7.43 7.903c-.137-.138-.144-.357-.014-.487.13-.13.348-.123.486.016l.617.616c.138.138.146.358.016.488s-.35.122-.488-.016l-.616-.617z"/>
</svg>
