<?xml version="1.0" encoding="UTF-8" standalone="no"?>
<svg
   xmlns:dc="http://purl.org/dc/elements/1.1/"
   xmlns:cc="http://creativecommons.org/ns#"
   xmlns:rdf="http://www.w3.org/1999/02/22-rdf-syntax-ns#"
   xmlns:svg="http://www.w3.org/2000/svg"
   xmlns="http://www.w3.org/2000/svg"
   xmlns:sodipodi="http://sodipodi.sourceforge.net/DTD/sodipodi-0.dtd"
   xmlns:inkscape="http://www.inkscape.org/namespaces/inkscape"
   version="1.1"
   id="svg2"
   xml:space="preserve"
   width="4266.6665"
   height="2666.6667"
   viewBox="0 0 4266.6665 2666.6667"
   sodipodi:docname="interview.svg"
   inkscape:version="1.0.1 (3bc2e813f5, 2020-09-07)"><metadata
     id="metadata8"><rdf:RDF><cc:Work
         rdf:about=""><dc:format>image/svg+xml</dc:format><dc:type
           rdf:resource="http://purl.org/dc/dcmitype/StillImage" /><dc:title></dc:title></cc:Work></rdf:RDF></metadata><defs
     id="defs6" /><sodipodi:namedview
     pagecolor="#ffffff"
     bordercolor="#666666"
     borderopacity="1"
     objecttolerance="10"
     gridtolerance="10"
     guidetolerance="10"
     inkscape:pageopacity="0"
     inkscape:pageshadow="2"
     inkscape:window-width="1920"
     inkscape:window-height="1136"
     id="namedview4"
     showgrid="false"
     inkscape:zoom="0.15473754"
     inkscape:cx="577.8688"
     inkscape:cy="2252.3389"
     inkscape:window-x="0"
     inkscape:window-y="27"
     inkscape:window-maximized="1"
     inkscape:current-layer="g10" /><g
     id="g10"
     inkscape:groupmode="layer"
     inkscape:label="ink_ext_XXXXXX"
     transform="matrix(1.3333333,0,0,-1.3333333,0,2666.6667)"><g
       id="g12"
       transform="scale(0.1)"><g
         id="g14"
         transform="scale(1.96319)"><path
           d="M 16300,0 H 0 V 10187.5 H 16300 V 0"
           style="fill:#ffffff;fill-opacity:1;fill-rule:nonzero;stroke:none"
           id="path16" /></g><g
         id="g18"
         transform="scale(1.89821)"><path
           d="m 2200.63,1057.47 c 0,0 -1771.804,2134.32 -905.89,4331.56 564.43,1432.22 2681.67,2217.01 3876.54,1432.22 508.9,-334.25 2141.64,-11.27 3013.41,1372.56 1694.07,2689.09 7606.41,1055.97 6530.01,-3072.74 -520.8,-1998.03 1585.3,-2070.62 512.1,-4067.82 l -13026.17,4.22"
           style="fill:#ebf3fa;fill-opacity:1;fill-rule:nonzero;stroke:none"
           id="path20" /></g><path
         d="m 6666.81,8675.1 c 0,0 -339.2,395.7 -20.92,647.1 0,0 232.49,140.7 422.06,129.3 0,0 -268.61,-450.4 -181.71,-495.2 86.89,-44.8 263.12,523.4 263.12,523.4 0,0 529.06,51.3 699.25,-30.5 0,0 -452.28,-370.1 -357.02,-392.1 95.25,-22.1 583.77,341.2 583.77,341.2 0,0 492.4,-83.8 466.15,-384.2 -26.26,-300.3 -195.92,-393.1 -270.49,-385.1 -74.58,8 -510.8,174.5 -520.3,113.4 -9.5,-61.1 253.08,-260.8 436.96,-270.1 0,0 -347.16,-382.9 -577.88,-272.4 -230.72,110.5 -250.42,285.6 -394.24,351.3 -143.82,65.7 -266.59,65.6 -207.22,-1.4 59.38,-67 319.68,-132.1 401.92,-277.6 82.25,-145.5 156.04,-243.6 -82.66,-207.7 -238.71,35.9 -626.73,210.6 -643.76,410.6 -17.03,200 -17.03,200 -17.03,200"
         style="fill:#c8dbf4;fill-opacity:1;fill-rule:nonzero;stroke:none"
         id="path22" /><path
         d="m 8299.57,9006 c 0,0 -1337.41,51.6 -1632.76,-330.9 0,0 -65.32,-195.6 -266.32,-373.8 l -31.32,-85.4 c 0,0 231.75,244.4 314.67,259.2 0,0 -129.68,473.8 1615.73,530.9"
         style="fill:#c8dbf4;fill-opacity:1;fill-rule:nonzero;stroke:none"
         id="path24" /><path
         d="m 6400.49,8301.3 c 0,0 -287.06,-212.3 -307,-591.6 l 52.1,-4.7 c 0,0 91.69,392.3 257.4,545.6 165.71,153.4 -2.5,50.7 -2.5,50.7"
         style="fill:#c8dbf4;fill-opacity:1;fill-rule:nonzero;stroke:none"
         id="path26" /><path
         d="m 5480.86,9172.8 c 0,0 539.57,302.1 287.77,712.2 0,0 -201.44,251.8 -417.27,316.5 0,0 115.11,-611.5 0,-625.9 -115.11,-14.4 -79.13,690.7 -79.13,690.7 0,0 -568.36,273.4 -791.38,251.8 0,0 352.52,-597.1 237.41,-582.7 -115.11,14.3 -510.79,618.7 -510.79,618.7 0,0 -582.75,107.9 -676.27,-237.5 -93.53,-345.3 57.55,-517.9 143.88,-539.5 86.34,-21.6 640.3,-14.4 625.91,-86.4 -14.39,-71.9 -388.49,-187 -597.13,-122.3 0,0 230.22,-568.3 532.38,-539.5 302.16,28.7 395.69,215.8 582.74,230.2 187.06,14.4 323.75,-36 230.22,-86.3 -93.53,-50.4 -410.07,-16.6 -561.16,-145 -151.08,-128.4 -273.38,-207.6 7.2,-265.1 280.58,-57.6 784.18,-21.6 884.9,194.2 100.72,215.9 100.72,215.9 100.72,215.9"
         style="fill:#c8dbf4;fill-opacity:1;fill-rule:nonzero;stroke:none"
         id="path28" /><path
         d="m 3797.39,10208.7 c 0,0 1510.81,-489.2 1683.47,-1035.9 0,0 -7.19,-244.7 143.89,-525.2 v -108 c 0,0 -158.28,367 -244.61,417.3 0,0 338.13,474.8 -1582.75,1251.8"
         style="fill:#c8dbf4;fill-opacity:1;fill-rule:nonzero;stroke:none"
         id="path30" /><path
         d="m 5624.75,8647.6 c 0,0 232.99,-353.9 100.16,-784.5 l -59.94,16.1 c 0,0 58.18,474.3 -63.72,712.9 -121.89,238.6 23.5,55.5 23.5,55.5"
         style="fill:#c8dbf4;fill-opacity:1;fill-rule:nonzero;stroke:none"
         id="path32" /><path
         d="m 6339.28,9589.5 c 0,0 -711.26,398.3 -379.34,938.8 0,0 265.54,332 550.05,417.3 0,0 -151.74,-806.1 0,-825 151.73,-19 104.31,910.4 104.31,910.4 0,0 749.2,360.3 1043.19,331.9 0,0 -464.7,-787.1 -312.96,-768.2 151.73,19 673.33,815.6 673.33,815.6 0,0 768.16,142.3 891.44,-313 123.29,-455.2 -75.86,-682.8 -189.67,-711.2 -113.8,-28.5 -844.02,-19 -825.06,-113.8 18.97,-94.9 512.11,-246.6 787.13,-161.2 0,0 -303.47,-749.2 -701.78,-711.3 -398.3,37.9 -521.59,284.5 -768.16,303.5 -246.57,18.9 -426.76,-47.4 -303.47,-113.8 123.29,-66.4 540.56,-21.8 739.71,-191.1 199.15,-169.3 360.37,-273.6 -9.48,-349.5 -369.86,-75.9 -1033.7,-28.4 -1166.47,256.1 -132.77,284.5 -132.77,284.5 -132.77,284.5"
         style="fill:#d4e4f8;fill-opacity:1;fill-rule:nonzero;stroke:none"
         id="path34" /><path
         d="m 8558.41,10955.1 c 0,0 -1991.53,-644.9 -2219.13,-1365.6 0,0 9.48,-322.5 -189.67,-692.3 v -142.3 c 0,0 208.64,483.7 322.44,550.1 0,0 -445.72,625.9 2086.36,1650.1"
         style="fill:#d4e4f8;fill-opacity:1;fill-rule:nonzero;stroke:none"
         id="path36" /><path
         d="m 6149.61,8897.2 c 0,0 -307.12,-466.4 -132.03,-1034.1 l 79.01,21.2 c 0,0 -76.7,625.3 83.99,939.8 160.68,314.5 -30.97,73.1 -30.97,73.1"
         style="fill:#d4e4f8;fill-opacity:1;fill-rule:nonzero;stroke:none"
         id="path38" /><path
         d="m 6315.32,6631.9 c 769.47,0 1393.24,623.8 1393.24,1393.3 H 4922.07 c 0,-769.5 623.78,-1393.3 1393.25,-1393.3"
         style="fill:#d4e4f8;fill-opacity:1;fill-rule:nonzero;stroke:none"
         id="path40" /><path
         d="M 7727.8,6561 H 4902.83 v 0 c 0,95 76.96,171.9 171.89,171.9 h 2481.19 c 94.93,0 171.89,-76.9 171.89,-171.9 v 0"
         style="fill:#d4e4f8;fill-opacity:1;fill-rule:nonzero;stroke:none"
         id="path42" /><path
         d="M 7740.24,7982.5 H 4876.26 v 42.7 h 2863.98 v -42.7"
         style="fill:#9fc1f4;fill-opacity:1;fill-rule:nonzero;stroke:none"
         id="path44" /><path
         d="m 13504.5,2036.3 6.9,0.1 c 56.3,1 99.8,47 94.5,100 l -375.6,3750.7 -327.7,-29.3 539.3,-3770.8 c 4.2,-29.5 31.1,-51.3 62.6,-50.7"
         style="fill:#8cb4f4;fill-opacity:1;fill-rule:nonzero;stroke:none"
         id="path46" /><path
         d="m 9888.25,2036.3 -6.88,0.1 c -56.3,1 -99.77,47 -94.48,100 l 375.61,3750.7 327.7,-29.3 L 9950.89,2087 c -4.21,-29.5 -31.15,-51.3 -62.64,-50.7"
         style="fill:#8cb4f4;fill-opacity:1;fill-rule:nonzero;stroke:none"
         id="path48" /><path
         d="m 16154,2036.3 6.9,0.1 c 56.3,1 99.8,47 94.5,100 l -375.6,3750.7 -327.7,-29.3 539.3,-3770.8 c 4.2,-29.5 31.1,-51.3 62.6,-50.7"
         style="fill:#8cb4f4;fill-opacity:1;fill-rule:nonzero;stroke:none"
         id="path50" /><path
         d="m 10000.1,6432.6 -666.64,3292.1 c -85.56,445.7 283.78,853.3 763.34,842.3 l 1285.7,-29.3 c 443.5,-10.2 829.1,-307 952.4,-733.2 l 975.3,-3371.9 h -3310.1"
         style="fill:#8cb4f4;fill-opacity:1;fill-rule:nonzero;stroke:none"
         id="path52" /><path
         d="m 10403.4,6432.6 -666.63,3292.1 c -85.57,445.7 283.73,853.3 763.33,842.3 l 1285.7,-29.3 c 443.5,-10.2 829.1,-307 952.4,-733.2 l 975.3,-3371.9 h -3310.1"
         style="fill:#8cb4f4;fill-opacity:1;fill-rule:nonzero;stroke:none"
         id="path54" /><path
         d="m 10185.9,5832.2 h 5086.6 c 102.2,0 185.8,83.6 185.8,185.8 v 228.8 c 0,102.2 -83.6,185.8 -185.8,185.8 H 10000.1 V 6018 c 0,-102.2 83.6,-185.8 185.8,-185.8"
         style="fill:#8cb4f4;fill-opacity:1;fill-rule:nonzero;stroke:none"
         id="path56" /><path
         d="m 12572.9,5832.2 h 3242.6 c 82.3,0 149.7,67.4 149.7,149.7 V 6283 c 0,82.3 -67.4,149.6 -149.7,149.6 h -3242.6 c -82.3,0 -149.7,-67.3 -149.7,-149.6 v -301.1 c 0,-82.3 67.4,-149.7 149.7,-149.7"
         style="fill:#8cb4f4;fill-opacity:1;fill-rule:nonzero;stroke:none"
         id="path58" /><path
         d="m 8482.38,6475.5 v -112.3 c 0,-39.3 -12.73,-71.4 -28.26,-71.4 H 4355.55 c -15.53,0 -28.26,32.1 -28.26,71.4 v 112.3 c 0,39.3 12.73,71.4 28.26,71.4 h 4098.57 c 15.53,0 28.26,-32.1 28.26,-71.4"
         style="fill:#9abfe2;fill-opacity:1;fill-rule:nonzero;stroke:none"
         id="path60" /><path
         d="m 8482.38,6475.5 v -112.3 c 0,-39.3 -11.68,-71.4 -25.94,-71.4 H 5202.63 c -14.26,0 -25.95,32.1 -25.95,71.4 v 112.3 c 0,39.3 11.69,71.4 25.95,71.4 h 3253.81 c 14.26,0 25.94,-32.1 25.94,-71.4"
         style="fill:#bad4f4;fill-opacity:1;fill-rule:nonzero;stroke:none"
         id="path62" /><path
         d="M 7445.04,2050.7 H 4535.31 v 4241 h 2909.73 v -4241"
         style="fill:#c8dbf4;fill-opacity:1;fill-rule:nonzero;stroke:none"
         id="path64" /><path
         d="M 8260.46,2050.7 H 5350.73 v 4241 h 2909.73 v -4241"
         style="fill:#dfebfd;fill-opacity:1;fill-rule:nonzero;stroke:none"
         id="path66" /><path
         d="m 5535.16,2312.9 h 2540.93 v 3831 H 5535.16 Z m 2568.98,-28.1 H 5507.12 V 6171.9 H 8104.14 V 2284.8"
         style="fill:#b7d3f3;fill-opacity:1;fill-rule:nonzero;stroke:none"
         id="path68" /><path
         d="M 8090.11,4858 H 5521.14 v 28 h 2568.97 v -28"
         style="fill:#b7d3f3;fill-opacity:1;fill-rule:nonzero;stroke:none"
         id="path70" /><path
         d="M 8090.11,3547.1 H 5521.14 v 28 h 2568.97 v -28"
         style="fill:#b7d3f3;fill-opacity:1;fill-rule:nonzero;stroke:none"
         id="path72" /><path
         d="m 7068.87,5921.2 h -476.71 c -23.14,0 -42.06,19 -42.06,42.1 v 0 c 0,23.1 18.92,42.1 42.06,42.1 h 476.71 c 23.13,0 42.06,-19 42.06,-42.1 v 0 c 0,-23.1 -18.93,-42.1 -42.06,-42.1"
         style="fill:#b7d3f3;fill-opacity:1;fill-rule:nonzero;stroke:none"
         id="path74" /><path
         d="m 7068.87,4639.3 h -476.71 c -23.14,0 -42.06,18.9 -42.06,42 v 0 c 0,23.2 18.92,42.1 42.06,42.1 h 476.71 c 23.13,0 42.06,-18.9 42.06,-42.1 v 0 c 0,-23.1 -18.93,-42 -42.06,-42"
         style="fill:#b7d3f3;fill-opacity:1;fill-rule:nonzero;stroke:none"
         id="path76" /><path
         d="m 7068.87,3302.9 h -476.71 c -23.14,0 -42.06,18.9 -42.06,42.1 v 0 c 0,23.1 18.92,42 42.06,42 h 476.71 c 23.13,0 42.06,-18.9 42.06,-42 v 0 c 0,-23.2 -18.93,-42.1 -42.06,-42.1"
         style="fill:#b7d3f3;fill-opacity:1;fill-rule:nonzero;stroke:none"
         id="path78" /><g
         id="g80"
         transform="scale(1.23062)"><path
           d="m 16174.9,11309.1 h -1498.7 c -68.8,0 -125.2,56.3 -125.2,125.1 v 1446.5 c 0,68.8 56.4,125.1 125.2,125.1 h 1498.7 c 68.8,0 125.1,-56.3 125.1,-125.1 v -1446.5 c 0,-68.8 -56.3,-125.1 -125.1,-125.1"
           style="fill:#c0d8fb;fill-opacity:1;fill-rule:nonzero;stroke:none"
           id="path82" /></g><g
         id="g84"
         transform="scale(1.2249)"><path
           d="M 16185.2,11435.8 H 14810 c -63.2,0 -114.8,51.7 -114.8,114.8 V 12878 c 0,63.1 51.6,114.7 114.8,114.7 h 1375.2 c 63.1,0 114.8,-51.6 114.8,-114.7 v -1327.4 c 0,-63.1 -51.7,-114.8 -114.8,-114.8"
           style="fill:#dfebfd;fill-opacity:1;fill-rule:nonzero;stroke:none"
           id="path86" /></g><g
         id="g88"
         transform="scale(1.16733)"><path
           d="m 16223.7,13470.2 c 0,21.1 17,38.2 38.1,38.2 21.2,0 38.2,-17.1 38.2,-38.2 0,-21.1 -17,-38.2 -38.2,-38.2 -21.1,0 -38.1,17.1 -38.1,38.2"
           style="fill:#b7d3f3;fill-opacity:1;fill-rule:nonzero;stroke:none"
           id="path90" /></g><g
         id="g92"
         transform="scale(1.18945)"><path
           d="m 16224.4,13166.8 c 10.1,18.1 32.9,24.6 51,14.5 18.1,-10 24.6,-32.9 14.5,-51 -10,-18 -32.9,-24.6 -50.9,-14.5 -18.1,10 -24.7,32.9 -14.6,51"
           style="fill:#b7d3f3;fill-opacity:1;fill-rule:nonzero;stroke:none"
           id="path94" /></g><g
         id="g96"
         transform="scale(1.20744)"><path
           d="m 16237.9,12767.8 c 17.1,11 40,6.1 51,-11.1 11.1,-17.1 6.1,-39.9 -11,-51 -17.1,-11.1 -39.9,-6.1 -51,11 -11,17.1 -6.2,40 11,51.1"
           style="fill:#b7d3f3;fill-opacity:1;fill-rule:nonzero;stroke:none"
           id="path98" /></g><g
         id="g100"
         transform="scale(1.21494)"><path
           d="m 16263.4,12377 c 20.2,0 36.6,-16.4 36.6,-36.7 0,-20.2 -16.4,-36.7 -36.6,-36.7 -20.4,0 -36.7,16.5 -36.7,36.7 0,20.3 16.3,36.7 36.7,36.7"
           style="fill:#b7d3f3;fill-opacity:1;fill-rule:nonzero;stroke:none"
           id="path102" /></g><g
         id="g104"
         transform="scale(1.20849)"><path
           d="m 16285.6,12079.1 c 14.4,-14.4 14.4,-37.7 0,-52.1 -14.4,-14.4 -37.7,-14.4 -52.1,0 -14.4,14.4 -14.4,37.7 0,52.1 14.4,14.4 37.7,14.4 52.1,0"
           style="fill:#b7d3f3;fill-opacity:1;fill-rule:nonzero;stroke:none"
           id="path106" /></g><g
         id="g108"
         transform="scale(1.19132)"><path
           d="m 16285.4,12017.6 c 14.6,-14.6 14.6,-38.3 0,-52.9 -14.6,-14.6 -38.4,-14.6 -53,0 -14.6,14.6 -14.6,38.3 0,52.9 14.6,14.6 38.4,14.6 53,0"
           style="fill:#b7d3f3;fill-opacity:1;fill-rule:nonzero;stroke:none"
           id="path110" /></g><g
         id="g112"
         transform="scale(1.16733)"><path
           d="m 16223.7,12140.6 c 0,21.1 17,38.2 38.1,38.2 21.2,0 38.2,-17.1 38.2,-38.2 0,-21 -17,-38.1 -38.2,-38.1 -21.1,0 -38.1,17.1 -38.1,38.1"
           style="fill:#b7d3f3;fill-opacity:1;fill-rule:nonzero;stroke:none"
           id="path114" /></g><g
         id="g116"
         transform="scale(1.14591)"><path
           d="m 16289.6,13667 c -10.5,18.8 -34.1,25.6 -53,15.2 -18.7,-10.5 -25.4,-34.2 -15.1,-53 10.5,-18.7 34.2,-25.5 53,-15.1 18.8,10.5 25.5,34.2 15.1,52.9"
           style="fill:#b7d3f3;fill-opacity:1;fill-rule:nonzero;stroke:none"
           id="path118" /></g><g
         id="g120"
         transform="scale(1.1279)"><path
           d="m 16276.4,13668.1 c -18.3,11.9 -42.8,6.6 -54.7,-11.8 -11.8,-18.3 -6.5,-42.8 11.8,-54.6 18.4,-11.8 42.8,-6.6 54.7,11.8 11.8,18.3 6.6,42.8 -11.8,54.6"
           style="fill:#b7d3f3;fill-opacity:1;fill-rule:nonzero;stroke:none"
           id="path122" /></g><g
         id="g124"
         transform="scale(1.11964)"><path
           d="m 16260.2,13430.5 c -22,0 -39.9,-17.8 -39.9,-39.8 0,-22 17.9,-39.8 39.9,-39.8 21.9,0 39.8,17.8 39.8,39.8 0,22 -17.9,39.8 -39.8,39.8"
           style="fill:#b7d3f3;fill-opacity:1;fill-rule:nonzero;stroke:none"
           id="path126" /></g><g
         id="g128"
         transform="scale(1.12662)"><path
           d="m 16228.6,12956.9 c -15.5,-15.4 -15.5,-40.5 0,-55.9 15.5,-15.5 40.5,-15.5 56,0 15.4,15.4 15.4,40.5 0,55.9 -15.5,15.5 -40.5,15.5 -56,0"
           style="fill:#b7d3f3;fill-opacity:1;fill-rule:nonzero;stroke:none"
           id="path130" /></g><g
         id="g132"
         transform="scale(1.1438)"><path
           d="m 16229.6,12516.9 c -15.2,-15.2 -15.2,-39.9 0,-55.1 15.2,-15.2 40,-15.2 55.2,0 15.2,15.2 15.2,39.9 0,55.1 -15.2,15.2 -40,15.2 -55.2,0"
           style="fill:#b7d3f3;fill-opacity:1;fill-rule:nonzero;stroke:none"
           id="path134" /></g><g
         id="g136"
         transform="scale(1.16933)"><path
           d="m 16223.7,12821.6 c 0,21.1 17.1,38.2 38.2,38.2 21,0 38.1,-17.1 38.1,-38.2 0,-21 -17.1,-38.1 -38.1,-38.1 -21.1,0 -38.2,17.1 -38.2,38.1"
           style="fill:#b7d3f3;fill-opacity:1;fill-rule:nonzero;stroke:none"
           id="path138" /></g><g
         id="g140"
         transform="scale(1.16697)"><path
           d="m 16300,12847.6 h -10.5 v 477.3 h 10.5 v -477.3"
           style="fill:#b7d3f3;fill-opacity:1;fill-rule:nonzero;stroke:none"
           id="path142" /></g><g
         id="g144"
         transform="scale(1.18506)"><path
           d="m 16050.9,12640.1 -19.1,24.2 249.2,195.6 19,-24.2 -249.1,-195.6"
           style="fill:#b7d3f3;fill-opacity:1;fill-rule:nonzero;stroke:none"
           id="path146" /></g><path
         d="m 14431.3,7121.6 c -275.2,-479 -621.3,-663.8 -621.3,-663.8 h -1439.9 c 0,0 2271.1,1029.1 2061.2,663.8"
         style="fill:#233862;fill-opacity:1;fill-rule:nonzero;stroke:none"
         id="path148" /><g
         id="g150"
         transform="scale(1.08365)"><path
           d="m 14956.1,2180.96 c -14.3,-139.43 179.6,-175.42 404.5,-189.08 224.9,-13.57 156.4,-58.97 464.2,-118.12 307.7,-59.15 432.2,23.9 455,65.33 20.2,36.73 -122.6,96.07 -274.6,163.06 -19.1,8.4 -38.3,16.99 -57.4,25.66 -171.2,77.42 -266.1,232.64 -398.6,377.06 -125.5,136.85 -241.4,571.68 -241.4,571.68 l -418.1,94.03 c 0,0 113.5,-391.55 152.5,-558.58 23,-98.27 -13.6,-207.44 -45.9,-290.5 -17.5,-45.21 -35.1,-91.44 -40.2,-140.54"
           style="fill:#ffb27d;fill-opacity:1;fill-rule:nonzero;stroke:none"
           id="path152" /></g><g
         id="g154"
         transform="scale(1.08365)"><path
           d="m 15360.6,1991.88 c 224.9,-13.57 156.4,-58.97 464.2,-118.12 307.7,-59.15 432.2,23.9 455,65.33 20.2,36.73 -122.6,96.07 -274.6,163.06 l -2.4,-2.58 c 0,0 -217.6,-71.24 -467.2,-0.55 -203.3,57.58 -399.3,181.61 -539.3,222.48 -17.5,-45.21 -35.1,-91.44 -40.2,-140.54 -14.3,-139.43 179.6,-175.42 404.5,-189.08"
           style="fill:#0f2549;fill-opacity:1;fill-rule:nonzero;stroke:none"
           id="path156" /></g><g
         id="g158"
         transform="scale(1.02915)"><path
           d="m 15081.1,7396.56 c -236.8,166.26 -1803.7,462.81 -2603.4,548.61 l -883.7,767.24 c 0,0 -752.4,-1114.32 -758.3,-1966.77 -2.7,-397.41 180.3,-436.86 180.3,-436.96 0,0 2833.3,-21.09 2957.5,-33.81 203.3,-20.99 471.4,-527.43 538.4,-988.68 67.1,-461.25 1248.5,-2337.26 1248.5,-2337.26 0,0 246.4,-79 360.3,-72.29 122.6,7.19 179.3,48.29 179.3,48.29 0,0 -684.6,4096.47 -1218.9,4471.63"
           style="fill:#233862;fill-opacity:1;fill-rule:nonzero;stroke:none"
           id="path160" /></g><g
         id="g162"
         transform="scale(1.03738)"><path
           d="m 14896.2,2278.24 c -15,-145.66 187.6,-183.25 422.5,-197.52 234.9,-14.17 163.4,-61.59 484.9,-123.39 321.4,-61.78 451.5,24.97 475.2,68.25 21.2,38.37 -127.9,100.35 -286.8,170.34 -19.9,8.77 -40,17.73 -59.9,26.79 -178.9,80.88 -278,243.02 -416.4,393.88 -131.1,142.96 -252.2,597.18 -252.2,597.18 l -436.7,98.23 c 0,0 118.5,-409.01 159.3,-583.49 24,-102.67 -14.3,-216.7 -48,-303.46 -18.3,-47.23 -36.6,-95.53 -41.9,-146.81"
           style="fill:#ffb27d;fill-opacity:1;fill-rule:nonzero;stroke:none"
           id="path164" /></g><g
         id="g166"
         transform="scale(1.03738)"><path
           d="m 15318.7,2080.72 c 234.9,-14.17 163.4,-61.59 484.9,-123.39 321.4,-61.78 451.5,24.97 475.2,68.25 21.2,38.37 -127.9,100.35 -286.8,170.34 l -2.5,-2.7 c 0,0 -227.3,-74.42 -488,-0.58 -212.4,60.15 -417.1,189.71 -563.4,232.41 -18.3,-47.23 -36.6,-95.53 -41.9,-146.81 -15,-145.66 187.6,-183.25 422.5,-197.52"
           style="fill:#233862;fill-opacity:1;fill-rule:nonzero;stroke:none"
           id="path168" /></g><path
         d="m 14760,7612.2 c -211.8,148.7 -848.8,264 -1551.9,349.5 -194.4,23.7 -354.1,165 -401.5,355 v 0 l -1635.5,649.7 c 0,0 -774.2,-1146.8 -780.4,-2024.1 -2.8,-409 185.6,-449.6 185.6,-449.7 0,0 2915.9,-21.7 3043.7,-34.8 209.2,-21.6 485.2,-542.8 554.1,-1017.5 69,-474.7 1284.9,-2405.4 1284.9,-2405.4 0,0 253.6,-81.3 370.8,-74.4 126.2,7.4 184.5,49.7 184.5,49.7 0,0 -704.6,4215.9 -1254.3,4602"
         style="fill:#2b478b;fill-opacity:1;fill-rule:nonzero;stroke:none"
         id="path170" /><path
         d="m 12571.5,13730.8 c -224.8,118.1 -566.7,134 -622.3,141.5 -664.8,89.3 -1064.9,-876.7 -1088.5,-1169.4 -43.3,-539.6 -328.7,-621.8 -730.5,-959.7 -805.53,-677.5 -569.31,-1464.8 -128.8,-1757.4 264.2,-175.5 730.1,0.1 730.1,0.1 6.6,-4.6 1274,708.5 1898.7,1052.5 936.6,133.1 514,2391.7 -58.7,2692.4"
         style="fill:#233862;fill-opacity:1;fill-rule:nonzero;stroke:none"
         id="path172" /><path
         d="m 12432.8,11370.7 c 3,-1.5 -295.4,-137.2 -510.7,-66 -202.6,66.7 -381,371.7 -378.2,372.2 88,12.7 177.3,99.5 202.3,613.5 l 38.9,-9.8 654.7,-165.5 c 0,0 -25.9,-207.4 -36.6,-403.5 -9,-164.7 -7.1,-321.3 29.6,-340.9"
         style="fill:#ffb27d;fill-opacity:1;fill-rule:nonzero;stroke:none"
         id="path174" /><path
         d="m 12439.8,12115.1 c 0,0 0,-42.7 -24.5,-235.6 -370.2,93.4 -533.5,216.1 -648.6,356.6 l 673.1,-121"
         style="fill:#ed975d;fill-opacity:1;fill-rule:nonzero;stroke:none"
         id="path176" /><path
         d="m 12579.5,12089 c 0,0 -865.8,-141 -945.2,399.5 -79.5,540.5 -244.8,886.3 304.6,999.2 549.4,112.8 687.4,-77.6 757.8,-251.6 70.4,-173.9 105.9,-1096.5 -117.2,-1147.1"
         style="fill:#ffb27d;fill-opacity:1;fill-rule:nonzero;stroke:none"
         id="path178" /><path
         d="m 12580.3,13510.3 c 0,0 -393.1,-620.6 -744.1,-767.6 -351,-147 -523.4,-72.3 -523.4,-72.3 0,0 159.7,242.1 201.3,567.1 12.2,95.9 74.7,178 164.3,213.9 251.9,100.9 739.1,260 901.9,58.9"
         style="fill:#233862;fill-opacity:1;fill-rule:nonzero;stroke:none"
         id="path180" /><path
         d="m 12235,13450.3 c 0,0 230.4,-118.1 325.3,-228.9 91.6,-106.8 197.4,-396.7 189.8,-526.9 0,0 113.7,623.9 -123.1,838.4 -251.1,227.5 -392,-82.6 -392,-82.6"
         style="fill:#233862;fill-opacity:1;fill-rule:nonzero;stroke:none"
         id="path182" /><path
         d="m 13125.4,10050.3 c -26.2,-1759.8 -7.2,-1392 -199.7,-1559 -46.4,-40.2 -176.7,-64.2 -348.4,-75.5 -539.6,-35.8 -1488.1,53 -1524.2,152.8 -124.5,345 -36.6,452.2 -140.4,980.5 -10.9,56.2 -24.3,117 -40,183.2 -86.6,362.8 -170.8,486.3 136.3,1069.1 278.6,528 606.2,957 632.2,941.5 734.9,-436.3 760.1,-70.6 760.1,-70.6 0,0 737,-763.7 724.1,-1622"
         style="fill:#ffffff;fill-opacity:1;fill-rule:nonzero;stroke:none"
         id="path184" /><path
         d="m 12401.3,11672.3 c 0,0 752.2,-127.5 841,-453 88.8,-325.6 611.3,-2239.7 611.3,-2239.7 0,0 -384.4,-69.1 -562,108.5 -177.6,177.6 -618,1647.7 -618,1647.7 l -272.3,936.5"
         style="fill:#ffffff;fill-opacity:1;fill-rule:nonzero;stroke:none"
         id="path186" /><path
         d="m 12577.3,8415.8 c -539.6,-35.8 -1488.1,53 -1524.2,152.8 -124.5,345 -36.6,452.2 -140.4,980.5 l 260.2,732.8 c 0,0 -43,-816.1 197.7,-1030.7 240.4,-214.7 985.4,-414.4 1102.4,-593.7 56.4,-86.1 93.5,-172.4 104.3,-241.7"
         style="fill:#ebf3ff;fill-opacity:1;fill-rule:nonzero;stroke:none"
         id="path188" /><path
         d="m 11959.1,8759 c 0,0 532.3,118.5 618.2,71.3 85.9,-47.2 295.9,-219.3 322.1,-279.2 26.3,-59.8 -191.2,45.5 -261.9,64.5 -45.9,12.3 -166.5,-29.7 -226.2,-49.6 -251.2,-83.7 -405.2,-40.6 -405.2,-40.6 l -47,233.6"
         style="fill:#ffb27d;fill-opacity:1;fill-rule:nonzero;stroke:none"
         id="path190" /><path
         d="m 11641.2,11742.9 c 0,0 -753.4,-44 -1000.9,-389.1 C 10292,10867.9 9601,8797.4 9997.01,8521.3 10443,8210.3 12026.8,8440 12026.8,8440 c 0,0 52.7,246.3 -20.7,365.5 -73.3,119.1 -1264.9,311.6 -1319.9,366.6 -55,55 687.4,1072.5 687.4,1237.5 0,165 267.6,1333.3 267.6,1333.3"
         style="fill:#ffffff;fill-opacity:1;fill-rule:nonzero;stroke:none"
         id="path192" /><path
         d="m 12603.1,8682.1 c 0,0 111.5,-143.8 148.1,-161 36.6,-17.2 60.2,-12.9 60.2,-12.9 l -75.2,135.3 -133.1,38.6"
         style="fill:#ffb27d;fill-opacity:1;fill-rule:nonzero;stroke:none"
         id="path194" /><path
         d="m 12577.3,8830.3 324.3,-157.5 c 0,0 -13.8,-22.6 -53.7,-20.7 -39.9,1.8 -140.6,38.6 -140.6,38.6 l -130,139.6"
         style="fill:#ffb27d;fill-opacity:1;fill-rule:nonzero;stroke:none"
         id="path196" /><path
         d="m 13772,8457 h -1506.2 v 0 c 0,66.3 53.8,120 120.1,120 H 13772 v -120"
         style="fill:#ed7d2b;fill-opacity:1;fill-rule:nonzero;stroke:none"
         id="path198" /><path
         d="m 13767.6,10097.3 h 2328.7 L 15537.7,8457 H 13194 l 573.6,1640.3"
         style="fill:#ed7d2b;fill-opacity:1;fill-rule:nonzero;stroke:none"
         id="path200" /><path
         d="M 16130.6,10097.4 15572,8457 h -2343.7 l 573.7,1640.4 h 2328.6"
         style="fill:#f99746;fill-opacity:1;fill-rule:nonzero;stroke:none"
         id="path202" /><path
         d="m 14875.1,9292.3 c -14.4,-62.7 -77,-113.5 -139.7,-113.5 -62.6,0 -101.7,50.8 -87.2,113.5 14.4,62.7 77,113.5 139.6,113.5 62.7,0 101.8,-50.8 87.3,-113.5"
         style="fill:#ffffff;fill-opacity:1;fill-rule:nonzero;stroke:none"
         id="path204" /><g
         id="g206"
         transform="scale(1.3514)"><path
           d="m 8691.14,5984.84 h 7551.36 c 31.7,0 57.5,25.75 57.5,57.49 v 158.13 c 0,31.75 -25.8,57.5 -57.5,57.5 H 8691.14 c -31.74,0 -57.49,-25.75 -57.49,-57.5 v -158.13 c 0,-31.74 25.75,-57.49 57.49,-57.49"
           style="fill:#182d4f;fill-opacity:1;fill-rule:nonzero;stroke:none"
           id="path208" /></g><g
         id="g210"
         transform="scale(1.36771)"><path
           d="m 16231.5,1468.74 3.2,0.36 c 38.2,4.76 65.3,38.9 60.5,76.26 l -664.9,4500.68 -243.4,-6.95 782.2,-4525.1 c 5.1,-28.95 32.6,-48.91 62.4,-45.25"
           style="fill:#182d4f;fill-opacity:1;fill-rule:nonzero;stroke:none"
           id="path212" /></g><path
         d="m 11403.5,2008.8 -4.4,0.5 c -52.3,6.5 -89.3,53.2 -82.7,104.3 l 909.4,6155.6 332.9,-9.5 -1070,-6189 c -6.8,-39.6 -44.4,-66.9 -85.2,-61.9"
         style="fill:#182d4f;fill-opacity:1;fill-rule:nonzero;stroke:none"
         id="path214" /><path
         d="m 13508.7,2008.8 -4.4,0.5 c -52.2,6.5 -89.3,53.2 -82.6,104.3 l 909.3,6155.6 333,-9.5 -1070,-6189 c -6.9,-39.6 -44.5,-66.9 -85.3,-61.9"
         style="fill:#182d4f;fill-opacity:1;fill-rule:nonzero;stroke:none"
         id="path216" /><g
         id="g218"
         transform="scale(1.86167)"><path
           d="M 16279.3,1051.8 H 1097.86 c -11.41,0 -20.75,9.34 -20.75,20.73 v 16.98 c 0,11.44 9.34,20.78 20.75,20.78 H 16279.3 c 11.4,0 20.7,-9.34 20.7,-20.78 v -16.98 c 0,-11.39 -9.3,-20.73 -20.7,-20.73"
           style="fill:#2e3552;fill-opacity:1;fill-rule:nonzero;stroke:none"
           id="path220" /></g><g
         id="g222"
         transform="scale(1.27393)"><path
           d="m 14815.3,1580.78 h 1416.6 c 68.1,83.12 43,389.89 32.7,490.05 -2.2,20.18 -3.6,31.95 -3.6,31.95 0,0 -483.7,386.91 -550.2,90.66 -2,-9.26 -4.5,-18.36 -7.1,-27.31 -83.7,-277.1 -459.2,-403.09 -676.1,-438.09 -140.9,-22.93 -193,-96.16 -212.3,-147.26"
           style="fill:#233862;fill-opacity:1;fill-rule:nonzero;stroke:none"
           id="path224" /></g><g
         id="g226"
         transform="scale(1.54031)"><path
           d="m 15450,5114.18 c -42.4,0 -2006.8,-368.83 -2331.8,-771.08 -162.3,-200.94 -186.5,-2521.64 -186.5,-2521.64 0,0 200.9,-248.98 634.6,-104.4 0,0 318,1587.74 294.6,2069.33 -6.6,133.15 1342.2,19.28 1589.1,83.16 246.8,63.89 850,600.92 717,862.49 -132.9,261.64 -717,382.14 -717,382.14"
           style="fill:#233862;fill-opacity:1;fill-rule:nonzero;stroke:none"
           id="path228" /></g><g
         id="g230"
         transform="scale(1.24043)"><path
           d="m 16300,7056.18 c 0,0 -492,-6.61 -608.4,-56.51 -116.3,-49.82 -352.5,-164.29 -289.3,-181.87 63.2,-17.57 364.7,7.17 429.8,-2.74 65.1,-10 145.4,2.74 185.3,2.74 39.9,0 226,0 226,0 l 56.6,238.38"
           style="fill:#ffb27d;fill-opacity:1;fill-rule:nonzero;stroke:none"
           id="path232" /></g><g
         id="g234"
         transform="scale(1.20004)"><path
           d="m 16254,8514.33 c 0,0 -173.4,123.92 -341.8,147.98 -96,13.73 -189.4,30.83 -245.8,50.72 -155.5,54.76 -466.4,334.29 -442.8,367.09 75.3,105.1 438.3,-117.3 501.7,-93.42 63.4,23.87 -121.8,155.5 -57.4,201.79 33.6,24.19 112.3,-97 176.6,-109.18 87,-16.45 155.1,-139.32 181.3,-145.73 51,-12.49 274.2,-178.56 274.2,-178.56 l -46,-240.69"
           style="fill:#ffb27d;fill-opacity:1;fill-rule:nonzero;stroke:none"
           id="path236" /></g><g
         id="g238"
         transform="scale(1.45701)"><path
           d="m 16126.4,8204.54 c 0,0 -318.9,-98.84 -633.1,-964.04 -314.2,-865.19 -433.6,-911.93 -547.8,-945.91 -114.2,-33.9 -1116.7,-233.49 -1116.7,-233.49 v -256.76 h 1544.7 c 0,0 579.2,550.92 752.9,921.82 173.6,370.94 0,1478.38 0,1478.38"
           style="fill:#ed7d2b;fill-opacity:1;fill-rule:nonzero;stroke:none"
           id="path240" /></g><g
         id="g242"
         transform="scale(1.225)"><path
           d="m 14756.1,1643.92 h 1473 c 70.9,86.45 44.8,405.47 34.1,509.63 -2.2,20.98 -3.7,33.23 -3.7,33.23 0,0 -503.1,402.37 -572.2,94.28 -2.1,-9.63 -4.6,-19.1 -7.4,-28.41 -87.1,-288.16 -477.5,-419.18 -703,-455.59 -146.6,-23.84 -200.8,-100 -220.8,-153.14"
           style="fill:#1b3051;fill-opacity:1;fill-rule:nonzero;stroke:none"
           id="path244" /></g><g
         id="g246"
         transform="scale(1.4856)"><path
           d="m 15418.7,5302.5 c -43.9,0 -2080.7,-382.4 -2417.6,-799.48 -168.4,-208.33 -193.4,-2614.49 -193.4,-2614.49 0,0 208.2,-258.15 658,-108.24 0,0 329.7,1646.2 305.4,2145.53 -6.8,138.06 1391.6,19.99 1647.6,86.23 255.9,66.23 881.3,623.04 743.4,894.25 -137.7,271.27 -743.4,396.2 -743.4,396.2"
           style="fill:#2b478b;fill-opacity:1;fill-rule:nonzero;stroke:none"
           id="path248" /></g><g
         id="g250"
         transform="scale(1.48367)"><path
           d="m 15566.4,7787.83 c 146.6,12.12 300.5,51.22 433.4,94.36 166.2,53.92 300.2,132.74 213.9,284.65 -79.6,139.99 -208.4,452.74 -199.7,711.82 l -309.2,-249.22 -210.1,-169.27 c 0,0 0.9,-99.79 23.8,-274.69 4.2,-31.88 9.1,-66.29 14.9,-103.08 4.7,-29.7 -9,-59.39 -34.5,-75.24 -1.6,-0.98 -3.2,-1.97 -4.7,-2.96 -104.4,-65.59 -50.8,-226.52 72.2,-216.37"
           style="fill:#ffb27d;fill-opacity:1;fill-rule:nonzero;stroke:none"
           id="path252" /></g><g
         id="g254"
         transform="scale(1.44406)"><path
           d="m 15919.8,8734.57 c 0,0 -11.1,-37.23 7.8,-174.71 192.5,31.4 372.4,184.87 372.4,184.87 -98,26.9 -133.7,132.75 -206.6,122.89 l -173.6,-133.05"
           style="fill:#ed975d;fill-opacity:1;fill-rule:nonzero;stroke:none"
           id="path256" /></g><g
         id="g258"
         transform="scale(1.4851)"><path
           d="m 15306.8,8462.73 c 0,0 719.7,-119.57 787.3,329.77 67.5,449.35 205.9,736.55 -250.8,831.89 -456.6,95.34 -571.9,-62.67 -630.9,-207.17 -59.1,-144.5 -91.1,-911.81 94.4,-954.49"
           style="fill:#ffb27d;fill-opacity:1;fill-rule:nonzero;stroke:none"
           id="path260" /></g><g
         id="g262"
         transform="scale(1.49138)"><path
           d="m 15042.9,9575.57 c -30.8,-107.75 51.6,-239 189.8,-282.2 205.3,-64.13 160,-315.88 252.3,-312.46 92.3,3.42 129.6,144.7 212.1,31.82 70.4,-96.28 -58.6,-210.43 -49.7,-263.24 15.2,-90.64 157.2,-276.11 285.2,-266.8 128,9.3 367.4,617.42 319.5,805.54 -47.9,188.14 -239.5,386.53 -420.7,413.9 -181.3,27.37 -433.1,-50.92 -491.2,-50.92 -58.2,0 -280.7,-17.44 -297.3,-75.64"
           style="fill:#2b478b;fill-opacity:1;fill-rule:nonzero;stroke:none"
           id="path264" /></g><g
         id="g266"
         transform="scale(1.55609)"><path
           d="m 16012.2,7086.95 c -99.3,399.58 -373.7,818.87 -559.2,818.52 -316.1,-0.61 -770.6,-84.04 -954.1,-536.71 -135.2,-333.39 -315.4,-2251.2 -111.7,-2387.56 465.7,-311.81 1545.3,-948.34 1737,-299.21 175.8,594.69 60.3,1711.46 -112,2404.96"
           style="fill:#f99746;fill-opacity:1;fill-rule:nonzero;stroke:none"
           id="path268" /></g><g
         id="g270"
         transform="scale(1.46875)"><path
           d="m 16150.9,7929.67 c -95.5,248.57 -403.8,334.49 -613.9,170.98 -113.7,-88.44 -252.9,-214.38 -421.1,-393.45 -625.1,-665.65 -752.1,-661.51 -869.5,-647.76 -117.4,13.74 -1109.3,224.26 -1109.3,224.26 0,0 -50.8,-37.46 -80.7,-98.03 -39.9,-80.89 -19.8,-136.02 -19.8,-136.02 -38.9,25.11 351.6,-244.06 546,-351.36 256.6,-141.69 643.3,-274.59 797.4,-325.04 43.6,-14.3 90.7,-13.55 133.9,2.04 228.7,82.38 996.4,382.64 1621.4,903.71 164.7,137.29 104.2,420.2 15.6,650.67"
           style="fill:#f99746;fill-opacity:1;fill-rule:nonzero;stroke:none"
           id="path272" /></g><g
         id="g274"
         transform="scale(1.47827)"><path
           d="m 16300,8317.59 -75.3,169.74 c 0,0 -674.4,-55 -787.8,-438.85 0,0 522.8,260.87 863.1,269.11"
           style="fill:#ffffff;fill-opacity:1;fill-rule:nonzero;stroke:none"
           id="path276" /></g><g
         id="g278"
         transform="scale(1.63331)"><path
           d="m 16234.7,1246.73 4.3,0.06 c 34.4,0.61 61,28.78 57.8,61.23 l -229.9,2296.37 -200.7,-17.94 330.1,-2308.68 c 2.7,-18.06 19.1,-31.41 38.4,-31.04"
           style="fill:#8cb4f4;fill-opacity:1;fill-rule:nonzero;stroke:none"
           id="path280" /></g><g
         id="g282"
         transform="scale(1.51472)"><path
           d="m 16229.6,1344.34 4.5,0.06 c 37.2,0.67 65.9,31.03 62.4,66.02 l -248,2476.16 -216.3,-19.34 356,-2489.43 c 2.8,-19.48 20.6,-33.87 41.4,-33.47"
           style="fill:#8cb4f4;fill-opacity:1;fill-rule:nonzero;stroke:none"
           id="path284" /></g><g
         id="g286"
         transform="scale(1.32247)"><path
           d="m 15844.9,1539.77 -5.3,0.08 c -42.4,0.76 -75.3,35.54 -71.3,75.62 l 283.9,2836.14 247.8,-22.16 -407.7,-2851.34 c -3.2,-22.3 -23.6,-38.79 -47.4,-38.34"
           style="fill:#73a2e5;fill-opacity:1;fill-rule:nonzero;stroke:none"
           id="path288" /></g><g
         id="g290"
         transform="scale(1.64499)"><path
           d="m 16055,3901.78 216.6,1904.32 c 28.4,274.44 -63.4,543.15 -459.4,563.95 l -696.7,42.44 c -413,17.03 -599.4,-326.64 -651.7,-591.19 l -413.6,-2093.38 2004.8,173.86"
           style="fill:#8cb4f4;fill-opacity:1;fill-rule:nonzero;stroke:none"
           id="path292" /></g><g
         id="g294"
         transform="scale(1.61991)"><path
           d="m 16185.3,3600.33 h -3140 c -63.1,0 -114.8,51.61 -114.8,114.7 v 141.24 c 0,63.09 51.7,114.7 114.8,114.7 H 16300 v -255.94 c 0,-63.09 -51.6,-114.7 -114.7,-114.7"
           style="fill:#73a2e5;fill-opacity:1;fill-rule:nonzero;stroke:none"
           id="path296" /></g><g
         id="g298"
         transform="scale(1.61991)"><path
           d="m 16210.9,3600.33 h -1854 c -49,0 -89.1,40.12 -89.1,89.08 v 192.48 c 0,49.01 40.1,89.08 89.1,89.08 H 16300 v -281.56 c 0,-48.96 -40.1,-89.08 -89.1,-89.08"
           style="fill:#8cb4f4;fill-opacity:1;fill-rule:nonzero;stroke:none"
           id="path300" /></g></g></g></svg>
