<svg width="363" height="153" viewBox="0 0 363 153" fill="none" xmlns="http://www.w3.org/2000/svg">
<path d="M13.44 16.2C13.44 16.52 13.35 16.94 13.17 17.46C12.75 18.68 11.9 19.66 10.62 20.4C9.44 21.08 8.16 21.42 6.78 21.42C4.44 21.42 2.68 20.46 1.5 18.54C0.5 16.96 0 14.93 0 12.45C0 10.33 0.31 8.33 0.93 6.45C1.63 4.25 2.67 2.55 4.05 1.35C5.07 0.45 6.1 0 7.14 0C8.68 0 9.83 0.74 10.59 2.22C11.19 3.38 11.49 4.81 11.49 6.51C11.49 7.35 11.36 8.32 11.1 9.42C10.76 10.86 10.32 11.58 9.78 11.58C9.36 11.58 9.06 11.36 8.88 10.92C9 10.84 9.19 10.7 9.45 10.5C9.97 10 10.23 8.78 10.23 6.84C10.23 5.66 10.01 4.53 9.57 3.45C9.01 2.05 8.24 1.35 7.26 1.35C6.48 1.35 5.66 1.82 4.8 2.76C4.16 3.46 3.61 4.27 3.15 5.19C2.13 7.31 1.62 9.92 1.62 13.02C1.62 15.08 1.98 16.72 2.7 17.94C3.6 19.46 5 20.22 6.9 20.22C7.94 20.22 8.89 19.95 9.75 19.41C10.61 18.85 11.27 18.11 11.73 17.19C11.81 16.89 11.98 16.47 12.24 15.93C12.4 15.67 12.6 15.54 12.84 15.54C13.24 15.54 13.44 15.76 13.44 16.2Z" transform="translate(1.80002 0.539978) scale(3)" fill="#494949"/>
<path d="M17.2237 4.59C17.2237 5.27 16.9037 5.61 16.2638 5.61C15.8837 5.61 15.5337 5.47 15.2137 5.19C14.8938 4.91 14.7337 4.59 14.7337 4.23C14.7337 3.55 15.0737 3.21 15.7537 3.21C16.1537 3.21 16.4937 3.34 16.7738 3.6C17.0737 3.86 17.2237 4.19 17.2237 4.59ZM16.6537 9.09C16.6537 9.45 16.5737 9.99 16.4137 10.71C16.2537 11.43 16.1737 11.97 16.1737 12.33V18.96C16.1737 19.4 16.2638 20 16.4438 20.76C16.3638 20.92 16.2537 21 16.1137 21C15.1337 21 14.6437 20.53 14.6437 19.59V8.58C14.9037 8.44 15.1537 8.37 15.3937 8.37C15.6337 8.37 15.8837 8.44 16.1437 8.58C16.4837 8.72 16.6537 8.89 16.6537 9.09Z" transform="translate(1.80002 0.539978) scale(3)" fill="#494949"/>
<path d="M27.3337 8.88C27.4538 10.6 27.0938 12.97 26.2537 15.99C25.3538 19.35 24.4037 21.03 23.4037 21.03C22.2038 21.03 21.1038 19.76 20.1038 17.22C19.4837 15.68 18.9637 13.86 18.5437 11.76C18.3437 10.78 18.2437 9.75 18.2437 8.67C18.2437 8.51 18.3237 8.35 18.4837 8.19C18.6637 8.01 18.8337 7.92 18.9937 7.92C19.2337 7.92 19.5938 8.12 20.0737 8.52C19.9937 8.86 19.9537 9.2 19.9537 9.54C19.9537 10.76 20.1938 12.23 20.6737 13.95C21.1138 15.51 21.6337 16.91 22.2337 18.15C22.5737 18.83 22.8538 19.17 23.0737 19.17C23.8538 19.17 24.5337 17.6 25.1137 14.46C25.5537 12.02 25.7738 10.04 25.7738 8.52C25.7738 8.4 25.8637 8.27 26.0437 8.13C26.2437 7.99 26.4137 7.92 26.5537 7.92C27.0537 7.92 27.3137 8.24 27.3337 8.88Z" transform="translate(1.80002 0.539978) scale(3)" fill="#494949"/>
<path d="M32.0363 4.59C32.0363 5.27 31.7162 5.61 31.0763 5.61C30.6963 5.61 30.3462 5.47 30.0262 5.19C29.7062 4.91 29.5462 4.59 29.5462 4.23C29.5462 3.55 29.8862 3.21 30.5662 3.21C30.9662 3.21 31.3062 3.34 31.5862 3.6C31.8862 3.86 32.0363 4.19 32.0363 4.59ZM31.4662 9.09C31.4662 9.45 31.3862 9.99 31.2262 10.71C31.0662 11.43 30.9862 11.97 30.9862 12.33V18.96C30.9862 19.4 31.0763 20 31.2563 20.76C31.1763 20.92 31.0662 21 30.9262 21C29.9462 21 29.4562 20.53 29.4562 19.59V8.58C29.7162 8.44 29.9662 8.37 30.2062 8.37C30.4462 8.37 30.6962 8.44 30.9562 8.58C31.2962 8.72 31.4662 8.89 31.4662 9.09Z" transform="translate(1.80002 0.539978) scale(3)" fill="#494949"/>
<path d="M35.745 20.52C35.745 21.04 35.465 21.3 34.905 21.3C34.025 21.3 33.595 19.49 33.615 15.87L33.705 2.4C33.705 2.18 33.675 1.87 33.615 1.47C33.555 1.05 33.525 0.740001 33.525 0.540001C33.905 0.260001 34.225 0.120001 34.485 0.120001C34.765 0.120001 35.045 0.22 35.325 0.42C35.605 0.62 35.745 0.86 35.745 1.14C35.745 1.34 35.695 1.6 35.595 1.92C35.475 2.32 35.405 2.57 35.385 2.67C35.145 4.03 35.025 5.93 35.025 8.37C35.025 12.31 35.015 14.21 34.995 14.07C35.055 16.53 35.215 18.38 35.475 19.62C35.475 19.68 35.515 19.82 35.595 20.04C35.695 20.24 35.745 20.4 35.745 20.52Z" transform="translate(1.80002 0.539978) scale(3)" fill="#494949"/>
<path d="M45.735 19.05C45.735 19.75 45.205 20.34 44.145 20.82C43.265 21.2 42.415 21.39 41.595 21.39C41.055 21.39 40.435 21.26 39.735 21C39.355 20.84 38.745 20.42 37.905 19.74C36.985 19 36.525 18.49 36.525 18.21C36.525 17.59 36.895 17.31 37.635 17.37H37.815C37.855 17.97 38.495 18.62 39.735 19.32C40.855 19.96 41.755 20.28 42.435 20.28C43.315 20.28 43.755 19.98 43.755 19.38C43.755 19.02 43.215 18.52 42.135 17.88C40.655 17.02 39.645 16.33 39.105 15.81C38.005 14.75 37.455 13.53 37.455 12.15C37.455 11.11 37.725 10.12 38.265 9.18C38.885 8.06 39.665 7.5 40.605 7.5C41.285 7.5 42.105 7.82 43.065 8.46C44.025 9.08 44.585 9.71 44.745 10.35C44.905 10.89 44.985 11.52 44.985 12.24C44.985 13.02 44.845 13.87 44.565 14.79C44.385 14.93 44.175 15 43.935 15C43.795 15 43.575 14.95 43.275 14.85C42.975 14.73 42.825 14.61 42.825 14.49C42.825 14.57 42.935 14.35 43.155 13.83C43.315 13.49 43.395 12.87 43.395 11.97C43.395 9.83 42.725 8.76 41.385 8.76C40.685 8.76 40.125 9.23 39.705 10.17C39.345 10.93 39.165 11.7 39.165 12.48C39.165 13.46 39.735 14.41 40.875 15.33C41.255 15.65 42.305 16.34 44.025 17.4C45.165 18.1 45.735 18.65 45.735 19.05Z" transform="translate(1.80002 0.539978) scale(3)" fill="#494949"/>
<path d="M63.0741 1.77C63.0741 2.23 63.0141 2.82 62.8941 3.54C62.7541 4.48 62.6641 5.07 62.6241 5.31C62.5641 5.93 62.4641 7.99 62.3241 11.49C62.2041 14.69 62.1441 16.46 62.1441 16.8C62.1441 18.94 62.3341 20.45 62.7141 21.33C62.5741 21.55 62.3941 21.66 62.1741 21.66C61.9741 21.66 61.7441 21.56 61.4841 21.36C61.2441 21.16 61.0941 20.96 61.0341 20.76C61.0341 20.36 60.9741 19.75 60.8541 18.93C59.6741 20.43 58.5441 21.18 57.4641 21.18C56.1641 21.18 55.1641 20.69 54.4641 19.71C53.8641 18.87 53.5641 17.76 53.5641 16.38C53.5641 14.7 53.8741 12.96 54.4941 11.16C55.2941 8.8 56.3541 7.62 57.6741 7.62C58.2341 7.62 58.8041 7.83 59.3841 8.25C59.5041 8.33 59.9741 8.75 60.7941 9.51C60.9941 8.15 61.0941 5.17 61.0941 0.57C61.2341 0.43 61.4241 0.360001 61.6641 0.360001C62.0441 0.360001 62.3741 0.500001 62.6541 0.780001C62.9341 1.06 63.0741 1.39 63.0741 1.77ZM60.8241 12.84C60.8241 11.96 60.6241 11.17 60.2241 10.47C59.7441 9.63 59.0941 9.21 58.2741 9.21C57.2741 9.21 56.4741 10.23 55.8741 12.27C55.3941 13.81 55.1541 15.26 55.1541 16.62C55.1541 17.5 55.2941 18.26 55.5741 18.9C55.9541 19.74 56.5241 20.16 57.2841 20.16C58.5241 20.16 59.4641 19.2 60.1041 17.28C60.5841 15.9 60.8241 14.42 60.8241 12.84Z" transform="translate(1.80002 0.539978) scale(3)" fill="#494949"/>
<path d="M73.3697 17.85C73.3697 18.73 72.7797 19.52 71.5997 20.22C70.5397 20.86 69.5397 21.18 68.5997 21.18C65.9197 21.18 64.5797 19.48 64.5797 16.08C64.5797 14.58 64.8497 12.97 65.3897 11.25C66.1097 9.01 67.0297 7.89 68.1497 7.89C69.1097 7.89 70.1597 8.38 71.2997 9.36C72.4397 10.32 73.0097 11.28 73.0097 12.24C73.0097 13.48 72.5097 14.56 71.5097 15.48C70.5097 16.4 69.3797 16.86 68.1197 16.86C67.9997 16.86 67.7397 16.76 67.3397 16.56C66.9597 16.36 66.6997 16.26 66.5597 16.26C66.2997 16.26 66.1697 16.34 66.1697 16.5C66.1697 18.8 66.9297 19.95 68.4497 19.95C69.2297 19.95 69.9497 19.69 70.6097 19.17C71.0097 18.87 71.4497 18.4 71.9297 17.76C72.3097 17.26 72.5597 17.01 72.6797 17.01C73.1397 17.01 73.3697 17.29 73.3697 17.85ZM71.2997 12.33C71.2997 11.63 71.0997 10.98 70.6997 10.38C70.2997 9.76 69.7697 9.45 69.1097 9.45C68.3097 9.45 67.6597 9.95 67.1597 10.95C66.7397 11.79 66.5297 12.66 66.5297 13.56C66.5297 14.14 66.7097 14.63 67.0697 15.03C67.4497 15.41 67.9297 15.6 68.5097 15.6C69.3297 15.6 70.0097 15.25 70.5497 14.55C71.0497 13.91 71.2997 13.17 71.2997 12.33Z" transform="translate(1.80002 0.539978) scale(3)" fill="#494949"/>
<path d="M0 0.0990007H3.366V18.876C3.366 19.514 3.476 19.954 3.696 20.196C3.938 20.416 4.378 20.559 5.016 20.625V23.793C4.246 23.793 3.553 23.727 2.937 23.595C2.321 23.485 1.793 23.254 1.353 22.902C0.913 22.572 0.572 22.11 0.33 21.516C0.11 20.9 0 20.097 0 19.107V0.0990007Z" transform="translate(48.564 79.215) scale(3)" fill="#494949"/>
<path d="M12.69 23.595V21.879H12.624C12.184 22.495 11.733 22.968 11.271 23.298C10.831 23.628 10.204 23.793 9.39005 23.793C8.99405 23.793 8.58705 23.727 8.16905 23.595C7.77305 23.485 7.38805 23.265 7.01405 22.935C6.64005 22.627 6.33205 22.187 6.09005 21.615C5.87005 21.021 5.76005 20.262 5.76005 19.338C5.76005 18.392 5.83705 17.567 5.99105 16.863C6.14505 16.137 6.43105 15.532 6.84905 15.048C7.24505 14.586 7.78405 14.245 8.46605 14.025C9.14805 13.783 10.017 13.662 11.073 13.662C11.183 13.662 11.304 13.662 11.436 13.662C11.568 13.662 11.689 13.673 11.799 13.695C11.909 13.717 12.041 13.728 12.195 13.728C12.349 13.728 12.514 13.739 12.69 13.761V12.012C12.69 11.44 12.569 10.967 12.327 10.593C12.085 10.219 11.645 10.032 11.007 10.032C10.567 10.032 10.16 10.175 9.78605 10.461C9.43405 10.747 9.20305 11.165 9.09305 11.715H5.82605C5.91405 10.219 6.42005 9.009 7.34405 8.085C7.78405 7.645 8.31205 7.304 8.92805 7.062C9.54405 6.798 10.237 6.666 11.007 6.666C11.711 6.666 12.371 6.776 12.987 6.996C13.603 7.216 14.142 7.546 14.604 7.986C15.044 8.426 15.396 8.976 15.66 9.636C15.924 10.296 16.056 11.066 16.056 11.946V23.595H12.69ZM12.69 16.401C12.316 16.335 12.008 16.302 11.766 16.302C11.04 16.302 10.413 16.478 9.88505 16.83C9.37905 17.16 9.12605 17.776 9.12605 18.678C9.12605 19.316 9.28005 19.833 9.58805 20.229C9.89605 20.625 10.325 20.823 10.875 20.823C11.447 20.823 11.887 20.636 12.195 20.262C12.525 19.888 12.69 19.36 12.69 18.678V16.401Z" transform="translate(48.564 79.215) scale(3)" fill="#494949"/>
<path d="M24.856 23.595V0.0990007H29.839C31.775 0.0990007 33.238 0.627 34.228 1.683C35.24 2.739 35.746 4.235 35.746 6.171V17.16C35.746 19.36 35.207 20.988 34.129 22.044C33.073 23.078 31.544 23.595 29.542 23.595H24.856ZM28.222 3.267V20.427H29.773C30.719 20.427 31.39 20.196 31.786 19.734C32.182 19.25 32.38 18.502 32.38 17.49V6.171C32.38 5.247 32.193 4.532 31.819 4.026C31.445 3.52 30.763 3.267 29.773 3.267H28.222Z" transform="translate(48.564 79.215) scale(3)" fill="#494949"/>
<path d="M48.4437 16.5H41.7777V18.777C41.7777 19.305 41.9207 19.712 42.2067 19.998C42.5147 20.284 42.9217 20.427 43.4277 20.427C44.0657 20.427 44.4837 20.24 44.6817 19.866C44.9017 19.492 45.0337 19.118 45.0777 18.744H48.4437C48.4437 20.218 47.9927 21.406 47.0907 22.308C46.6507 22.77 46.1227 23.133 45.5067 23.397C44.8907 23.661 44.1977 23.793 43.4277 23.793C42.3717 23.793 41.4697 23.573 40.7217 23.133C39.9957 22.693 39.4347 22.11 39.0387 21.384C38.7967 20.944 38.6317 20.438 38.5437 19.866C38.4557 19.294 38.4117 18.667 38.4117 17.985V12.474C38.4117 11.792 38.4557 11.165 38.5437 10.593C38.6317 10.021 38.7967 9.515 39.0387 9.075C39.4347 8.349 39.9957 7.766 40.7217 7.326C41.4697 6.886 42.3717 6.666 43.4277 6.666C44.1977 6.666 44.8907 6.798 45.5067 7.062C46.1447 7.326 46.6837 7.689 47.1237 8.151C48.0037 9.141 48.4437 10.384 48.4437 11.88V16.5ZM41.7777 13.86H45.0777V11.946C45.0777 11.308 44.9237 10.835 44.6157 10.527C44.3297 10.197 43.9337 10.032 43.4277 10.032C42.9217 10.032 42.5147 10.197 42.2067 10.527C41.9207 10.835 41.7777 11.308 41.7777 11.946V13.86ZM41.2827 4.653L44.2527 0H47.8167L43.4607 4.653H41.2827Z" transform="translate(48.564 79.215) scale(3)" fill="#494949"/>
<path d="M51.3516 23.595V9.504H49.7016V6.864H51.3516V4.587C51.3516 3.773 51.4726 3.091 51.7146 2.541C51.9566 1.969 52.2866 1.496 52.7046 1.122C53.1006 0.748 53.5516 0.484 54.0576 0.33C54.5856 0.176 55.1246 0.0990007 55.6746 0.0990007H57.2256V3.267H55.7076C55.0476 3.267 54.7176 3.652 54.7176 4.422V6.864H57.2256V9.504H54.7176V23.595H51.3516Z" transform="translate(48.564 79.215) scale(3)" fill="#494949"/>
<path d="M67.973 16.5H61.307V18.777C61.307 19.305 61.45 19.712 61.736 19.998C62.044 20.284 62.451 20.427 62.957 20.427C63.595 20.427 64.013 20.24 64.211 19.866C64.431 19.492 64.563 19.118 64.607 18.744H67.973C67.973 20.218 67.522 21.406 66.62 22.308C66.18 22.77 65.652 23.133 65.036 23.397C64.42 23.661 63.727 23.793 62.957 23.793C61.901 23.793 60.999 23.573 60.251 23.133C59.525 22.693 58.964 22.11 58.568 21.384C58.326 20.944 58.161 20.438 58.073 19.866C57.985 19.294 57.941 18.667 57.941 17.985V12.474C57.941 11.792 57.985 11.165 58.073 10.593C58.161 10.021 58.326 9.515 58.568 9.075C58.964 8.349 59.525 7.766 60.251 7.326C60.999 6.886 61.901 6.666 62.957 6.666C63.727 6.666 64.42 6.798 65.036 7.062C65.674 7.326 66.213 7.689 66.653 8.151C67.533 9.141 67.973 10.384 67.973 11.88V16.5ZM61.307 13.86H64.607V11.946C64.607 11.308 64.453 10.835 64.145 10.527C63.859 10.197 63.463 10.032 62.957 10.032C62.451 10.032 62.044 10.197 61.736 10.527C61.45 10.835 61.307 11.308 61.307 11.946V13.86Z" transform="translate(48.564 79.215) scale(3)" fill="#494949"/>
<path d="M70.4519 23.595V6.864H73.8179V8.481H73.8839C74.2359 7.953 74.6539 7.524 75.1379 7.194C75.6439 6.842 76.2819 6.666 77.0519 6.666C77.4699 6.666 77.8879 6.743 78.3059 6.897C78.7239 7.029 79.0979 7.26 79.4279 7.59C79.7579 7.92 80.0219 8.349 80.2199 8.877C80.4179 9.383 80.5169 10.01 80.5169 10.758V23.595H77.1509V12.012C77.1509 11.396 77.0079 10.912 76.7219 10.56C76.4359 10.208 76.0289 10.032 75.5009 10.032C74.8629 10.032 74.4229 10.23 74.1809 10.626C73.9389 11.022 73.8179 11.594 73.8179 12.342V23.595H70.4519Z" transform="translate(48.564 79.215) scale(3)" fill="#494949"/>
<path d="M89.3831 11.55C89.3611 10.978 89.1741 10.549 88.8221 10.263C88.4921 9.977 88.1071 9.834 87.6671 9.834C87.1391 9.834 86.7321 10.01 86.4461 10.362C86.1601 10.692 86.0171 11.077 86.0171 11.517C86.0171 11.825 86.0941 12.133 86.2481 12.441C86.4021 12.727 86.7981 12.991 87.4361 13.233L89.4161 14.025C90.6701 14.509 91.5281 15.169 91.9901 16.005C92.4741 16.841 92.7161 17.754 92.7161 18.744C92.7161 19.448 92.5841 20.108 92.3201 20.724C92.0781 21.318 91.7371 21.846 91.2971 22.308C90.8571 22.77 90.3291 23.133 89.7131 23.397C89.0971 23.661 88.4261 23.793 87.7001 23.793C86.3361 23.793 85.1921 23.364 84.2681 22.506C83.8061 22.088 83.4321 21.571 83.1461 20.955C82.8601 20.317 82.7061 19.58 82.6841 18.744H85.8521C85.9181 19.206 86.0721 19.635 86.3141 20.031C86.5781 20.427 87.0291 20.625 87.6671 20.625C88.1511 20.625 88.5801 20.471 88.9541 20.163C89.3501 19.833 89.5481 19.382 89.5481 18.81C89.5481 18.348 89.4271 17.952 89.1851 17.622C88.9431 17.292 88.5031 17.006 87.8651 16.764L86.2481 16.17C85.1921 15.774 84.3561 15.191 83.7401 14.421C83.1461 13.629 82.8491 12.672 82.8491 11.55C82.8491 10.846 82.9811 10.197 83.2451 9.603C83.5091 8.987 83.8721 8.459 84.3341 8.019C84.7741 7.579 85.2911 7.249 85.8851 7.029C86.4791 6.787 87.1171 6.666 87.7991 6.666C88.4811 6.666 89.1081 6.787 89.6801 7.029C90.2741 7.271 90.7801 7.612 91.1981 8.052C91.6161 8.492 91.9461 9.02 92.1881 9.636C92.4301 10.23 92.5511 10.868 92.5511 11.55H89.3831Z" transform="translate(48.564 79.215) scale(3)" fill="#494949"/>
<path d="M104.615 16.5H97.9486V18.777C97.9486 19.305 98.0916 19.712 98.3776 19.998C98.6856 20.284 99.0926 20.427 99.5986 20.427C100.237 20.427 100.655 20.24 100.853 19.866C101.073 19.492 101.205 19.118 101.249 18.744H104.615C104.615 20.218 104.164 21.406 103.262 22.308C102.822 22.77 102.294 23.133 101.678 23.397C101.062 23.661 100.369 23.793 99.5986 23.793C98.5426 23.793 97.6406 23.573 96.8926 23.133C96.1666 22.693 95.6056 22.11 95.2096 21.384C94.9676 20.944 94.8026 20.438 94.7146 19.866C94.6266 19.294 94.5826 18.667 94.5826 17.985V12.474C94.5826 11.792 94.6266 11.165 94.7146 10.593C94.8026 10.021 94.9676 9.515 95.2096 9.075C95.6056 8.349 96.1666 7.766 96.8926 7.326C97.6406 6.886 98.5426 6.666 99.5986 6.666C100.369 6.666 101.062 6.798 101.678 7.062C102.316 7.326 102.855 7.689 103.295 8.151C104.175 9.141 104.615 10.384 104.615 11.88V16.5ZM97.9486 13.86H101.249V11.946C101.249 11.308 101.095 10.835 100.787 10.527C100.501 10.197 100.105 10.032 99.5986 10.032C99.0926 10.032 98.6856 10.197 98.3776 10.527C98.0916 10.835 97.9486 11.308 97.9486 11.946V13.86Z" transform="translate(48.564 79.215) scale(3)" fill="#494949"/>
</svg>
