<?xml version="1.0" encoding="UTF-8" standalone="no"?>
<!-- Created with Inkscape (http://www.inkscape.org/) -->

<svg
   xmlns:dc="http://purl.org/dc/elements/1.1/"
   xmlns:cc="http://creativecommons.org/ns#"
   xmlns:rdf="http://www.w3.org/1999/02/22-rdf-syntax-ns#"
   xmlns:svg="http://www.w3.org/2000/svg"
   xmlns="http://www.w3.org/2000/svg"
   xmlns:sodipodi="http://sodipodi.sourceforge.net/DTD/sodipodi-0.dtd"
   xmlns:inkscape="http://www.inkscape.org/namespaces/inkscape"
   id="svg2"
   version="1.1"
   inkscape:version="0.92.2 2405546, 2018-03-11"
   xml:space="preserve"
   width="161.6272"
   height="200"
   viewBox="0 0 161.6272 200.00001"
   sodipodi:docname="minarm.svg"
   data-ember-extension="1"><metadata
     id="metadata8"><rdf:RDF><cc:Work
         rdf:about=""><dc:format>image/svg+xml</dc:format><dc:type
           rdf:resource="http://purl.org/dc/dcmitype/StillImage" /><dc:title></dc:title></cc:Work></rdf:RDF></metadata><defs
     id="defs6"><clipPath
       clipPathUnits="userSpaceOnUse"
       id="clipPath54"><path
         d="m 1101.275,84.015 h 66.026 v 80.986 h -66.026 z"
         id="path56"
         inkscape:connector-curvature="0" /></clipPath></defs><sodipodi:namedview
     pagecolor="#ffffff"
     bordercolor="#666666"
     borderopacity="1"
     objecttolerance="10"
     gridtolerance="10"
     guidetolerance="10"
     inkscape:pageopacity="0"
     inkscape:pageshadow="2"
     inkscape:window-width="3840"
     inkscape:window-height="2086"
     id="namedview4"
     showgrid="false"
     fit-margin-left="0"
     fit-margin-top="0"
     fit-margin-bottom="0"
     fit-margin-right="0"
     inkscape:zoom="0.8976615"
     inkscape:cx="-110.32226"
     inkscape:cy="35.3384"
     inkscape:window-x="3200"
     inkscape:window-y="0"
     inkscape:window-maximized="1"
     inkscape:current-layer="g10" /><g
     id="g10"
     inkscape:groupmode="layer"
     inkscape:label="174000553"
     transform="matrix(1.25,0,0,-1.25,-1276.8906,201.04804)"><g
       id="g4772"
       transform="matrix(2.0519529,0,0,2.0519529,-1241.3428,-174.64499)"><path
         inkscape:connector-curvature="0"
         id="path38"
         style="fill:#004494;fill-opacity:1;fill-rule:nonzero;stroke:none"
         d="m 1165.54,124.474 h -62.504 V 85.775 h 62.504 z" /><g
         transform="translate(1165.5403,124.4742)"
         id="g40"><path
           inkscape:connector-curvature="0"
           id="path42"
           style="fill:none;stroke:#000000;stroke-width:0.50999999;stroke-linecap:butt;stroke-linejoin:miter;stroke-miterlimit:4;stroke-dasharray:none;stroke-opacity:1"
           d="M 0,0 H -62.504 V -38.699 H 0 Z" /></g><path
         inkscape:connector-curvature="0"
         id="path44"
         style="fill:#ffffff;fill-opacity:1;fill-rule:nonzero;stroke:none"
         d="m 1165.539,163.24 h -62.503 v -38.7 h 62.503 z" /><g
         transform="translate(1165.5394,163.2397)"
         id="g46"><path
           inkscape:connector-curvature="0"
           id="path48"
           style="fill:none;stroke:#000000;stroke-width:0.50999999;stroke-linecap:butt;stroke-linejoin:miter;stroke-miterlimit:4;stroke-dasharray:none;stroke-opacity:1"
           d="M 0,0 H -62.503 V -38.7 H 0 Z" /></g><g
         id="g50"><g
           clip-path="url(#clipPath54)"
           id="g52"><g
             transform="translate(1113.9698,133.9659)"
             id="g58"><path
               inkscape:connector-curvature="0"
               id="path60"
               style="fill:#000000;fill-opacity:1;fill-rule:nonzero;stroke:none"
               d="m 0,0 c -0.086,0 -0.163,-0.013 -0.258,-0.036 0,-0.267 -0.004,-0.751 -0.004,-1.126 0.047,-0.01 0.133,-0.014 0.189,-0.014 0.351,0 0.586,0.23 0.586,0.584 C 0.513,-0.249 0.295,0 0,0 m 1.1,-2.831 c -0.158,0 -0.249,0.021 -0.338,0.086 -0.14,0.098 -0.291,0.37 -0.377,0.523 -0.146,0.268 -0.308,0.553 -0.462,0.793 -0.026,-0.005 -0.047,-0.005 -0.065,-0.005 -0.043,0 -0.077,0.005 -0.12,0.005 v -0.24 c 0,-0.122 0.004,-0.244 0.004,-0.367 0.005,-0.244 0.01,-0.348 0.043,-0.443 0.044,-0.118 0.12,-0.176 0.262,-0.19 v -0.126 l -0.099,0.004 c -0.111,0.005 -0.266,0 -0.467,0 -0.197,0 -0.35,0.005 -0.461,0 l -0.103,-0.004 v 0.126 c 0.108,0.01 0.158,0.032 0.21,0.091 0.047,0.059 0.077,0.139 0.086,0.244 0.012,0.135 0.017,0.217 0.017,0.665 v 0.759 c 0,0.554 -0.017,0.689 -0.048,0.815 -0.029,0.122 -0.12,0.172 -0.265,0.191 v 0.126 c 0.085,-0.009 0.172,-0.005 0.257,-0.005 0.223,0 0.291,0 0.555,0.014 0.232,0.009 0.364,0.014 0.467,0.014 0.292,0 0.468,-0.046 0.612,-0.155 0.164,-0.121 0.271,-0.356 0.271,-0.591 0,-0.373 -0.231,-0.675 -0.626,-0.829 0.164,-0.217 0.292,-0.434 0.441,-0.683 0.137,-0.231 0.275,-0.429 0.382,-0.543 0.059,-0.069 0.098,-0.091 0.18,-0.113 V -2.795 C 1.343,-2.823 1.232,-2.831 1.1,-2.831" /></g><g
             transform="translate(1117.266,131.2262)"
             id="g62"><path
               inkscape:connector-curvature="0"
               id="path64"
               style="fill:#000000;fill-opacity:1;fill-rule:nonzero;stroke:none"
               d="m 0,0 c -0.032,-0.056 -0.066,-0.067 -0.261,-0.067 -0.121,0 -0.237,0.008 -0.358,0.011 -0.169,0.004 -0.338,0.012 -0.508,0.012 -0.17,0 -0.34,-0.004 -0.51,-0.012 v 0.105 c 0.159,0.015 0.23,0.113 0.245,0.276 0.01,0.112 0.01,0.231 0.01,0.426 v 1.058 c 0,0.198 -0.01,0.288 -0.039,0.366 -0.032,0.098 -0.096,0.142 -0.216,0.157 V 2.437 H 0.017 C 0.017,2.329 0.015,2.216 0.015,2.107 0.015,2.018 0.011,1.933 0.017,1.843 H -0.108 C -0.134,2.131 -0.25,2.209 -0.671,2.209 -0.749,2.209 -0.851,2.205 -0.937,2.202 -0.943,2.056 -0.948,2.007 -0.948,1.79 V 1.357 c 0.054,-0.004 0.097,-0.004 0.16,-0.004 0.369,0 0.481,0.056 0.503,0.258 h 0.126 c -0.007,-0.06 -0.007,-0.183 -0.007,-0.37 0,-0.191 0.004,-0.302 0.007,-0.362 h -0.126 c -0.011,0.212 -0.107,0.264 -0.472,0.264 -0.063,0 -0.126,-0.003 -0.191,-0.003 0,-0.236 0.005,-0.471 0.005,-0.706 0,-0.157 0.024,-0.209 0.109,-0.232 0.052,-0.015 0.135,-0.019 0.244,-0.019 0.382,0 0.516,0.09 0.597,0.396 L 0.145,0.55 C 0.096,0.289 0.039,0.072 0,0 m -0.788,2.679 -0.166,0.106 0.351,0.545 0.405,-0.079 z" /></g><g
             transform="translate(1118.7407,132.2798)"
             id="g66"><path
               inkscape:connector-curvature="0"
               id="path68"
               style="fill:#000000;fill-opacity:1;fill-rule:nonzero;stroke:none"
               d="m 0,0 c -0.035,0 -0.053,0 -0.099,0.004 l -0.077,0.191 c 0.332,0.022 0.515,0.194 0.515,0.479 0,0.298 -0.194,0.512 -0.463,0.512 -0.041,0 -0.077,-0.004 -0.135,-0.017 0,-0.23 -0.006,-0.462 -0.006,-0.694 v -0.654 c 0,-0.489 0.003,-0.572 0.039,-0.669 0.033,-0.097 0.096,-0.146 0.216,-0.156 v -0.105 l -0.086,0.003 c -0.091,0.004 -0.22,0.004 -0.389,0.004 -0.165,0 -0.296,0 -0.385,-0.004 l -0.084,-0.003 v 0.105 c 0.158,0.015 0.229,0.113 0.243,0.276 0.012,0.111 0.012,0.179 0.012,0.549 v 0.934 c 0,0.199 -0.012,0.288 -0.041,0.366 -0.031,0.098 -0.095,0.142 -0.214,0.158 v 0.104 c 0.042,-0.004 0.01,-0.004 0.163,-0.004 0.059,0 0.144,0 0.257,0.004 0.181,0.008 0.361,0.018 0.542,0.018 C 0.509,1.401 0.81,1.14 0.81,0.707 0.81,0.299 0.468,0 0,0" /></g><g
             transform="translate(1121.9551,133.4767)"
             id="g70"><path
               inkscape:connector-curvature="0"
               id="path72"
               style="fill:#000000;fill-opacity:1;fill-rule:nonzero;stroke:none"
               d="m 0,0 c -0.039,-0.057 -0.056,-0.131 -0.064,-0.28 -0.007,-0.162 -0.011,-0.285 -0.011,-0.517 0,-0.085 0.004,-0.343 0.004,-0.602 0,-0.261 -0.039,-0.417 -0.142,-0.574 -0.162,-0.251 -0.431,-0.378 -0.784,-0.378 -0.223,0 -0.393,0.045 -0.553,0.157 -0.246,0.168 -0.342,0.388 -0.342,0.785 0,0.403 0.008,0.579 0.008,0.71 0,0.19 0.01,0.389 -0.022,0.575 -0.021,0.135 -0.088,0.191 -0.238,0.206 v 0.104 l 0.083,-0.004 c 0.092,-0.003 0.223,-0.003 0.392,-0.003 0.169,0 0.3,0 0.391,0.003 l 0.083,0.004 V 0.082 c -0.111,-0.015 -0.163,-0.046 -0.198,-0.109 -0.032,-0.056 -0.047,-0.13 -0.05,-0.296 -0.007,-0.234 -0.011,-0.465 -0.011,-0.701 0,-0.643 0.014,-0.767 0.124,-0.901 0.084,-0.105 0.23,-0.176 0.399,-0.176 0.238,0 0.468,0.128 0.538,0.377 0.045,0.161 0.053,0.277 0.053,0.7 v 0.369 c 0,0.427 -0.01,0.557 -0.049,0.621 -0.038,0.067 -0.093,0.104 -0.183,0.116 v 0.104 c 0.14,-0.007 0.19,-0.007 0.367,-0.007 0.181,0 0.23,0 0.372,0.007 V 0.082 C 0.088,0.07 0.038,0.048 0,0" /></g><g
             transform="translate(1123.3684,132.426)"
             id="g74"><path
               inkscape:connector-curvature="0"
               id="path76"
               style="fill:#000000;fill-opacity:1;fill-rule:nonzero;stroke:none"
               d="m 0,0 c -0.06,0 -0.122,-0.004 -0.215,-0.012 -0.004,-0.1 -0.004,-0.119 -0.004,-0.291 v -0.22 c 0,-0.209 0.008,-0.322 0.032,-0.396 0.03,-0.094 0.113,-0.139 0.262,-0.139 0.3,0 0.47,0.177 0.47,0.49 C 0.545,-0.221 0.333,0 0,0 m -0.01,1.043 c -0.064,0 -0.127,-0.008 -0.191,-0.008 -0.004,-0.242 -0.01,-0.661 -0.014,-0.819 0.039,-0.003 0.088,-0.007 0.155,-0.007 0.347,0 0.545,0.154 0.545,0.422 0,0.259 -0.183,0.412 -0.495,0.412 M 0.761,-1.08 C 0.594,-1.215 0.407,-1.259 0.046,-1.259 c -0.189,0 -0.384,0.015 -0.576,0.015 -0.077,0 -0.222,0 -0.321,-0.008 l -0.043,-0.003 v 0.104 c 0.167,0.015 0.23,0.104 0.245,0.277 0.01,0.112 0.014,0.179 0.014,0.549 v 0.706 c 0,0.347 -0.004,0.497 -0.039,0.593 -0.036,0.099 -0.1,0.143 -0.22,0.158 v 0.105 c 0.163,-0.008 0.259,-0.008 0.485,-0.008 0.204,0 0.512,0.011 0.717,0.011 0.325,0 0.623,-0.163 0.623,-0.552 C 0.931,0.4 0.761,0.206 0.425,0.116 0.799,0.038 0.998,-0.19 0.998,-0.561 0.998,-0.785 0.92,-0.953 0.761,-1.08" /></g><g
             transform="translate(1126.3635,131.2222)"
             id="g78"><path
               inkscape:connector-curvature="0"
               id="path80"
               style="fill:#000000;fill-opacity:1;fill-rule:nonzero;stroke:none"
               d="m 0,0 c -0.032,-0.052 -0.074,-0.062 -0.25,-0.062 -0.089,0 -0.181,0.002 -0.27,0.006 -0.22,0.008 -0.417,0.015 -0.657,0.015 -0.181,0 -0.301,-0.003 -0.413,-0.011 v 0.105 c 0.087,0.007 0.134,0.026 0.172,0.074 0.063,0.079 0.081,0.176 0.081,0.449 0,0.186 0.004,0.336 0.004,0.531 v 0.4 c 0,0.504 -0.004,0.572 -0.039,0.672 -0.032,0.097 -0.099,0.142 -0.218,0.157 v 0.105 l 0.087,-0.004 c 0.096,-0.004 0.226,-0.004 0.404,-0.004 0.173,0 0.308,0 0.4,0.004 l 0.088,0.004 V 2.336 c -0.18,0 -0.258,-0.1 -0.28,-0.28 C -0.898,1.992 -0.902,1.932 -0.902,1.507 V 0.883 c 0,-0.52 0.004,-0.584 0.051,-0.636 0.037,-0.041 0.111,-0.06 0.264,-0.06 0.195,0 0.302,0.023 0.389,0.075 0.099,0.057 0.173,0.169 0.208,0.326 L 0.144,0.55 C 0.107,0.333 0.039,0.064 0,0" /></g><g
             transform="translate(1127.5936,131.1741)"
             id="g82"><path
               inkscape:connector-curvature="0"
               id="path84"
               style="fill:#000000;fill-opacity:1;fill-rule:nonzero;stroke:none"
               d="m 0,0 c -0.088,0.004 -0.219,0.004 -0.386,0.004 -0.169,0 -0.297,0 -0.388,-0.004 l -0.085,-0.004 v 0.106 c 0.166,0.014 0.23,0.103 0.243,0.276 0.011,0.112 0.015,0.178 0.015,0.548 v 0.629 c 0,0.097 -0.004,0.197 -0.004,0.306 0,0.198 -0.007,0.288 -0.034,0.366 -0.032,0.098 -0.101,0.142 -0.22,0.158 v 0.104 l 0.085,-0.004 c 0.091,-0.004 0.219,-0.004 0.388,-0.004 0.167,0 0.298,0 0.386,0.004 L 0.085,2.489 V 2.385 C -0.067,2.373 -0.145,2.273 -0.159,2.104 -0.17,1.995 -0.17,1.891 -0.17,1.555 V 0.926 c 0,-0.489 0.003,-0.571 0.04,-0.668 0.03,-0.097 0.094,-0.146 0.215,-0.156 v -0.106 z" /></g><g
             transform="translate(1129.2306,133.4535)"
             id="g86"><path
               inkscape:connector-curvature="0"
               id="path88"
               style="fill:#000000;fill-opacity:1;fill-rule:nonzero;stroke:none"
               d="m 0,0 c -0.431,0 -0.739,-0.381 -0.739,-0.915 0,-0.651 0.364,-1.163 0.828,-1.163 0.433,0 0.742,0.389 0.742,0.93 C 0.831,-0.505 0.467,0 0,0 m 1.669,-2.956 c -0.275,0 -0.571,0.09 -0.85,0.254 -0.159,0.093 -0.381,0.254 -0.544,0.397 -0.12,-0.02 -0.165,-0.023 -0.278,-0.023 -0.715,0 -1.189,0.493 -1.189,1.236 0,0.797 0.512,1.347 1.263,1.347 0.728,0 1.212,-0.494 1.212,-1.234 0,-0.527 -0.255,-0.994 -0.658,-1.211 0.129,-0.068 0.255,-0.141 0.379,-0.22 0.362,-0.232 0.608,-0.329 0.841,-0.329 0.146,0 0.267,0.033 0.408,0.108 L 2.299,-2.762 C 2.125,-2.888 1.909,-2.956 1.669,-2.956" /></g><g
             transform="translate(1132.9637,133.4767)"
             id="g90"><path
               inkscape:connector-curvature="0"
               id="path92"
               style="fill:#000000;fill-opacity:1;fill-rule:nonzero;stroke:none"
               d="m 0,0 c -0.038,-0.057 -0.056,-0.131 -0.063,-0.28 -0.008,-0.162 -0.011,-0.285 -0.011,-0.517 0,-0.085 0.003,-0.343 0.003,-0.602 0,-0.261 -0.038,-0.417 -0.141,-0.574 -0.162,-0.251 -0.43,-0.378 -0.785,-0.378 -0.222,0 -0.392,0.045 -0.551,0.157 -0.248,0.168 -0.343,0.388 -0.343,0.785 0,0.403 0.007,0.579 0.007,0.71 0,0.19 0.01,0.389 -0.021,0.575 -0.022,0.135 -0.088,0.191 -0.238,0.206 V 0.186 L -2.06,0.182 c 0.091,-0.003 0.222,-0.003 0.391,-0.003 0.17,0 0.301,0 0.393,0.003 l 0.082,0.004 V 0.082 c -0.111,-0.015 -0.163,-0.046 -0.198,-0.109 -0.032,-0.056 -0.045,-0.13 -0.05,-0.296 -0.007,-0.234 -0.011,-0.465 -0.011,-0.701 0,-0.643 0.016,-0.767 0.124,-0.901 0.085,-0.105 0.23,-0.176 0.399,-0.176 0.237,0 0.467,0.128 0.538,0.377 0.045,0.161 0.053,0.277 0.053,0.7 v 0.369 c 0,0.427 -0.011,0.557 -0.05,0.621 -0.038,0.067 -0.092,0.104 -0.182,0.116 v 0.104 c 0.14,-0.007 0.189,-0.007 0.366,-0.007 0.181,0 0.23,0 0.372,0.007 V 0.082 C 0.088,0.07 0.039,0.048 0,0" /></g><g
             transform="translate(1135.1217,131.2262)"
             id="g94"><path
               inkscape:connector-curvature="0"
               id="path96"
               style="fill:#000000;fill-opacity:1;fill-rule:nonzero;stroke:none"
               d="m 0,0 c -0.032,-0.056 -0.068,-0.067 -0.262,-0.067 -0.121,0 -0.238,0.008 -0.358,0.011 -0.169,0.004 -0.339,0.012 -0.509,0.012 -0.17,0 -0.339,-0.004 -0.509,-0.012 v 0.105 c 0.158,0.015 0.229,0.113 0.243,0.276 0.011,0.112 0.011,0.231 0.011,0.426 v 1.058 c 0,0.198 -0.011,0.288 -0.039,0.366 -0.032,0.098 -0.095,0.142 -0.215,0.157 V 2.437 H 0.018 C 0.018,2.329 0.014,2.216 0.014,2.107 0.014,2.018 0.01,1.933 0.018,1.843 H -0.11 C -0.136,2.131 -0.252,2.209 -0.672,2.209 -0.751,2.209 -0.853,2.205 -0.938,2.202 -0.944,2.056 -0.948,2.007 -0.948,1.79 V 1.357 c 0.052,-0.004 0.095,-0.004 0.159,-0.004 0.368,0 0.48,0.056 0.501,0.258 h 0.128 c -0.007,-0.06 -0.007,-0.183 -0.007,-0.37 0,-0.191 0.004,-0.302 0.007,-0.362 h -0.128 c -0.009,0.212 -0.106,0.264 -0.469,0.264 -0.064,0 -0.128,-0.003 -0.191,-0.003 0,-0.236 0.004,-0.471 0.004,-0.706 0,-0.157 0.024,-0.209 0.109,-0.232 0.052,-0.015 0.135,-0.019 0.244,-0.019 0.381,0 0.515,0.09 0.598,0.396 L 0.144,0.55 C 0.095,0.289 0.038,0.072 0,0" /></g><g
             transform="translate(1138.3917,133.4597)"
             id="g98"><path
               inkscape:connector-curvature="0"
               id="path100"
               style="fill:#000000;fill-opacity:1;fill-rule:nonzero;stroke:none"
               d="m 0,0 c -0.004,0.325 -0.183,0.452 -0.665,0.452 -0.1,0 -0.194,-0.005 -0.301,-0.014 -0.009,-0.311 -0.009,-0.528 -0.009,-1.023 0.104,-0.003 0.156,-0.008 0.227,-0.008 0.398,0 0.518,0.073 0.539,0.317 h 0.154 c 0,-0.127 -0.009,-0.258 -0.009,-0.385 0,-0.167 0.009,-0.339 0.009,-0.507 h -0.154 c -0.03,0.272 -0.127,0.326 -0.578,0.326 -0.076,0 -0.107,0 -0.188,-0.004 v -0.507 c 0,-0.1 0,-0.208 0.005,-0.325 0.008,-0.25 0.026,-0.466 0.305,-0.484 v -0.127 l -0.105,0.004 c -0.107,0.005 -0.265,0.005 -0.465,0.005 -0.205,0 -0.36,0 -0.472,-0.005 l -0.102,-0.004 v 0.127 c 0.191,0.018 0.278,0.135 0.294,0.334 0.014,0.136 0.014,0.217 0.014,0.665 v 1.131 c 0,0.239 -0.014,0.348 -0.048,0.443 -0.038,0.118 -0.115,0.172 -0.26,0.191 V 0.728 H 0.159 C 0.151,0.642 0.151,0.497 0.151,0.308 0.151,0.127 0.151,0.099 0.159,0 Z" /></g><g
             transform="translate(1139.8499,133.4796)"
             id="g102"><path
               inkscape:connector-curvature="0"
               id="path104"
               style="fill:#000000;fill-opacity:1;fill-rule:nonzero;stroke:none"
               d="m 0,0 c -0.07,0 -0.133,-0.011 -0.211,-0.03 0,-0.22 -0.005,-0.62 -0.005,-0.93 0.041,-0.008 0.11,-0.011 0.157,-0.011 0.289,0 0.484,0.191 0.484,0.482 C 0.425,-0.206 0.246,0 0,0 m 0.91,-2.339 c -0.13,0 -0.206,0.019 -0.279,0.07 -0.118,0.083 -0.24,0.308 -0.312,0.434 -0.119,0.22 -0.254,0.456 -0.382,0.655 -0.02,-0.005 -0.039,-0.005 -0.052,-0.005 -0.037,0 -0.064,0.005 -0.101,0.005 v -0.199 c 0,-0.101 0.005,-0.202 0.005,-0.302 0.003,-0.203 0.007,-0.288 0.036,-0.367 0.035,-0.097 0.098,-0.145 0.213,-0.156 v -0.105 l -0.08,0.004 c -0.091,0.003 -0.219,0 -0.386,0 -0.162,0 -0.289,0.003 -0.381,0 l -0.085,-0.004 v 0.105 c 0.088,0.007 0.131,0.025 0.173,0.074 0.039,0.049 0.064,0.116 0.071,0.202 0.011,0.112 0.014,0.179 0.014,0.549 v 0.628 c 0,0.457 -0.014,0.568 -0.038,0.672 -0.025,0.102 -0.1,0.143 -0.22,0.158 v 0.105 c 0.071,-0.008 0.141,-0.005 0.212,-0.005 0.185,0 0.24,0 0.46,0.012 0.192,0.008 0.3,0.01 0.386,0.01 0.24,0 0.384,-0.037 0.505,-0.125 0.136,-0.102 0.222,-0.296 0.222,-0.491 0,-0.306 -0.19,-0.556 -0.515,-0.683 0.134,-0.179 0.24,-0.359 0.365,-0.565 0.113,-0.19 0.226,-0.355 0.314,-0.449 0.049,-0.055 0.081,-0.074 0.148,-0.092 V -2.309 C 1.111,-2.331 1.02,-2.339 0.91,-2.339" /></g><g
             transform="translate(1142.1661,133.0049)"
             id="g106"><path
               inkscape:connector-curvature="0"
               id="path108"
               style="fill:#000000;fill-opacity:1;fill-rule:nonzero;stroke:none"
               d="m 0,0 c -0.093,-0.254 -0.22,-0.582 -0.272,-0.766 h 0.523 z m 1.146,-1.831 c -0.089,0.004 -0.217,0.004 -0.379,0.004 -0.165,0 -0.293,0 -0.382,-0.004 L 0.304,-1.835 v 0.106 c 0.113,0.006 0.179,0.07 0.179,0.174 0,0.037 -0.009,0.091 -0.045,0.203 -0.042,0.137 -0.07,0.231 -0.114,0.358 h -0.678 l -0.071,-0.215 c -0.054,-0.169 -0.083,-0.292 -0.083,-0.356 0,-0.109 0.048,-0.158 0.16,-0.164 v -0.106 c -0.134,0.004 -0.184,0.008 -0.353,0.008 -0.167,0 -0.216,-0.004 -0.35,-0.008 v 0.106 c 0.053,0.006 0.07,0.014 0.108,0.052 0.068,0.063 0.136,0.194 0.242,0.478 l 0.336,0.904 c 0.093,0.244 0.23,0.636 0.325,0.953 H 0.202 C 0.234,0.542 0.307,0.359 0.356,0.224 l 0.498,-1.349 c 0.087,-0.227 0.147,-0.361 0.192,-0.448 0.05,-0.091 0.1,-0.134 0.184,-0.156 v -0.106 z" /></g><g
             transform="translate(1145.8285,133.4466)"
             id="g110"><path
               inkscape:connector-curvature="0"
               id="path112"
               style="fill:#000000;fill-opacity:1;fill-rule:nonzero;stroke:none"
               d="m 0,0 c -0.038,-0.068 -0.045,-0.13 -0.053,-0.325 -0.011,-0.337 -0.014,-0.86 -0.014,-1.11 v -0.572 c 0,-0.086 0.011,-0.217 0.011,-0.269 h -0.24 c -0.231,0.317 -0.709,0.934 -0.709,0.934 -0.056,0.075 -0.499,0.65 -0.72,0.939 0,-0.079 -0.004,-0.031 -0.004,-0.274 V -0.92 c 0,-0.281 0.004,-0.558 0.015,-0.836 0.007,-0.158 0.02,-0.237 0.056,-0.308 0.034,-0.074 0.088,-0.103 0.19,-0.107 v -0.105 c -0.124,0.007 -0.25,0.007 -0.374,0.007 -0.128,0 -0.251,0 -0.379,-0.007 v 0.105 c 0.234,0.007 0.24,0.212 0.248,0.407 0.003,0.156 0.007,0.286 0.007,0.527 v 0.788 c 0,0.31 -0.015,0.385 -0.067,0.468 -0.034,0.06 -0.082,0.082 -0.188,0.093 v 0.104 c 0.117,-0.008 0.16,-0.008 0.308,-0.008 0.146,0 0.188,0 0.303,0.008 0.043,-0.082 0.11,-0.156 0.355,-0.471 0.346,-0.444 0.658,-0.822 0.95,-1.211 v 0.815 c 0,0.373 -0.005,0.467 -0.023,0.564 -0.026,0.12 -0.092,0.18 -0.225,0.199 v 0.104 c 0.147,-0.008 0.196,-0.008 0.377,-0.008 0.181,0 0.229,0 0.375,0.008 V 0.112 C 0.103,0.108 0.049,0.09 0,0" /></g><g
             transform="translate(1148.2961,131.2598)"
             id="g114"><path
               inkscape:connector-curvature="0"
               id="path116"
               style="fill:#000000;fill-opacity:1;fill-rule:nonzero;stroke:none"
               d="m 0,0 c -0.23,-0.097 -0.431,-0.135 -0.711,-0.135 l -0.03,-0.15 c 0.016,0.005 0.052,0 0.065,0 0.136,0 0.223,-0.1 0.223,-0.223 0,-0.202 -0.151,-0.344 -0.392,-0.344 -0.072,0 -0.135,0.015 -0.212,0.05 l 0.05,0.144 c 0.044,-0.019 0.087,-0.03 0.127,-0.03 0.098,0 0.166,0.054 0.166,0.146 0,0.075 -0.036,0.12 -0.089,0.12 -0.029,0 -0.053,-0.011 -0.077,-0.031 l -0.078,0.022 0.07,0.304 c -0.31,0.03 -0.535,0.138 -0.727,0.348 -0.22,0.235 -0.336,0.556 -0.336,0.933 0,0.808 0.49,1.294 1.3,1.294 0.244,0 0.481,-0.038 0.686,-0.109 C 0.029,2.253 0.029,2.167 0.029,2.086 0.029,2.022 0.032,1.887 0.035,1.801 h -0.138 c -0.056,0.266 -0.258,0.408 -0.579,0.408 -0.498,0 -0.802,-0.352 -0.802,-0.934 0,-0.673 0.358,-1.163 0.848,-1.163 0.296,0 0.498,0.157 0.579,0.456 L 0.077,0.539 C 0.047,0.411 0.015,0.198 0,0" /></g><g
             transform="translate(1149.6044,133.0049)"
             id="g118"><path
               inkscape:connector-curvature="0"
               id="path120"
               style="fill:#000000;fill-opacity:1;fill-rule:nonzero;stroke:none"
               d="M 0,0 C -0.091,-0.254 -0.219,-0.582 -0.271,-0.766 H 0.25 Z m 1.145,-1.831 c -0.088,0.004 -0.215,0.004 -0.378,0.004 -0.165,0 -0.293,0 -0.382,-0.004 L 0.304,-1.835 v 0.106 c 0.113,0.006 0.181,0.07 0.181,0.174 0,0.037 -0.011,0.091 -0.047,0.203 -0.042,0.137 -0.07,0.231 -0.111,0.358 h -0.682 l -0.07,-0.215 c -0.053,-0.169 -0.081,-0.292 -0.081,-0.356 0,-0.109 0.047,-0.158 0.159,-0.164 v -0.106 c -0.133,0.004 -0.183,0.008 -0.353,0.008 -0.168,0 -0.217,-0.004 -0.351,-0.008 v 0.106 c 0.054,0.006 0.073,0.014 0.11,0.052 0.067,0.063 0.134,0.194 0.241,0.478 l 0.335,0.904 c 0.094,0.244 0.23,0.636 0.326,0.953 H 0.202 C 0.234,0.542 0.308,0.359 0.356,0.224 L 0.854,-1.125 C 0.94,-1.352 1,-1.486 1.046,-1.573 1.096,-1.664 1.145,-1.707 1.23,-1.729 v -0.106 z" /></g><g
             transform="translate(1151.9056,131.1741)"
             id="g122"><path
               inkscape:connector-curvature="0"
               id="path124"
               style="fill:#000000;fill-opacity:1;fill-rule:nonzero;stroke:none"
               d="m 0,0 c -0.089,0.004 -0.219,0.004 -0.385,0.004 -0.171,0 -0.297,0 -0.39,-0.004 L -0.86,-0.004 v 0.106 c 0.166,0.014 0.229,0.103 0.244,0.276 0.011,0.112 0.014,0.178 0.014,0.548 v 0.629 c 0,0.097 -0.003,0.197 -0.003,0.306 0,0.198 -0.008,0.288 -0.035,0.366 -0.031,0.098 -0.098,0.142 -0.22,0.158 v 0.104 l 0.085,-0.004 c 0.093,-0.004 0.219,-0.004 0.39,-0.004 0.166,0 0.296,0 0.385,0.004 L 0.085,2.489 V 2.385 C -0.068,2.373 -0.145,2.273 -0.159,2.104 -0.171,1.995 -0.171,1.891 -0.171,1.555 V 0.926 c 0,-0.489 0.004,-0.571 0.041,-0.668 0.031,-0.097 0.095,-0.146 0.215,-0.156 v -0.106 z" /></g><g
             transform="translate(1153.0055,131.1252)"
             id="g126"><path
               inkscape:connector-curvature="0"
               id="path128"
               style="fill:#000000;fill-opacity:1;fill-rule:nonzero;stroke:none"
               d="M 0,0 C -0.205,0 -0.355,0.03 -0.595,0.127 -0.605,0.27 -0.631,0.486 -0.66,0.665 l 0.136,0.023 c 0.085,-0.303 0.272,-0.46 0.544,-0.46 0.25,0 0.422,0.138 0.422,0.348 0,0.169 -0.112,0.284 -0.27,0.388 l -0.371,0.25 c -0.254,0.173 -0.403,0.352 -0.403,0.681 0,0.418 0.301,0.688 0.768,0.688 0.225,0 0.413,-0.045 0.579,-0.135 C 0.742,2.359 0.742,2.328 0.742,2.213 c 0,-0.135 0,-0.172 0.003,-0.277 H 0.611 c -0.049,0.27 -0.21,0.418 -0.452,0.418 -0.219,0 -0.379,-0.146 -0.379,-0.35 0,-0.18 0.116,-0.3 0.304,-0.427 L 0.385,1.372 C 0.67,1.174 0.834,0.983 0.834,0.685 0.834,0.277 0.494,0 0,0" /></g><g
             transform="translate(1155.8486,131.2262)"
             id="g130"><path
               inkscape:connector-curvature="0"
               id="path132"
               style="fill:#000000;fill-opacity:1;fill-rule:nonzero;stroke:none"
               d="m 0,0 c -0.033,-0.056 -0.068,-0.067 -0.262,-0.067 -0.121,0 -0.238,0.008 -0.358,0.011 -0.168,0.004 -0.339,0.012 -0.509,0.012 -0.17,0 -0.339,-0.004 -0.509,-0.012 v 0.105 c 0.159,0.015 0.229,0.113 0.243,0.276 0.012,0.112 0.012,0.231 0.012,0.426 v 1.058 c 0,0.198 -0.012,0.288 -0.04,0.366 -0.032,0.098 -0.096,0.142 -0.215,0.157 V 2.437 H 0.017 C 0.017,2.329 0.015,2.216 0.015,2.107 0.015,2.018 0.011,1.933 0.017,1.843 H -0.11 C -0.134,2.131 -0.252,2.209 -0.672,2.209 -0.751,2.209 -0.854,2.205 -0.938,2.202 -0.946,2.056 -0.949,2.007 -0.949,1.79 V 1.357 c 0.052,-0.004 0.095,-0.004 0.161,-0.004 0.368,0 0.479,0.056 0.501,0.258 h 0.127 c -0.006,-0.06 -0.006,-0.183 -0.006,-0.37 0,-0.191 0.003,-0.302 0.006,-0.362 h -0.127 c -0.011,0.212 -0.107,0.264 -0.47,0.264 -0.064,0 -0.128,-0.003 -0.192,-0.003 0,-0.236 0.003,-0.471 0.003,-0.706 0,-0.157 0.026,-0.209 0.11,-0.232 0.054,-0.015 0.136,-0.019 0.245,-0.019 0.383,0 0.515,0.09 0.597,0.396 L 0.144,0.55 C 0.096,0.289 0.038,0.072 0,0" /></g><g
             transform="translate(1114.0979,137.567)"
             id="g134"><path
               inkscape:connector-curvature="0"
               id="path136"
               style="fill:#000000;fill-opacity:1;fill-rule:nonzero;stroke:none"
               d="m 0,0 c -0.03,-0.044 -0.082,-0.058 -0.206,-0.058 -0.169,0 -0.334,0.011 -0.503,0.014 -0.144,0.004 -0.254,0.008 -0.33,0.008 -0.104,0 -0.355,-0.004 -0.427,-0.008 L -1.515,-0.047 -1.5,0.03 c 0.103,0.01 0.165,0.043 0.213,0.112 0.055,0.073 0.09,0.174 0.138,0.378 0.045,0.2 0.065,0.321 0.138,0.696 l 0.055,0.287 c 0.054,0.291 0.076,0.462 0.076,0.553 0,0.16 -0.055,0.226 -0.204,0.243 l 0.015,0.081 c 0.019,-0.004 0.037,-0.004 0.047,-0.004 0.128,0 0.253,-0.003 0.378,-0.003 0.2,0 0.331,0.003 0.39,0.003 0.01,0 0.03,0 0.055,0.004 L -0.213,2.299 C -0.32,2.292 -0.379,2.264 -0.431,2.19 -0.516,2.075 -0.565,1.918 -0.691,1.216 L -0.735,0.971 C -0.79,0.674 -0.812,0.571 -0.828,0.436 -0.835,0.393 -0.838,0.345 -0.838,0.324 c 0,-0.141 0.069,-0.185 0.287,-0.185 0.39,0 0.535,0.083 0.662,0.381 L 0.204,0.484 C 0.122,0.244 0.042,0.059 0,0" /></g><g
             transform="translate(1114.7456,137.4798)"
             id="g138"><path
               inkscape:connector-curvature="0"
               id="path140"
               style="fill:#000000;fill-opacity:1;fill-rule:nonzero;stroke:none"
               d="m 0,0 c -0.069,0 -0.113,0.039 -0.113,0.106 0,0.032 0.009,0.091 0.027,0.17 0.044,0.193 0.107,0.455 0.141,0.594 0.049,0.188 0.069,0.319 0.069,0.37 0,0.049 -0.02,0.07 -0.058,0.07 -0.031,0 -0.063,-0.011 -0.135,-0.033 L -0.093,1.27 -0.104,1.372 c 0.19,0.077 0.376,0.123 0.469,0.123 0.051,0 0.072,-0.017 0.072,-0.061 0,-0.045 -0.018,-0.161 -0.079,-0.415 L 0.307,0.805 C 0.221,0.451 0.199,0.328 0.199,0.27 c 0,-0.056 0.028,-0.088 0.08,-0.088 0.031,0 0.094,0.015 0.19,0.051 L 0.475,0.13 C 0.293,0.054 0.097,0 0,0 m 0.376,1.859 c -0.108,0 -0.177,0.07 -0.177,0.175 0,0.131 0.091,0.222 0.214,0.222 0.103,0 0.169,-0.065 0.169,-0.171 0,-0.13 -0.086,-0.226 -0.206,-0.226" /></g><g
             transform="translate(1116.6385,138.8189)"
             id="g142"><path
               inkscape:connector-curvature="0"
               id="path144"
               style="fill:#000000;fill-opacity:1;fill-rule:nonzero;stroke:none"
               d="m 0,0 c -0.061,0 -0.138,-0.025 -0.233,-0.08 -0.101,-0.055 -0.173,-0.113 -0.211,-0.167 -0.044,-0.066 -0.083,-0.18 -0.134,-0.418 -0.052,-0.226 -0.076,-0.368 -0.076,-0.419 0,-0.07 0.076,-0.11 0.214,-0.11 0.141,0 0.261,0.069 0.351,0.204 0.137,0.207 0.24,0.539 0.24,0.775 C 0.151,-0.077 0.101,0 0,0 m 0.004,-1.169 c -0.135,-0.123 -0.294,-0.174 -0.537,-0.174 -0.269,0 -0.43,0.048 -0.43,0.12 0,0.029 0.003,0.066 0.038,0.219 l 0.177,0.825 c 0.06,0.266 0.105,0.477 0.167,0.775 0.033,0.175 0.048,0.269 0.048,0.318 0,0.043 -0.022,0.069 -0.06,0.069 -0.023,0 -0.1,-0.019 -0.15,-0.037 l -0.005,0.105 0.042,0.015 c 0.187,0.066 0.341,0.103 0.413,0.103 0.046,0 0.072,-0.023 0.072,-0.062 0,-0.041 -0.016,-0.133 -0.075,-0.4 L -0.399,0.226 C -0.433,0.07 -0.444,0.011 -0.453,-0.04 c 0.216,0.134 0.406,0.196 0.578,0.196 0.21,0 0.313,-0.112 0.313,-0.341 0,-0.34 -0.182,-0.754 -0.434,-0.984" /></g><g
             transform="translate(1118.1814,138.8301)"
             id="g146"><path
               inkscape:connector-curvature="0"
               id="path148"
               style="fill:#000000;fill-opacity:1;fill-rule:nonzero;stroke:none"
               d="m 0,0 c -0.166,0 -0.341,-0.24 -0.427,-0.594 h 0.034 c 0.32,0 0.562,0.178 0.562,0.412 C 0.169,-0.08 0.093,0 0,0 m -0.355,-0.728 c -0.024,0 -0.056,0 -0.1,0.004 -0.01,-0.066 -0.014,-0.121 -0.014,-0.175 0,-0.185 0.061,-0.284 0.183,-0.284 0.11,0 0.247,0.062 0.452,0.196 l 0.037,-0.124 c -0.254,-0.167 -0.448,-0.243 -0.623,-0.243 -0.213,0 -0.331,0.134 -0.331,0.379 0,0.599 0.386,1.12 0.829,1.12 0.218,0 0.346,-0.106 0.346,-0.287 0,-0.335 -0.338,-0.586 -0.779,-0.586" /></g><g
             transform="translate(1119.9854,138.5059)"
             id="g150"><path
               inkscape:connector-curvature="0"
               id="path152"
               style="fill:#000000;fill-opacity:1;fill-rule:nonzero;stroke:none"
               d="m 0,0 -0.113,0.012 c 0.006,0.042 0.01,0.093 0.01,0.141 0,0.064 -0.056,0.113 -0.142,0.113 -0.051,0 -0.103,-0.033 -0.147,-0.088 -0.131,-0.156 -0.182,-0.404 -0.259,-0.808 l -0.065,-0.353 c -0.131,-0.007 -0.165,-0.011 -0.3,-0.028 0.035,0.138 0.059,0.247 0.087,0.371 l 0.075,0.338 c 0.052,0.229 0.076,0.371 0.076,0.448 0,0.09 -0.021,0.131 -0.063,0.131 -0.02,0 -0.05,-0.007 -0.084,-0.018 L -1.011,0.23 -1.023,0.339 c 0.169,0.073 0.361,0.13 0.449,0.13 0.034,0 0.055,-0.015 0.062,-0.05 0.01,-0.044 0.016,-0.095 0.02,-0.157 0.155,0.134 0.292,0.212 0.389,0.212 0.065,0 0.148,-0.038 0.228,-0.099 C 0.07,0.244 0.027,0.124 0,0" /></g><g
             transform="translate(1121.1519,138.7527)"
             id="g154"><path
               inkscape:connector-curvature="0"
               id="path156"
               style="fill:#000000;fill-opacity:1;fill-rule:nonzero;stroke:none"
               d="M 0,0 -0.286,0.008 -0.43,-0.737 c -0.038,-0.194 -0.042,-0.249 -0.042,-0.277 0,-0.052 0.024,-0.081 0.07,-0.081 0.023,0 0.076,0.015 0.158,0.041 l 0.034,0.011 0.011,-0.106 c -0.18,-0.077 -0.365,-0.127 -0.465,-0.127 -0.073,0 -0.118,0.036 -0.118,0.104 0,0.062 0.015,0.154 0.041,0.267 0.031,0.126 0.056,0.232 0.083,0.374 L -0.55,0.008 -0.734,0.004 -0.71,0.121 c 0.234,0.044 0.315,0.24 0.38,0.45 l 0.165,0.037 -0.086,-0.429 0.286,0.003 z" /></g><g
             transform="translate(1122.1816,138.8301)"
             id="g158"><path
               inkscape:connector-curvature="0"
               id="path160"
               style="fill:#000000;fill-opacity:1;fill-rule:nonzero;stroke:none"
               d="m 0,0 c -0.166,0 -0.341,-0.24 -0.427,-0.594 h 0.035 c 0.32,0 0.562,0.178 0.562,0.412 C 0.17,-0.08 0.093,0 0,0 m -0.354,-0.728 c -0.025,0 -0.057,0 -0.099,0.004 -0.012,-0.066 -0.015,-0.121 -0.015,-0.175 0,-0.185 0.062,-0.284 0.182,-0.284 0.11,0 0.248,0.062 0.452,0.196 l 0.037,-0.124 c -0.254,-0.167 -0.447,-0.243 -0.623,-0.243 -0.213,0 -0.33,0.134 -0.33,0.379 0,0.599 0.385,1.12 0.829,1.12 0.217,0 0.344,-0.106 0.344,-0.287 0,-0.335 -0.336,-0.586 -0.777,-0.586 m 0.382,1.099 -0.11,0.094 0.42,0.502 0.31,-0.08 z" /></g><g
             transform="translate(1128.7798,139.4156)"
             id="g162"><path
               inkscape:connector-curvature="0"
               id="path164"
               style="fill:#000000;fill-opacity:1;fill-rule:nonzero;stroke:none"
               d="m 0,0 h -0.099 c 0.003,0.04 0.006,0.055 0.006,0.079 0,0.202 -0.125,0.27 -0.469,0.27 -0.113,0 -0.224,0 -0.337,-0.01 -0.073,-0.303 -0.121,-0.565 -0.179,-0.888 h 0.128 c 0.22,0 0.313,0.003 0.392,0.018 0.127,0.025 0.203,0.105 0.241,0.252 h 0.093 c -0.048,-0.216 -0.107,-0.522 -0.131,-0.708 h -0.093 c 0.004,0.026 0.007,0.047 0.007,0.063 0,0.156 -0.093,0.207 -0.376,0.207 -0.167,0 -0.23,-0.004 -0.292,-0.008 -0.017,-0.089 0,-0.01 -0.079,-0.428 -0.037,-0.205 -0.052,-0.331 -0.052,-0.397 0,-0.127 0.063,-0.16 0.294,-0.16 0.434,0 0.567,0.072 0.701,0.385 l 0.086,-0.036 c -0.075,-0.24 -0.158,-0.432 -0.206,-0.494 -0.035,-0.041 -0.079,-0.051 -0.223,-0.051 -0.121,0 -0.246,0.002 -0.365,0.007 -0.159,0.003 -0.321,0.007 -0.479,0.007 -0.162,0 -0.321,-0.004 -0.483,-0.004 l 0.014,0.077 c 0.103,0.01 0.166,0.043 0.214,0.112 0.055,0.073 0.089,0.175 0.138,0.378 0.045,0.205 0.058,0.289 0.137,0.696 l 0.055,0.287 c 0.055,0.284 0.076,0.462 0.076,0.553 0,0.161 -0.056,0.226 -0.204,0.244 l 0.016,0.081 H 0.097 C 0.058,0.368 0.024,0.17 0,0 m -0.654,0.775 -0.111,0.095 0.421,0.502 0.313,-0.08 z" /></g><g
             transform="translate(1129.8738,137.3633)"
             id="g166"><path
               inkscape:connector-curvature="0"
               id="path168"
               style="fill:#000000;fill-opacity:1;fill-rule:nonzero;stroke:none"
               d="m 0,0 c -0.116,0.047 -0.259,0.098 -0.403,0.142 -0.236,-0.062 -0.402,-0.248 -0.402,-0.459 0,-0.195 0.159,-0.326 0.406,-0.326 0.299,0 0.575,0.214 0.575,0.447 C 0.176,-0.109 0.125,-0.052 0,0 m -0.051,1.473 c -0.186,0 -0.337,-0.207 -0.337,-0.454 0,-0.171 0.092,-0.288 0.227,-0.288 0.182,0 0.331,0.2 0.331,0.448 0,0.181 -0.087,0.294 -0.221,0.294 M 0.606,1.393 0.373,1.398 C 0.414,1.32 0.428,1.263 0.428,1.179 c 0,-0.334 -0.265,-0.593 -0.61,-0.593 -0.065,0 -0.114,0.008 -0.186,0.03 -0.085,-0.056 -0.113,-0.081 -0.113,-0.114 0,-0.04 0.037,-0.057 0.188,-0.109 l 0.277,-0.091 c 0.275,-0.092 0.409,-0.178 0.409,-0.39 0,-0.385 -0.362,-0.687 -0.823,-0.687 -0.378,0 -0.609,0.189 -0.609,0.498 0,0.284 0.172,0.419 0.455,0.495 -0.173,0.065 -0.211,0.095 -0.211,0.157 0,0.079 0.101,0.179 0.307,0.298 -0.106,0.08 -0.158,0.186 -0.158,0.332 0,0.345 0.261,0.607 0.604,0.607 0.09,0 0.155,-0.011 0.232,-0.04 h 0.454 z" /></g><g
             transform="translate(1131.6156,138.8225)"
             id="g170"><path
               inkscape:connector-curvature="0"
               id="path172"
               style="fill:#000000;fill-opacity:1;fill-rule:nonzero;stroke:none"
               d="m 0,0 c -0.139,0 -0.276,-0.109 -0.392,-0.313 -0.131,-0.222 -0.224,-0.516 -0.224,-0.71 0,-0.113 0.051,-0.174 0.138,-0.174 0.126,0 0.351,0.12 0.436,0.211 0.049,0.051 0.077,0.123 0.112,0.262 0.055,0.222 0.106,0.43 0.137,0.67 C 0.132,-0.019 0.058,0 0,0 m 0.158,-1.346 c -0.062,0 -0.082,0.04 -0.113,0.217 -0.255,-0.152 -0.441,-0.221 -0.624,-0.221 -0.206,0 -0.327,0.113 -0.327,0.313 0,0.193 0.089,0.466 0.227,0.691 0.187,0.306 0.417,0.499 0.768,0.499 0.156,0 0.297,-0.03 0.445,-0.069 L 0.516,0.025 c -0.124,-0.418 -0.212,-0.88 -0.212,-1.037 0,-0.098 0.02,-0.153 0.061,-0.153 0.027,0 0.1,0.022 0.186,0.055 L 0.562,-1.222 C 0.386,-1.292 0.217,-1.346 0.158,-1.346" /></g><g
             transform="translate(1133.2988,139.6156)"
             id="g174"><path
               inkscape:connector-curvature="0"
               id="path176"
               style="fill:#000000;fill-opacity:1;fill-rule:nonzero;stroke:none"
               d="m 0,0 c -0.113,-0.484 -0.227,-1.023 -0.337,-1.535 -0.035,-0.169 -0.052,-0.277 -0.052,-0.331 0,-0.055 0.024,-0.081 0.076,-0.081 0.034,0 0.097,0.015 0.189,0.044 l 0.007,-0.103 c -0.176,-0.072 -0.389,-0.133 -0.482,-0.133 -0.065,0 -0.103,0.04 -0.103,0.109 0,0.051 0.01,0.116 0.062,0.346 0.106,0.48 0.223,0.993 0.316,1.451 0.042,0.212 0.062,0.317 0.062,0.35 0,0.043 -0.02,0.065 -0.059,0.065 -0.034,0 -0.096,-0.015 -0.151,-0.036 L -0.479,0.254 C -0.302,0.32 -0.11,0.371 -0.013,0.371 0.035,0.371 0.058,0.349 0.058,0.31 0.058,0.273 0.044,0.189 0,0" /></g><g
             transform="translate(1133.7771,137.4798)"
             id="g178"><path
               inkscape:connector-curvature="0"
               id="path180"
               style="fill:#000000;fill-opacity:1;fill-rule:nonzero;stroke:none"
               d="m 0,0 c -0.069,0 -0.113,0.039 -0.113,0.106 0,0.032 0.009,0.091 0.027,0.17 0.044,0.193 0.107,0.455 0.142,0.594 0.048,0.188 0.069,0.319 0.069,0.37 0,0.049 -0.021,0.07 -0.059,0.07 -0.031,0 -0.062,-0.011 -0.135,-0.033 L -0.093,1.27 -0.104,1.372 C 0.085,1.449 0.272,1.495 0.365,1.495 0.417,1.495 0.438,1.478 0.438,1.434 0.438,1.389 0.42,1.273 0.357,1.019 L 0.306,0.805 C 0.221,0.451 0.2,0.328 0.2,0.27 0.2,0.214 0.228,0.182 0.279,0.182 c 0.031,0 0.092,0.015 0.189,0.051 L 0.475,0.13 C 0.293,0.054 0.096,0 0,0 m 0.376,1.859 c -0.108,0 -0.176,0.07 -0.176,0.175 0,0.131 0.089,0.222 0.213,0.222 0.103,0 0.169,-0.065 0.169,-0.171 0,-0.13 -0.086,-0.226 -0.206,-0.226" /></g><g
             transform="translate(1135.5081,138.7527)"
             id="g182"><path
               inkscape:connector-curvature="0"
               id="path184"
               style="fill:#000000;fill-opacity:1;fill-rule:nonzero;stroke:none"
               d="M 0,0 -0.286,0.008 -0.43,-0.737 c -0.038,-0.194 -0.041,-0.249 -0.041,-0.277 0,-0.052 0.023,-0.081 0.068,-0.081 0.024,0 0.077,0.015 0.159,0.041 l 0.035,0.011 0.01,-0.106 c -0.18,-0.077 -0.365,-0.127 -0.465,-0.127 -0.073,0 -0.117,0.036 -0.117,0.104 0,0.062 0.013,0.154 0.041,0.267 0.031,0.126 0.055,0.232 0.083,0.374 l 0.106,0.539 -0.182,-0.004 0.024,0.117 c 0.235,0.044 0.314,0.24 0.38,0.45 l 0.163,0.037 -0.085,-0.429 0.286,0.003 z" /></g><g
             transform="translate(1136.5386,138.8301)"
             id="g186"><path
               inkscape:connector-curvature="0"
               id="path188"
               style="fill:#000000;fill-opacity:1;fill-rule:nonzero;stroke:none"
               d="m 0,0 c -0.167,0 -0.342,-0.24 -0.428,-0.594 h 0.035 c 0.319,0 0.561,0.178 0.561,0.412 C 0.168,-0.08 0.093,0 0,0 m -0.355,-0.728 c -0.024,0 -0.056,0 -0.101,0.004 -0.009,-0.066 -0.013,-0.121 -0.013,-0.175 0,-0.185 0.062,-0.284 0.182,-0.284 0.111,0 0.248,0.062 0.452,0.196 l 0.037,-0.124 c -0.254,-0.167 -0.447,-0.243 -0.621,-0.243 -0.216,0 -0.333,0.134 -0.333,0.379 0,0.599 0.386,1.12 0.83,1.12 0.218,0 0.345,-0.106 0.345,-0.287 0,-0.335 -0.338,-0.586 -0.778,-0.586 m 0.382,1.099 -0.11,0.094 0.419,0.502 0.311,-0.08 z" /></g><g
             transform="translate(1143.0889,139.4196)"
             id="g190"><path
               inkscape:connector-curvature="0"
               id="path192"
               style="fill:#000000;fill-opacity:1;fill-rule:nonzero;stroke:none"
               d="m 0,0 h -0.101 c 0.003,0.036 0.006,0.065 0.006,0.084 0,0.071 -0.023,0.131 -0.064,0.175 -0.066,0.064 -0.187,0.09 -0.448,0.09 -0.072,0 -0.168,-0.004 -0.255,-0.007 -0.061,-0.299 -0.118,-0.586 -0.178,-0.896 0.065,0 0.129,-0.003 0.195,-0.003 0.383,0 0.459,0.036 0.531,0.273 h 0.092 c -0.053,-0.237 -0.099,-0.47 -0.13,-0.71 h -0.096 c 0.003,0.025 0.006,0.048 0.006,0.063 0,0.061 -0.023,0.118 -0.066,0.152 -0.058,0.047 -0.127,0.058 -0.333,0.058 -0.111,0 -0.142,-0.004 -0.23,-0.008 l -0.046,-0.243 c -0.066,-0.349 -0.089,-0.513 -0.089,-0.615 0,-0.148 0.061,-0.218 0.203,-0.236 L -1.017,-1.9 -1.071,-1.896 c -0.028,0 -0.179,0.003 -0.311,0.003 -0.137,0 -0.393,0 -0.438,-0.003 l -0.058,-0.004 0.014,0.077 c 0.103,0.011 0.166,0.043 0.212,0.113 0.057,0.072 0.094,0.174 0.139,0.378 0.048,0.207 0.066,0.317 0.138,0.695 l 0.055,0.287 c 0.056,0.288 0.076,0.463 0.076,0.553 0,0.161 -0.055,0.226 -0.203,0.244 l 0.012,0.081 H 0.096 C 0.061,0.364 0.027,0.174 0,0" /></g><g
             transform="translate(1144.2611,138.5059)"
             id="g194"><path
               inkscape:connector-curvature="0"
               id="path196"
               style="fill:#000000;fill-opacity:1;fill-rule:nonzero;stroke:none"
               d="m 0,0 -0.113,0.012 c 0.007,0.042 0.01,0.093 0.01,0.141 0,0.064 -0.055,0.113 -0.14,0.113 -0.052,0 -0.105,-0.033 -0.149,-0.088 C -0.523,0.022 -0.574,-0.226 -0.65,-0.63 l -0.067,-0.353 c -0.131,-0.007 -0.165,-0.011 -0.299,-0.028 0.035,0.138 0.059,0.247 0.087,0.371 l 0.075,0.338 c 0.051,0.229 0.076,0.371 0.076,0.448 0,0.09 -0.02,0.131 -0.063,0.131 -0.02,0 -0.05,-0.007 -0.085,-0.018 L -1.012,0.23 -1.022,0.339 c 0.168,0.073 0.362,0.13 0.448,0.13 0.034,0 0.055,-0.015 0.062,-0.05 0.01,-0.044 0.017,-0.095 0.02,-0.157 0.155,0.134 0.293,0.212 0.389,0.212 0.065,0 0.147,-0.038 0.228,-0.099 C 0.068,0.244 0.027,0.124 0,0" /></g><g
             transform="translate(1145.4609,138.8225)"
             id="g198"><path
               inkscape:connector-curvature="0"
               id="path200"
               style="fill:#000000;fill-opacity:1;fill-rule:nonzero;stroke:none"
               d="m 0,0 c -0.138,0 -0.276,-0.109 -0.392,-0.313 -0.132,-0.222 -0.225,-0.516 -0.225,-0.71 0,-0.113 0.052,-0.174 0.138,-0.174 0.127,0 0.352,0.12 0.437,0.211 0.049,0.051 0.077,0.123 0.111,0.262 0.055,0.222 0.106,0.43 0.136,0.67 C 0.132,-0.019 0.058,0 0,0 m 0.159,-1.346 c -0.062,0 -0.082,0.04 -0.113,0.217 -0.256,-0.152 -0.441,-0.221 -0.625,-0.221 -0.206,0 -0.328,0.113 -0.328,0.313 0,0.193 0.09,0.466 0.229,0.691 0.185,0.306 0.416,0.499 0.768,0.499 0.155,0 0.296,-0.03 0.444,-0.069 L 0.516,0.025 c -0.123,-0.418 -0.214,-0.88 -0.214,-1.037 0,-0.098 0.022,-0.153 0.063,-0.153 0.028,0 0.1,0.022 0.186,0.055 l 0.01,-0.112 C 0.386,-1.292 0.216,-1.346 0.159,-1.346" /></g><g
             transform="translate(1147.2614,138.7527)"
             id="g202"><path
               inkscape:connector-curvature="0"
               id="path204"
               style="fill:#000000;fill-opacity:1;fill-rule:nonzero;stroke:none"
               d="M 0,0 -0.285,0.008 -0.43,-0.737 c -0.038,-0.194 -0.041,-0.249 -0.041,-0.277 0,-0.052 0.024,-0.081 0.069,-0.081 0.024,0 0.075,0.015 0.158,0.041 l 0.035,0.011 0.01,-0.106 c -0.179,-0.077 -0.364,-0.127 -0.465,-0.127 -0.072,0 -0.118,0.036 -0.118,0.104 0,0.062 0.014,0.154 0.041,0.267 0.031,0.126 0.056,0.232 0.084,0.374 L -0.55,0.008 -0.732,0.004 -0.71,0.121 c 0.235,0.044 0.315,0.24 0.379,0.45 L -0.165,0.608 -0.25,0.179 0.035,0.182 Z" /></g><g
             transform="translate(1148.291,138.8301)"
             id="g206"><path
               inkscape:connector-curvature="0"
               id="path208"
               style="fill:#000000;fill-opacity:1;fill-rule:nonzero;stroke:none"
               d="m 0,0 c -0.165,0 -0.341,-0.24 -0.428,-0.594 h 0.035 c 0.32,0 0.562,0.178 0.562,0.412 C 0.169,-0.08 0.092,0 0,0 m -0.355,-0.728 c -0.024,0 -0.056,0 -0.099,0.004 -0.012,-0.066 -0.015,-0.121 -0.015,-0.175 0,-0.185 0.061,-0.284 0.183,-0.284 0.112,0 0.248,0.062 0.452,0.196 l 0.037,-0.124 c -0.255,-0.167 -0.447,-0.243 -0.623,-0.243 -0.214,0 -0.331,0.134 -0.331,0.379 0,0.599 0.386,1.12 0.829,1.12 0.219,0 0.345,-0.106 0.345,-0.287 0,-0.335 -0.337,-0.586 -0.778,-0.586" /></g><g
             transform="translate(1150.0951,138.5059)"
             id="g210"><path
               inkscape:connector-curvature="0"
               id="path212"
               style="fill:#000000;fill-opacity:1;fill-rule:nonzero;stroke:none"
               d="m 0,0 -0.113,0.012 c 0.005,0.042 0.011,0.093 0.011,0.141 0,0.064 -0.056,0.113 -0.142,0.113 -0.051,0 -0.104,-0.033 -0.147,-0.088 C -0.522,0.022 -0.574,-0.226 -0.65,-0.63 l -0.066,-0.353 c -0.133,-0.007 -0.164,-0.011 -0.299,-0.028 0.034,0.138 0.058,0.247 0.086,0.371 l 0.075,0.338 c 0.052,0.229 0.075,0.371 0.075,0.448 0,0.09 -0.02,0.131 -0.061,0.131 -0.02,0 -0.051,-0.007 -0.086,-0.018 L -1.011,0.23 -1.023,0.339 c 0.169,0.073 0.362,0.13 0.449,0.13 0.034,0 0.054,-0.015 0.062,-0.05 0.01,-0.044 0.017,-0.095 0.02,-0.157 0.156,0.134 0.293,0.212 0.39,0.212 0.064,0 0.148,-0.038 0.228,-0.099 C 0.07,0.244 0.028,0.124 0,0" /></g><g
             transform="translate(1151.4685,137.4766)"
             id="g214"><path
               inkscape:connector-curvature="0"
               id="path216"
               style="fill:#000000;fill-opacity:1;fill-rule:nonzero;stroke:none"
               d="m 0,0 c -0.07,0 -0.11,0.043 -0.11,0.109 0,0.044 0.013,0.124 0.054,0.306 l 0.035,0.153 c 0.103,0.455 0.128,0.607 0.128,0.669 0,0.055 -0.025,0.084 -0.072,0.084 -0.06,0 -0.157,-0.037 -0.26,-0.103 C -0.334,1.153 -0.417,1.077 -0.457,1.011 -0.489,0.956 -0.514,0.862 -0.554,0.67 -0.61,0.404 -0.644,0.222 -0.671,0.05 -0.806,0.039 -0.841,0.036 -0.974,0.018 c 0.068,0.272 0.12,0.499 0.172,0.749 0.05,0.248 0.073,0.363 0.073,0.43 0,0.083 -0.026,0.124 -0.077,0.124 -0.028,0 -0.087,-0.015 -0.168,-0.045 l -0.009,0.102 c 0.166,0.07 0.345,0.12 0.429,0.12 0.075,0 0.1,-0.046 0.1,-0.218 V 1.251 C -0.193,1.407 0.076,1.498 0.262,1.498 0.375,1.498 0.42,1.469 0.42,1.397 0.42,1.321 0.399,1.2 0.327,0.906 0.285,0.738 0.247,0.559 0.235,0.48 0.213,0.374 0.203,0.309 0.203,0.27 0.203,0.214 0.231,0.185 0.279,0.185 0.31,0.185 0.375,0.2 0.457,0.233 L 0.469,0.127 C 0.285,0.058 0.078,0 0,0" /></g><g
             transform="translate(1152.5431,137.4798)"
             id="g218"><path
               inkscape:connector-curvature="0"
               id="path220"
               style="fill:#000000;fill-opacity:1;fill-rule:nonzero;stroke:none"
               d="m 0,0 c -0.069,0 -0.115,0.039 -0.115,0.106 0,0.032 0.011,0.091 0.028,0.17 0.046,0.193 0.108,0.455 0.142,0.594 0.049,0.188 0.069,0.319 0.069,0.37 0,0.049 -0.02,0.07 -0.058,0.07 -0.032,0 -0.063,-0.011 -0.135,-0.033 L -0.093,1.27 -0.104,1.372 c 0.19,0.077 0.376,0.123 0.468,0.123 0.052,0 0.073,-0.017 0.073,-0.061 0,-0.045 -0.018,-0.161 -0.079,-0.415 L 0.306,0.805 C 0.219,0.451 0.199,0.328 0.199,0.27 c 0,-0.056 0.028,-0.088 0.08,-0.088 0.031,0 0.092,0.015 0.189,0.051 L 0.475,0.13 C 0.293,0.054 0.096,0 0,0 m 0.376,1.859 c -0.108,0 -0.177,0.07 -0.177,0.175 0,0.131 0.09,0.222 0.215,0.222 0.102,0 0.168,-0.065 0.168,-0.171 0,-0.13 -0.087,-0.226 -0.206,-0.226" /></g><g
             transform="translate(1154.2739,138.7527)"
             id="g222"><path
               inkscape:connector-curvature="0"
               id="path224"
               style="fill:#000000;fill-opacity:1;fill-rule:nonzero;stroke:none"
               d="M 0,0 -0.287,0.008 -0.43,-0.737 c -0.039,-0.194 -0.043,-0.249 -0.043,-0.277 0,-0.052 0.025,-0.081 0.07,-0.081 0.024,0 0.075,0.015 0.158,0.041 l 0.034,0.011 0.009,-0.106 c -0.177,-0.077 -0.363,-0.127 -0.463,-0.127 -0.074,0 -0.117,0.036 -0.117,0.104 0,0.062 0.013,0.154 0.04,0.267 0.032,0.126 0.056,0.232 0.084,0.374 l 0.105,0.539 -0.181,-0.004 0.024,0.117 c 0.233,0.044 0.314,0.24 0.378,0.45 l 0.165,0.037 -0.085,-0.429 0.287,0.003 z" /></g><g
             transform="translate(1155.3037,138.8301)"
             id="g226"><path
               inkscape:connector-curvature="0"
               id="path228"
               style="fill:#000000;fill-opacity:1;fill-rule:nonzero;stroke:none"
               d="m 0,0 c -0.167,0 -0.342,-0.24 -0.427,-0.594 h 0.034 c 0.32,0 0.562,0.178 0.562,0.412 C 0.169,-0.08 0.093,0 0,0 m -0.355,-0.728 c -0.024,0 -0.056,0 -0.101,0.004 -0.01,-0.066 -0.013,-0.121 -0.013,-0.175 0,-0.185 0.062,-0.284 0.182,-0.284 0.111,0 0.248,0.062 0.451,0.196 l 0.038,-0.124 c -0.254,-0.167 -0.447,-0.243 -0.621,-0.243 -0.216,0 -0.333,0.134 -0.333,0.379 0,0.599 0.385,1.12 0.831,1.12 0.216,0 0.343,-0.106 0.343,-0.287 0,-0.335 -0.337,-0.586 -0.777,-0.586 m 0.382,1.099 -0.11,0.094 0.42,0.502 0.31,-0.08 z" /></g><g
             transform="translate(1139.1855,138.1542)"
             id="g230"><path
               inkscape:connector-curvature="0"
               id="path232"
               style="fill:#000000;fill-opacity:1;fill-rule:nonzero;stroke:none"
               d="M 0,0 C 0.231,0 0.419,0.197 0.419,0.442 0.419,0.685 0.231,0.883 0,0.883 -0.23,0.883 -0.417,0.685 -0.417,0.442 -0.417,0.197 -0.23,0 0,0" /></g><g
             transform="translate(1124.8403,138.1542)"
             id="g234"><path
               inkscape:connector-curvature="0"
               id="path236"
               style="fill:#000000;fill-opacity:1;fill-rule:nonzero;stroke:none"
               d="M 0,0 C 0.231,0 0.417,0.197 0.417,0.442 0.417,0.685 0.231,0.883 0,0.883 -0.23,0.883 -0.417,0.685 -0.417,0.442 -0.417,0.197 -0.23,0 0,0" /></g><g
             transform="translate(1112.8077,135.8712)"
             id="g238"><path
               inkscape:connector-curvature="0"
               id="path240"
               style="fill:none;stroke:#000000;stroke-width:0.31799999;stroke-linecap:butt;stroke-linejoin:miter;stroke-miterlimit:4;stroke-dasharray:none;stroke-opacity:1"
               d="M 0,0 H 42.942" /></g><g
             transform="translate(1125.6941,147.8241)"
             id="g242"><path
               inkscape:connector-curvature="0"
               id="path244"
               style="fill:#004494;fill-opacity:1;fill-rule:nonzero;stroke:none"
               d="M 0,0 C -0.39,-0.121 -0.788,-0.138 -1.15,-0.347 -0.295,-0.312 0.559,-0.45 1.378,-0.728 1.675,-0.831 1.937,-0.971 2.2,-1.145 2.331,-1.249 2.396,-1.353 2.528,-1.422 2.692,-1.526 2.922,-1.526 3.086,-1.456 H 3.25 c 0.492,0.138 1.017,0.277 1.346,0.659 0,-0.034 0.032,-0.034 0.065,-0.034 -0.099,-0.278 -0.099,-0.591 -0.294,-0.835 0,-0.033 -0.033,-0.104 0.032,-0.138 h 0.065 c -0.034,0 -0.065,0 -0.065,-0.034 0,-0.07 0.099,0 0.132,-0.07 C 4.367,-1.942 4.202,-1.977 4.103,-2.116 4.103,-2.15 4.169,-2.15 4.202,-2.15 4.135,-2.219 4.037,-2.185 4.005,-2.255 c 0,0 0.032,-0.035 0.065,-0.035 -0.033,0 -0.065,0 -0.065,-0.035 v -0.103 c -0.098,0 -0.131,-0.07 -0.197,-0.104 0.13,-0.105 0.229,0 0.361,0 -0.361,-0.139 -0.657,-0.347 -1.018,-0.452 -0.065,0 0,-0.105 -0.065,-0.105 0.099,-0.068 0.164,0.036 0.263,0.036 -0.461,-0.277 -0.92,-0.52 -1.412,-0.833 0,0 -0.067,-0.069 -0.067,-0.138 H 1.739 C 1.675,-4.06 1.707,-4.163 1.642,-4.233 c 0.164,-0.105 0.36,0.14 0.46,0 0.032,0 -0.066,-0.034 -0.133,-0.034 -0.032,0 -0.032,-0.071 -0.065,-0.071 H 1.806 C 1.739,-4.406 1.675,-4.44 1.675,-4.545 c -0.066,0 -0.132,0 -0.165,-0.07 0.723,0.105 1.477,0.035 2.166,0.417 0.526,0.278 1.018,0.659 1.445,1.145 0,0 0.033,-0.036 0.033,-0.069 C 5.055,-3.469 4.859,-3.712 4.596,-3.92 4.399,-4.024 4.267,-4.198 4.103,-4.267 4.005,-4.338 3.907,-4.406 3.808,-4.475 2.594,-4.925 1.149,-4.718 0.098,-5.586 c 0,0.035 -0.032,0.035 -0.065,0.035 -0.066,-0.069 -0.165,-0.104 -0.197,-0.174 0,-0.07 0.098,-0.034 0.131,-0.034 0.198,0.139 0.394,0.242 0.624,0.312 -0.263,-0.139 -0.525,-0.348 -0.789,-0.416 -0.557,-0.104 -1.083,-0.069 -1.64,0 0.328,0.208 0.655,0.451 1.017,0.66 -0.099,0.068 -0.197,0.068 -0.295,0.068 -0.165,-0.035 -0.361,0.07 -0.526,0 -0.492,-0.242 -1.059,-0.098 -1.321,-0.654 H -13.008 V 9.548 L 6.796,9.542 C 6.402,9.334 5.942,9.161 5.646,8.779 5.383,8.431 5.121,8.084 5.023,7.669 4.596,7.391 4.334,6.974 4.103,6.559 3.808,5.968 3.38,5.447 3.448,4.788 3.512,4.234 3.644,3.712 3.742,3.123 3.775,2.915 3.808,2.741 3.874,2.533 3.938,2.325 3.874,2.082 3.972,1.909 4.037,1.804 4.005,1.667 4.135,1.596 V 1.458 C 4.169,1.423 4.169,1.389 4.235,1.389 V 1.249 C 4.498,0.903 4.826,0.591 4.989,0.208 5.055,0 4.661,0.105 4.498,0.173 4.169,0.348 3.972,0.625 3.709,0.868 3.709,0.868 3.676,0.833 3.676,0.799 3.808,0.556 4.301,0.244 4.037,0.07 3.907,0 3.742,0.173 3.612,0.035 c -0.034,-0.069 0,-0.138 0,-0.208 C 3.413,-0.034 3.217,-0.103 3.02,-0.034 2.888,0 2.856,0.278 2.692,0.278 2.265,0.382 1.87,0.486 1.443,0.522 0.852,0.591 0.295,0.694 -0.295,0.591 -0.821,0.556 -1.215,0.139 -1.543,-0.277 v -0.104 c 0.23,-0.035 0.328,0.174 0.525,0.243 0.328,0.069 0.624,0.208 0.952,0.277 0.493,0.105 0.951,0.243 1.411,0.209 0.098,0 0.23,0.034 0.33,0 C 1.083,0.382 0.559,0.173 0,0" /></g><g
             transform="translate(1123.8555,146.1587)"
             id="g246"><path
               inkscape:connector-curvature="0"
               id="path248"
               style="fill:#ffffff;fill-opacity:1;fill-rule:nonzero;stroke:none"
               d="m 0,0 c -0.102,-0.026 -0.198,-0.104 -0.164,-0.173 0.097,-0.139 0.296,0.034 0.459,0.034 -0.196,-0.069 -0.426,-0.034 -0.59,-0.208 0.131,-0.103 0.262,-0.035 0.394,-0.035 0,-0.068 0.065,-0.068 0.098,-0.103 C 0.033,-0.554 -0.099,-0.694 -0.131,-0.797 -0.198,-0.971 -0.362,-1.04 -0.46,-1.178 v -0.105 c -0.327,-0.313 -0.689,-0.521 -0.952,-0.902 0.034,0 0.034,-0.036 0.034,-0.069 -0.066,-0.105 -0.198,-0.14 -0.231,-0.243 0,-0.035 0,-0.07 0.033,-0.07 0.395,0.139 0.689,0.451 1.05,0.59 0.264,0.07 0.459,0.243 0.69,0.312 0.164,0.035 0.361,0.104 0.525,0.139 0,-0.035 0,-0.07 0.034,-0.07 H 0.985 C 0.952,-1.665 0.82,-1.63 0.853,-1.665 c 0.099,-0.104 0.296,-0.069 0.427,0 0.099,0.069 0.198,0.069 0.328,0.069 0.033,0 0.033,0.07 0.033,0.104 0.099,-0.034 0.166,-0.034 0.263,-0.034 0.787,0.174 1.543,0.348 2.266,0.729 -0.854,0.693 -1.937,0.936 -2.956,1.249 0.098,0 0.197,-0.104 0.297,0 C 1.346,0.591 1.149,0.521 0.985,0.625 1.017,0.625 1.084,0.591 1.116,0.659 0.853,0.798 0.591,0.798 0.328,0.868 0.492,0.903 0.591,1.041 0.591,1.215 0.591,1.25 0.525,1.25 0.492,1.25 0.099,1.041 -0.164,0.659 -0.328,0.209 -0.099,0.07 0.164,0.174 0.393,0.139 0.295,0.034 0.132,0.034 0,0" /></g><g
             transform="translate(1122.5095,147.5122)"
             id="g250"><path
               inkscape:connector-curvature="0"
               id="path252"
               style="fill:#ffffff;fill-opacity:1;fill-rule:nonzero;stroke:none"
               d="m 0,0 c -0.335,-0.375 -0.691,-0.728 -1.116,-0.971 -0.296,-0.625 -0.624,-1.179 -1.051,-1.77 0,-0.036 0.033,-0.069 0.033,-0.069 0.788,0.937 1.51,1.734 2.527,2.394 0.066,0.034 -0.098,-0.103 0.034,-0.069 0.425,0.103 0.557,0.554 0.756,0.901 0.261,0.451 0.721,0.624 1.05,1.006 0,-0.034 0,-0.069 -0.034,-0.104 C 2.233,1.283 2.265,1.283 2.298,1.283 2.43,1.388 2.593,1.353 2.692,1.492 2.43,1.596 2.101,1.631 1.838,1.527 1.148,1.18 0.559,0.625 0,0" /></g><g
             transform="translate(1123.0029,146.853)"
             id="g254"><path
               inkscape:connector-curvature="0"
               id="path256"
               style="fill:#ffffff;fill-opacity:1;fill-rule:nonzero;stroke:none"
               d="m 0,0 c 0.029,0.062 0.065,0.07 0.097,0.139 0,0.034 0,0.069 -0.032,0.069 -0.132,-0.035 -0.23,-0.173 -0.264,-0.312 0,-0.035 0.034,-0.035 0.066,-0.035 C -0.067,-0.104 -0.035,-0.069 0,0" /></g><g
             transform="translate(1125.6283,144.2161)"
             id="g258"><path
               inkscape:connector-curvature="0"
               id="path260"
               style="fill:#ffffff;fill-opacity:1;fill-rule:nonzero;stroke:none"
               d="m 0,0 c -0.132,-0.07 -0.361,-0.07 -0.394,-0.243 -0.033,-0.069 0.099,-0.035 0.164,-0.035 0.23,0.105 0.493,0 0.69,0.208 C 0.393,0 0.295,-0.035 0.23,0.069 0.164,0.104 0.066,0.035 0,0" /></g><g
             transform="translate(1129.2067,142.3423)"
             id="g262"><path
               inkscape:connector-curvature="0"
               id="path264"
               style="fill:#004494;fill-opacity:1;fill-rule:nonzero;stroke:none"
               d="m 0,0 c 0.202,0.048 0.394,0.173 0.591,0.243 v -0.07 c 0.492,0.209 0.853,0.661 1.346,0.834 0.032,0 0.099,-0.07 0.164,-0.035 0.295,0.277 0.624,0.59 1.051,0.52 0,-0.034 0,-0.07 0.034,-0.07 0.031,0 0.064,0 0.064,0.036 C 3.12,1.354 2.988,1.249 2.856,1.144 2.824,1.111 2.856,1.076 2.889,1.076 3.054,1.144 3.152,1.284 3.317,1.354 3.283,1.319 3.283,1.249 3.25,1.214 2.627,0.728 2.167,0.173 1.675,-0.416 H 0.656 c 0,0.035 0,0.07 -0.033,0.07 -1.148,-0.105 -2.265,-0.07 -3.414,-0.07 0.657,0.103 1.314,0.312 1.971,0.381 0.262,0 0.525,-0.034 0.82,0.035" /></g><g
             transform="translate(1142.1401,144.1123)"
             id="g266"><path
               inkscape:connector-curvature="0"
               id="path268"
               style="fill:#e20030;fill-opacity:1;fill-rule:nonzero;stroke:none"
               d="M 0,0 C 0.081,0.25 0.165,0.52 0.034,0.763 -0.165,1.075 0.231,1.18 0.362,1.388 0.46,1.561 0.297,1.665 0.264,1.838 0.231,1.908 0.099,1.873 0.034,1.978 0.264,2.081 0.625,2.29 0.46,2.602 0.362,2.776 0.199,3.054 0.396,3.226 0.625,3.366 0.986,3.331 1.086,3.575 1.249,3.99 0.886,4.336 0.691,4.683 0.593,4.892 0.46,5.031 0.33,5.24 0.199,5.482 0.034,5.69 -0.033,5.968 -0.13,6.245 0,6.488 0,6.766 c 0.034,0.52 -0.098,1.04 -0.229,1.561 -0.098,0.243 -0.13,0.52 -0.229,0.764 -0.034,0.139 -0.067,0.277 -0.164,0.416 -0.033,0.069 -0.033,0.173 0,0.242 0.13,0.104 0.263,0.209 0.393,0.347 0.099,0.174 0.032,0.417 -0.13,0.521 -0.231,0.104 -0.198,-0.243 -0.362,-0.313 H -0.82 c -0.033,0.104 0.033,0.139 0.099,0.209 0,0.035 0,0.104 -0.034,0.104 -0.13,0 -0.26,0.035 -0.295,0.104 -0.328,0.487 -0.788,0.729 -1.28,0.937 0.132,-0.035 0.263,-0.07 0.396,-0.07 0.228,-0.034 0.492,-0.034 0.688,0.07 0.163,0.07 0.196,0.347 0.262,0.521 0.064,0.139 -0.031,0.346 -0.099,0.45 -0.163,0.278 -0.425,0.451 -0.689,0.59 H 13.79 L 13.796,-2.232 H -4.74 c 0.196,0.693 0.605,1.399 1.197,1.85 0.131,0.07 0.294,0.104 0.458,0.139 0.559,0 1.116,-0.173 1.675,-0.243 0.065,0 0.131,-0.035 0.197,-0.07 0.198,-0.034 0.426,-0.034 0.623,0.035 0.231,0.07 0.492,0.209 0.59,0.521" /></g><g
             transform="translate(1140.8948,150.9474)"
             id="g270"><path
               inkscape:connector-curvature="0"
               id="path272"
               style="fill:#9c9e9f;fill-opacity:1;fill-rule:nonzero;stroke:none"
               d="m 0,0 c -0.194,0.05 -0.361,0 -0.56,0 -0.261,-0.069 -0.492,-0.104 -0.721,-0.208 0.196,0.139 0.394,0.277 0.625,0.347 0.162,0.034 0.328,0.139 0.491,0.139 C 0.033,0.313 0.23,0.382 0.392,0.313 0.557,0.242 0.819,0.242 0.852,0.139 0.918,-0.069 0.754,-0.278 0.557,-0.416 0.525,-0.486 0.656,-0.52 0.656,-0.59 0.623,-0.659 0.525,-0.694 0.458,-0.694 0.392,-0.728 0.325,-0.833 0.262,-0.903 c 0.063,0 0,-0.103 0.063,-0.103 -0.129,-0.173 0.067,-0.521 -0.129,-0.589 -0.229,-0.071 -0.491,-0.071 -0.756,0 0.132,0.033 0.298,-0.035 0.395,0.103 v 0.139 c 0,0.034 -0.032,0.034 -0.065,0.034 -0.032,-0.034 -0.065,-0.034 -0.065,-0.034 0,0.07 -0.066,0.138 -0.098,0.138 -0.2,-0.034 -0.363,0.07 -0.494,0.209 0.099,0.035 0.198,0.069 0.294,0.035 0.099,0 0.067,0.173 0.165,0.243 h 0.1 c 0.195,0.277 0.59,0.346 0.653,0.624 C 0.325,-0.035 0.131,-0.035 0,0" /></g><g
             transform="translate(1120.0574,108.3985)"
             id="g274"><path
               inkscape:connector-curvature="0"
               id="path276"
               style="fill:#ffffff;fill-opacity:1;fill-rule:nonzero;stroke:none"
               d="M 0,0 1.065,2.588 H 2.663 V 2.481 H 2.536 C 2.42,2.481 2.328,2.46 2.258,2.42 2.21,2.393 2.171,2.347 2.142,2.284 2.121,2.238 2.11,2.116 2.11,1.922 v -2.587 c 0,-0.201 0.011,-0.327 0.032,-0.377 0.021,-0.05 0.065,-0.094 0.13,-0.132 C 2.338,-1.212 2.425,-1.23 2.536,-1.23 H 2.663 V -1.337 H 0.614 v 0.107 h 0.127 c 0.116,0 0.208,0.02 0.278,0.061 0.048,0.026 0.087,0.073 0.116,0.138 0.021,0.047 0.031,0.168 0.031,0.366 v 2.908 l -1.505,-3.58 h -0.069 l -1.528,3.554 v -2.764 c 0,-0.193 0.004,-0.312 0.014,-0.356 0.025,-0.097 0.08,-0.175 0.164,-0.236 0.083,-0.061 0.215,-0.091 0.395,-0.091 v -0.107 h -1.343 v 0.107 h 0.04 c 0.087,-0.002 0.168,0.012 0.243,0.041 0.076,0.031 0.133,0.071 0.171,0.121 0.039,0.05 0.068,0.121 0.09,0.211 0.004,0.021 0.006,0.12 0.006,0.295 v 2.484 c 0,0.199 -0.011,0.322 -0.032,0.372 -0.022,0.049 -0.065,0.093 -0.131,0.13 -0.065,0.038 -0.153,0.057 -0.263,0.057 h -0.124 v 0.107 h 1.603 z" /></g><g
             transform="translate(1124.9983,107.1683)"
             id="g278"><path
               inkscape:connector-curvature="0"
               id="path280"
               style="fill:#ffffff;fill-opacity:1;fill-rule:nonzero;stroke:none"
               d="M 0,0 V -0.107 H -2.052 V 0 h 0.13 c 0.114,0 0.206,0.02 0.275,0.061 0.05,0.026 0.089,0.073 0.116,0.139 0.021,0.046 0.032,0.168 0.032,0.365 v 2.581 c 0,0.201 -0.011,0.327 -0.032,0.377 -0.021,0.049 -0.064,0.094 -0.129,0.132 -0.065,0.037 -0.152,0.056 -0.262,0.056 h -0.13 V 3.818 H 0 V 3.711 H -0.13 C -0.245,3.711 -0.336,3.69 -0.405,3.65 -0.456,3.623 -0.495,3.577 -0.524,3.511 -0.545,3.465 -0.556,3.343 -0.556,3.146 V 0.565 c 0,-0.201 0.011,-0.327 0.034,-0.377 C -0.5,0.139 -0.457,0.094 -0.392,0.056 -0.328,0.019 -0.24,0 -0.13,0 Z" /></g><g
             transform="translate(1126.6106,110.9862)"
             id="g282"><path
               inkscape:connector-curvature="0"
               id="path284"
               style="fill:#ffffff;fill-opacity:1;fill-rule:nonzero;stroke:none"
               d="m 0,0 1.936,-2.434 v 1.687 c 0,0.236 -0.033,0.394 -0.101,0.478 -0.092,0.112 -0.248,0.165 -0.466,0.162 V 0 H 2.666 V -0.107 C 2.5,-0.128 2.388,-0.156 2.331,-0.19 2.275,-0.224 2.23,-0.279 2.199,-0.355 2.167,-0.431 2.15,-0.562 2.15,-0.747 V -4.015 H 2.053 l -2.655,3.268 v -2.495 c 0,-0.226 0.051,-0.379 0.154,-0.457 0.104,-0.079 0.222,-0.119 0.355,-0.119 H 0 v -0.107 h -1.392 v 0.107 c 0.216,0.003 0.366,0.046 0.451,0.133 0.085,0.087 0.127,0.235 0.127,0.443 v 2.77 l -0.083,0.104 c -0.083,0.105 -0.157,0.173 -0.22,0.206 -0.064,0.032 -0.155,0.052 -0.275,0.055 V 0 Z" /></g><g
             transform="translate(1131.5863,107.1683)"
             id="g286"><path
               inkscape:connector-curvature="0"
               id="path288"
               style="fill:#ffffff;fill-opacity:1;fill-rule:nonzero;stroke:none"
               d="M 0,0 V -0.107 H -2.052 V 0 h 0.13 c 0.114,0 0.206,0.02 0.275,0.061 0.05,0.026 0.089,0.073 0.116,0.139 0.021,0.046 0.032,0.168 0.032,0.365 v 2.581 c 0,0.201 -0.011,0.327 -0.032,0.377 -0.021,0.049 -0.064,0.094 -0.129,0.132 -0.065,0.037 -0.152,0.056 -0.262,0.056 h -0.13 V 3.818 H 0 V 3.711 H -0.13 C -0.245,3.711 -0.336,3.69 -0.405,3.65 -0.456,3.623 -0.495,3.577 -0.524,3.511 -0.545,3.465 -0.556,3.343 -0.556,3.146 V 0.565 c 0,-0.201 0.011,-0.327 0.034,-0.377 C -0.5,0.139 -0.457,0.094 -0.392,0.056 -0.328,0.019 -0.24,0 -0.13,0 Z" /></g><g
             transform="translate(1134.507,111.0759)"
             id="g290"><path
               inkscape:connector-curvature="0"
               id="path292"
               style="fill:#ffffff;fill-opacity:1;fill-rule:nonzero;stroke:none"
               d="m 0,0 0.032,-1.309 h -0.119 c -0.056,0.329 -0.194,0.592 -0.413,0.793 -0.218,0.199 -0.455,0.299 -0.71,0.299 -0.196,0 -0.353,-0.053 -0.468,-0.158 -0.114,-0.104 -0.172,-0.227 -0.172,-0.363 0,-0.087 0.02,-0.165 0.061,-0.232 0.056,-0.09 0.146,-0.18 0.269,-0.269 0.091,-0.064 0.3,-0.176 0.629,-0.339 0.458,-0.226 0.768,-0.439 0.929,-0.639 0.158,-0.201 0.237,-0.431 0.237,-0.689 0,-0.328 -0.128,-0.61 -0.383,-0.846 -0.257,-0.238 -0.581,-0.355 -0.975,-0.355 -0.123,0 -0.24,0.012 -0.35,0.037 -0.11,0.026 -0.248,0.072 -0.414,0.142 -0.092,0.038 -0.169,0.058 -0.229,0.058 -0.05,0 -0.103,-0.02 -0.159,-0.058 -0.056,-0.039 -0.101,-0.098 -0.135,-0.176 h -0.108 v 1.482 h 0.108 c 0.085,-0.418 0.248,-0.735 0.49,-0.954 0.242,-0.219 0.503,-0.329 0.783,-0.329 0.216,0 0.388,0.059 0.517,0.177 0.129,0.118 0.192,0.255 0.192,0.411 0,0.092 -0.025,0.183 -0.074,0.269 -0.049,0.087 -0.124,0.169 -0.224,0.248 -0.1,0.078 -0.278,0.18 -0.533,0.305 -0.356,0.176 -0.614,0.325 -0.77,0.448 -0.156,0.124 -0.276,0.262 -0.36,0.415 -0.084,0.152 -0.126,0.32 -0.126,0.503 0,0.312 0.115,0.579 0.345,0.799 0.229,0.22 0.519,0.33 0.868,0.33 0.127,0 0.251,-0.016 0.371,-0.046 0.09,-0.024 0.2,-0.066 0.331,-0.129 0.13,-0.063 0.221,-0.094 0.273,-0.094 0.051,0 0.09,0.015 0.119,0.046 0.029,0.031 0.057,0.105 0.081,0.223 z" /></g><g
             transform="translate(1138.7587,110.9862)"
             id="g294"><path
               inkscape:connector-curvature="0"
               id="path296"
               style="fill:#ffffff;fill-opacity:1;fill-rule:nonzero;stroke:none"
               d="m 0,0 v -1.063 h -0.104 c -0.062,0.246 -0.13,0.422 -0.206,0.529 -0.075,0.107 -0.178,0.192 -0.31,0.256 -0.073,0.035 -0.201,0.052 -0.384,0.052 h -0.293 v -3.028 c 0,-0.2 0.011,-0.326 0.034,-0.375 0.022,-0.051 0.065,-0.095 0.13,-0.132 0.064,-0.038 0.153,-0.057 0.264,-0.057 h 0.131 v -0.107 h -2.056 v 0.107 h 0.131 c 0.114,0 0.206,0.02 0.275,0.061 0.05,0.027 0.089,0.073 0.118,0.139 0.022,0.046 0.032,0.168 0.032,0.364 v 3.028 h -0.283 c -0.265,0 -0.457,-0.056 -0.576,-0.167 -0.168,-0.157 -0.274,-0.38 -0.318,-0.67 h -0.11 V 0 Z" /></g><g
             transform="translate(1140.0698,112.3264)"
             id="g298"><path
               inkscape:connector-curvature="0"
               id="path300"
               style="fill:#ffffff;fill-opacity:1;fill-rule:nonzero;stroke:none"
               d="M 0,0 H 0.871 L 1.207,-1.004 H 0.961 Z m 0.518,-1.566 v -1.598 h 0.079 c 0.248,0 0.429,0.078 0.54,0.235 0.113,0.156 0.183,0.387 0.215,0.691 h 0.11 V -4.293 H 1.352 C 1.329,-4.069 1.28,-3.885 1.206,-3.743 1.131,-3.6 1.045,-3.504 0.946,-3.455 0.848,-3.406 0.705,-3.38 0.518,-3.38 v -1.107 c 0,-0.216 0.01,-0.347 0.027,-0.396 0.019,-0.048 0.054,-0.088 0.103,-0.119 0.05,-0.031 0.132,-0.046 0.243,-0.046 h 0.235 c 0.367,0 0.66,0.085 0.881,0.254 0.221,0.171 0.38,0.429 0.477,0.776 H 2.591 L 2.414,-5.265 h -3.392 v 0.107 h 0.13 c 0.114,0 0.206,0.02 0.275,0.061 0.05,0.026 0.089,0.073 0.116,0.139 0.021,0.046 0.032,0.167 0.032,0.365 v 2.581 c 0,0.177 -0.006,0.287 -0.015,0.328 -0.019,0.066 -0.055,0.119 -0.107,0.155 -0.073,0.055 -0.174,0.082 -0.301,0.082 h -0.13 V -1.34 H 2.307 V -2.501 H 2.197 C 2.141,-2.217 2.062,-2.014 1.961,-1.89 1.86,-1.767 1.716,-1.676 1.531,-1.618 1.423,-1.584 1.22,-1.566 0.923,-1.566 Z" /></g><g
             transform="translate(1144.5013,110.7749)"
             id="g302"><path
               inkscape:connector-curvature="0"
               id="path304"
               style="fill:#ffffff;fill-opacity:1;fill-rule:nonzero;stroke:none"
               d="m 0,0 v -1.719 h 0.165 c 0.268,0 0.469,0.024 0.602,0.073 0.133,0.05 0.238,0.139 0.314,0.267 0.076,0.128 0.114,0.296 0.114,0.502 0,0.299 -0.069,0.521 -0.209,0.663 C 0.846,-0.072 0.62,0 0.31,0 Z m 0,-1.925 v -1.1 C 0,-3.237 0.013,-3.371 0.039,-3.426 0.065,-3.48 0.11,-3.525 0.176,-3.558 0.242,-3.59 0.365,-3.606 0.544,-3.606 v -0.108 h -2.009 v 0.108 c 0.182,0 0.305,0.016 0.369,0.05 0.065,0.034 0.111,0.078 0.136,0.132 0.026,0.054 0.04,0.187 0.04,0.399 v 2.547 c 0,0.213 -0.014,0.346 -0.04,0.401 -0.025,0.056 -0.071,0.099 -0.137,0.132 -0.066,0.032 -0.188,0.049 -0.368,0.049 v 0.107 h 1.824 c 0.475,0 0.822,-0.032 1.042,-0.098 0.22,-0.066 0.4,-0.187 0.538,-0.363 C 2.078,-0.427 2.147,-0.634 2.147,-0.871 2.147,-1.16 2.044,-1.4 1.835,-1.589 1.702,-1.709 1.516,-1.798 1.277,-1.858 L 2.22,-3.187 c 0.124,-0.171 0.211,-0.279 0.264,-0.321 0.078,-0.06 0.17,-0.093 0.275,-0.098 V -3.714 H 1.523 l -1.265,1.789 z" /></g><g
             transform="translate(1148.8229,110.7604)"
             id="g306"><path
               inkscape:connector-curvature="0"
               id="path308"
               style="fill:#ffffff;fill-opacity:1;fill-rule:nonzero;stroke:none"
               d="m 0,0 v -1.598 h 0.078 c 0.249,0 0.43,0.078 0.542,0.235 0.111,0.156 0.182,0.387 0.214,0.692 H 0.943 V -2.727 H 0.834 C 0.811,-2.503 0.762,-2.319 0.688,-2.177 0.613,-2.034 0.527,-1.938 0.428,-1.889 0.33,-1.839 0.187,-1.815 0,-1.815 V -2.92 C 0,-3.137 0.01,-3.269 0.027,-3.317 0.046,-3.366 0.08,-3.405 0.13,-3.436 0.18,-3.467 0.262,-3.482 0.373,-3.482 h 0.235 c 0.366,0 0.661,0.085 0.881,0.255 0.221,0.17 0.38,0.428 0.476,0.775 H 2.073 L 1.896,-3.699 h -3.393 v 0.107 h 0.131 c 0.114,0 0.206,0.02 0.275,0.06 0.05,0.028 0.088,0.074 0.116,0.14 0.021,0.046 0.032,0.167 0.032,0.364 v 2.582 c 0,0.178 -0.005,0.287 -0.015,0.327 -0.019,0.068 -0.055,0.12 -0.107,0.157 -0.073,0.054 -0.174,0.081 -0.301,0.081 H -1.497 V 0.226 H 1.789 V -0.935 H 1.679 C 1.623,-0.651 1.544,-0.448 1.443,-0.324 1.342,-0.201 1.198,-0.11 1.013,-0.052 0.906,-0.017 0.703,0 0.405,0 Z" /></g><g
             transform="translate(1116.7476,103.6493)"
             id="g310"><path
               inkscape:connector-curvature="0"
               id="path312"
               style="fill:#ffffff;fill-opacity:1;fill-rule:nonzero;stroke:none"
               d="m 0,0 v -3.063 c 0,-0.162 0.007,-0.26 0.023,-0.297 0.015,-0.037 0.041,-0.065 0.078,-0.084 0.052,-0.029 0.128,-0.044 0.226,-0.044 0.322,0 0.568,0.11 0.738,0.33 0.232,0.298 0.347,0.759 0.347,1.383 0,0.504 -0.079,0.907 -0.237,1.207 C 1.05,-0.332 0.888,-0.171 0.692,-0.087 0.553,-0.027 0.322,0.002 0,0 m -1.497,-3.702 v 0.107 h 0.131 c 0.114,0 0.201,0.018 0.262,0.054 0.061,0.035 0.105,0.084 0.134,0.146 0.018,0.04 0.027,0.162 0.027,0.364 v 2.583 c 0,0.2 -0.011,0.326 -0.032,0.375 -0.022,0.051 -0.065,0.094 -0.129,0.132 -0.065,0.038 -0.152,0.057 -0.262,0.057 h -0.131 v 0.107 h 1.758 c 0.468,0 0.846,-0.064 1.131,-0.191 0.349,-0.156 0.615,-0.393 0.795,-0.709 0.18,-0.317 0.27,-0.675 0.27,-1.074 0,-0.276 -0.044,-0.531 -0.133,-0.763 C 2.236,-2.746 2.121,-2.939 1.98,-3.09 1.839,-3.241 1.676,-3.363 1.492,-3.455 1.308,-3.546 1.083,-3.618 0.817,-3.667 0.699,-3.69 0.513,-3.702 0.261,-3.702 Z" /></g><g
             transform="translate(1121.0691,103.6464)"
             id="g314"><path
               inkscape:connector-curvature="0"
               id="path316"
               style="fill:#ffffff;fill-opacity:1;fill-rule:nonzero;stroke:none"
               d="m 0,0 v -1.598 h 0.078 c 0.249,0 0.43,0.078 0.541,0.235 0.112,0.156 0.183,0.387 0.215,0.692 H 0.943 V -2.727 H 0.834 C 0.811,-2.503 0.762,-2.319 0.688,-2.177 0.614,-2.034 0.527,-1.938 0.428,-1.889 0.33,-1.839 0.187,-1.815 0,-1.815 V -2.92 C 0,-3.137 0.009,-3.269 0.027,-3.317 0.046,-3.366 0.08,-3.405 0.13,-3.436 0.181,-3.467 0.261,-3.482 0.373,-3.482 h 0.235 c 0.366,0 0.66,0.085 0.881,0.255 0.221,0.17 0.38,0.428 0.476,0.775 H 2.073 L 1.896,-3.699 h -3.393 v 0.107 h 0.131 c 0.114,0 0.205,0.02 0.274,0.06 0.051,0.028 0.089,0.074 0.117,0.14 0.021,0.046 0.032,0.167 0.032,0.364 v 2.582 c 0,0.178 -0.005,0.287 -0.015,0.327 -0.019,0.068 -0.055,0.12 -0.107,0.157 -0.074,0.054 -0.174,0.081 -0.301,0.081 H -1.497 V 0.226 H 1.789 V -0.935 H 1.679 C 1.623,-0.651 1.544,-0.448 1.443,-0.324 1.342,-0.201 1.198,-0.11 1.013,-0.052 0.905,-0.017 0.702,0 0.405,0 Z" /></g><g
             transform="translate(1126.1924,103.9619)"
             id="g318"><path
               inkscape:connector-curvature="0"
               id="path320"
               style="fill:#ffffff;fill-opacity:1;fill-rule:nonzero;stroke:none"
               d="m 0,0 0.032,-1.309 h -0.119 c -0.056,0.329 -0.193,0.592 -0.412,0.793 -0.219,0.199 -0.456,0.299 -0.711,0.299 -0.196,0 -0.353,-0.053 -0.468,-0.158 -0.114,-0.104 -0.171,-0.227 -0.171,-0.363 0,-0.087 0.019,-0.165 0.06,-0.232 0.057,-0.09 0.146,-0.18 0.269,-0.269 0.091,-0.064 0.3,-0.176 0.629,-0.339 0.459,-0.226 0.768,-0.439 0.929,-0.639 0.158,-0.201 0.237,-0.431 0.237,-0.689 0,-0.328 -0.128,-0.61 -0.383,-0.846 -0.257,-0.238 -0.581,-0.355 -0.975,-0.355 -0.123,0 -0.24,0.012 -0.35,0.037 -0.11,0.026 -0.248,0.072 -0.414,0.142 -0.092,0.038 -0.169,0.058 -0.229,0.058 -0.05,0 -0.103,-0.02 -0.159,-0.058 -0.055,-0.039 -0.101,-0.098 -0.135,-0.176 h -0.108 v 1.482 h 0.108 c 0.085,-0.418 0.248,-0.735 0.49,-0.954 0.242,-0.219 0.503,-0.329 0.783,-0.329 0.216,0 0.388,0.059 0.517,0.177 0.128,0.118 0.192,0.255 0.192,0.411 0,0.092 -0.025,0.183 -0.074,0.269 -0.048,0.087 -0.124,0.169 -0.224,0.248 -0.1,0.078 -0.278,0.18 -0.533,0.305 -0.356,0.176 -0.614,0.325 -0.77,0.448 -0.156,0.124 -0.276,0.262 -0.36,0.415 -0.084,0.152 -0.126,0.32 -0.126,0.503 0,0.312 0.115,0.579 0.345,0.799 0.229,0.22 0.519,0.33 0.868,0.33 0.127,0 0.251,-0.016 0.371,-0.046 0.09,-0.024 0.2,-0.066 0.331,-0.129 0.13,-0.063 0.221,-0.094 0.273,-0.094 0.051,0 0.09,0.015 0.119,0.046 0.029,0.031 0.056,0.105 0.081,0.223 z" /></g><g
             transform="translate(1130.2273,101.2787)"
             id="g322"><path
               inkscape:connector-curvature="0"
               id="path324"
               style="fill:#ffffff;fill-opacity:1;fill-rule:nonzero;stroke:none"
               d="M 0,0 -0.585,1.352 -1.187,0 Z m 0.099,-0.214 h -1.387 l -0.165,-0.383 c -0.054,-0.127 -0.081,-0.231 -0.081,-0.314 0,-0.111 0.045,-0.192 0.133,-0.244 0.052,-0.031 0.181,-0.054 0.385,-0.069 v -0.108 h -1.306 v 0.108 c 0.141,0.021 0.257,0.079 0.348,0.175 0.09,0.095 0.202,0.292 0.336,0.592 l 1.404,3.131 h 0.055 L 1.236,-0.544 C 1.371,-0.849 1.482,-1.041 1.569,-1.12 1.635,-1.18 1.727,-1.215 1.847,-1.224 v -0.108 h -1.899 v 0.108 h 0.078 c 0.153,0 0.259,0.021 0.322,0.064 0.042,0.031 0.063,0.074 0.063,0.132 0,0.035 -0.006,0.071 -0.017,0.108 -0.004,0.017 -0.033,0.089 -0.087,0.217 z" /></g><g
             transform="translate(1133.7152,103.6608)"
             id="g326"><path
               inkscape:connector-curvature="0"
               id="path328"
               style="fill:#ffffff;fill-opacity:1;fill-rule:nonzero;stroke:none"
               d="m 0,0 v -1.719 h 0.165 c 0.268,0 0.469,0.024 0.602,0.073 0.133,0.05 0.238,0.139 0.314,0.267 0.076,0.128 0.114,0.296 0.114,0.502 0,0.299 -0.069,0.521 -0.209,0.663 C 0.846,-0.072 0.621,0 0.31,0 Z m 0,-1.925 v -1.1 C 0,-3.237 0.013,-3.371 0.039,-3.426 0.065,-3.48 0.111,-3.525 0.176,-3.558 0.242,-3.59 0.365,-3.606 0.544,-3.606 v -0.108 h -2.009 v 0.108 c 0.182,0 0.305,0.016 0.369,0.05 0.065,0.034 0.111,0.078 0.136,0.132 0.026,0.054 0.04,0.187 0.04,0.399 v 2.547 c 0,0.213 -0.014,0.346 -0.04,0.401 -0.025,0.056 -0.071,0.099 -0.137,0.132 -0.066,0.032 -0.188,0.049 -0.368,0.049 v 0.107 h 1.824 c 0.475,0 0.822,-0.032 1.042,-0.098 0.22,-0.066 0.4,-0.187 0.538,-0.363 C 2.078,-0.427 2.147,-0.634 2.147,-0.871 2.147,-1.16 2.043,-1.4 1.835,-1.589 1.702,-1.709 1.516,-1.798 1.277,-1.858 L 2.22,-3.187 c 0.124,-0.171 0.211,-0.279 0.263,-0.321 0.079,-0.06 0.171,-0.093 0.275,-0.098 V -3.714 H 1.523 l -1.265,1.789 z" /></g><g
             transform="translate(1139.2463,101.2844)"
             id="g330"><path
               inkscape:connector-curvature="0"
               id="path332"
               style="fill:#ffffff;fill-opacity:1;fill-rule:nonzero;stroke:none"
               d="M 0,0 1.065,2.588 H 2.663 V 2.481 H 2.536 C 2.42,2.481 2.328,2.46 2.258,2.42 2.209,2.393 2.171,2.347 2.142,2.284 2.121,2.238 2.11,2.116 2.11,1.922 v -2.587 c 0,-0.201 0.011,-0.327 0.032,-0.377 0.021,-0.05 0.065,-0.094 0.13,-0.132 C 2.338,-1.212 2.425,-1.23 2.536,-1.23 H 2.663 V -1.337 H 0.614 v 0.107 h 0.127 c 0.116,0 0.208,0.02 0.278,0.061 0.048,0.026 0.087,0.073 0.116,0.138 0.021,0.047 0.031,0.168 0.031,0.366 v 2.908 l -1.505,-3.58 h -0.069 l -1.528,3.554 v -2.764 c 0,-0.193 0.005,-0.312 0.014,-0.356 0.025,-0.097 0.08,-0.175 0.164,-0.236 0.083,-0.061 0.215,-0.091 0.395,-0.091 v -0.107 h -1.343 v 0.107 h 0.04 c 0.087,-0.002 0.168,0.012 0.243,0.041 0.076,0.031 0.133,0.071 0.171,0.121 0.039,0.05 0.069,0.121 0.09,0.211 0.003,0.021 0.006,0.12 0.006,0.295 v 2.484 c 0,0.199 -0.011,0.322 -0.032,0.372 -0.021,0.049 -0.065,0.093 -0.131,0.13 -0.066,0.038 -0.153,0.057 -0.263,0.057 h -0.124 v 0.107 h 1.603 z" /></g><g
             transform="translate(1144.8704,105.2123)"
             id="g334"><path
               inkscape:connector-curvature="0"
               id="path336"
               style="fill:#ffffff;fill-opacity:1;fill-rule:nonzero;stroke:none"
               d="M 0,0 -0.958,-1.004 H -1.207 L -0.871,0 Z m -1.239,-1.566 v -1.598 h 0.079 c 0.249,0 0.429,0.078 0.541,0.235 0.111,0.156 0.183,0.387 0.214,0.691 h 0.11 v -2.055 h -0.11 c -0.023,0.224 -0.072,0.408 -0.146,0.55 -0.075,0.143 -0.161,0.239 -0.26,0.288 -0.098,0.049 -0.24,0.075 -0.428,0.075 v -1.107 c 0,-0.216 0.01,-0.347 0.027,-0.396 0.019,-0.048 0.054,-0.088 0.103,-0.119 0.05,-0.031 0.132,-0.046 0.244,-0.046 h 0.234 c 0.367,0 0.661,0.085 0.881,0.254 0.221,0.171 0.381,0.429 0.476,0.776 H 0.834 L 0.657,-5.265 h -3.392 v 0.107 h 0.13 c 0.114,0 0.206,0.02 0.275,0.061 0.05,0.026 0.089,0.073 0.116,0.139 0.021,0.046 0.032,0.167 0.032,0.365 v 2.581 c 0,0.177 -0.005,0.287 -0.015,0.328 -0.019,0.066 -0.055,0.119 -0.107,0.155 -0.073,0.055 -0.174,0.082 -0.301,0.082 h -0.13 V -1.34 H 0.55 V -2.501 H 0.44 c -0.055,0.284 -0.135,0.487 -0.236,0.611 -0.101,0.123 -0.245,0.214 -0.43,0.272 -0.107,0.034 -0.31,0.052 -0.608,0.052 z" /></g><g
             transform="translate(1147.5854,103.6464)"
             id="g338"><path
               inkscape:connector-curvature="0"
               id="path340"
               style="fill:#ffffff;fill-opacity:1;fill-rule:nonzero;stroke:none"
               d="m 0,0 v -1.598 h 0.078 c 0.249,0 0.43,0.078 0.542,0.235 0.111,0.156 0.182,0.387 0.214,0.692 H 0.943 V -2.727 H 0.834 C 0.811,-2.503 0.762,-2.319 0.688,-2.177 0.613,-2.034 0.527,-1.938 0.428,-1.889 0.33,-1.839 0.187,-1.815 0,-1.815 V -2.92 C 0,-3.137 0.01,-3.269 0.027,-3.317 0.046,-3.366 0.08,-3.405 0.13,-3.436 0.18,-3.467 0.262,-3.482 0.374,-3.482 h 0.234 c 0.366,0 0.661,0.085 0.882,0.255 0.22,0.17 0.379,0.428 0.475,0.775 H 2.073 L 1.896,-3.699 h -3.393 v 0.107 h 0.131 c 0.114,0 0.206,0.02 0.275,0.06 0.05,0.028 0.088,0.074 0.116,0.14 0.021,0.046 0.032,0.167 0.032,0.364 v 2.582 c 0,0.178 -0.005,0.287 -0.015,0.327 -0.019,0.068 -0.055,0.12 -0.107,0.157 -0.073,0.054 -0.174,0.081 -0.301,0.081 H -1.497 V 0.226 H 1.789 V -0.935 H 1.679 C 1.623,-0.651 1.544,-0.448 1.443,-0.324 1.342,-0.201 1.198,-0.11 1.013,-0.052 0.906,-0.017 0.703,0 0.405,0 Z" /></g><g
             transform="translate(1152.7087,103.9619)"
             id="g342"><path
               inkscape:connector-curvature="0"
               id="path344"
               style="fill:#ffffff;fill-opacity:1;fill-rule:nonzero;stroke:none"
               d="m 0,0 0.032,-1.309 h -0.119 c -0.055,0.329 -0.193,0.592 -0.412,0.793 -0.22,0.199 -0.456,0.299 -0.711,0.299 -0.196,0 -0.352,-0.053 -0.468,-0.158 -0.114,-0.104 -0.171,-0.227 -0.171,-0.363 0,-0.087 0.02,-0.165 0.06,-0.232 0.056,-0.09 0.145,-0.18 0.269,-0.269 0.091,-0.064 0.3,-0.176 0.629,-0.339 0.459,-0.226 0.769,-0.439 0.929,-0.639 0.158,-0.201 0.237,-0.431 0.237,-0.689 0,-0.328 -0.128,-0.61 -0.383,-0.846 -0.256,-0.238 -0.581,-0.355 -0.975,-0.355 -0.123,0 -0.24,0.012 -0.35,0.037 -0.11,0.026 -0.248,0.072 -0.414,0.142 -0.092,0.038 -0.169,0.058 -0.229,0.058 -0.049,0 -0.102,-0.02 -0.159,-0.058 -0.055,-0.039 -0.101,-0.098 -0.135,-0.176 h -0.108 v 1.482 h 0.108 c 0.084,-0.418 0.248,-0.735 0.49,-0.954 0.242,-0.219 0.503,-0.329 0.783,-0.329 0.217,0 0.389,0.059 0.517,0.177 0.128,0.118 0.193,0.255 0.193,0.411 0,0.092 -0.026,0.183 -0.075,0.269 -0.048,0.087 -0.123,0.169 -0.224,0.248 -0.101,0.078 -0.278,0.18 -0.533,0.305 -0.356,0.176 -0.614,0.325 -0.77,0.448 -0.156,0.124 -0.276,0.262 -0.36,0.415 -0.084,0.152 -0.126,0.32 -0.126,0.503 0,0.312 0.115,0.579 0.345,0.799 0.229,0.22 0.518,0.33 0.868,0.33 0.128,0 0.251,-0.016 0.371,-0.046 0.09,-0.024 0.2,-0.066 0.331,-0.129 0.13,-0.063 0.221,-0.094 0.273,-0.094 0.051,0 0.09,0.015 0.119,0.046 0.029,0.031 0.056,0.105 0.081,0.223 z" /></g></g></g></g></g></svg>