<?xml version="1.0" encoding="UTF-8" standalone="no"?>
<svg
   xmlns:dc="http://purl.org/dc/elements/1.1/"
   xmlns:cc="http://creativecommons.org/ns#"
   xmlns:rdf="http://www.w3.org/1999/02/22-rdf-syntax-ns#"
   xmlns:svg="http://www.w3.org/2000/svg"
   xmlns="http://www.w3.org/2000/svg"
   xmlns:sodipodi="http://sodipodi.sourceforge.net/DTD/sodipodi-0.dtd"
   xmlns:inkscape="http://www.inkscape.org/namespaces/inkscape"
   width="169.592"
   height="44.38"
   viewBox="0 0 169.592 44.38"
   version="1.1"
   id="svg22"
   sodipodi:docname="logo_vertical_negative.svg"
   inkscape:version="1.0.1 (3bc2e813f5, 2020-09-07)">
  <metadata
     id="metadata28">
    <rdf:RDF>
      <cc:Work
         rdf:about="">
        <dc:format>image/svg+xml</dc:format>
        <dc:type
           rdf:resource="http://purl.org/dc/dcmitype/StillImage" />
      </cc:Work>
    </rdf:RDF>
  </metadata>
  <defs
     id="defs26" />
  <sodipodi:namedview
     pagecolor="#ffffff"
     bordercolor="#666666"
     borderopacity="1"
     objecttolerance="10"
     gridtolerance="10"
     guidetolerance="10"
     inkscape:pageopacity="0"
     inkscape:pageshadow="2"
     inkscape:window-width="1920"
     inkscape:window-height="1136"
     id="namedview24"
     showgrid="false"
     inkscape:zoom="4.4699734"
     inkscape:cx="106.1369"
     inkscape:cy="57.775526"
     inkscape:window-x="0"
     inkscape:window-y="27"
     inkscape:window-maximized="1"
     inkscape:current-layer="Calque_1" />
  <g
     id="Calque_1"
     data-name="Calque 1"
     transform="translate(0 0.014)">
    <path
       id="Tracé_4171"
       data-name="Tracé 4171"
       d="M358.61,9.393c0-5.608,4.3-9.393,9.852-9.393a8.534,8.534,0,0,1,8.385,5.283l-4.732,2.2a3.891,3.891,0,0,0-3.648-2.641,4.315,4.315,0,0,0-4.275,4.548,4.315,4.315,0,0,0,4.275,4.548,3.888,3.888,0,0,0,3.648-2.641l4.737,2.179a8.628,8.628,0,0,1-8.385,5.309C362.912,18.787,358.61,14.976,358.61,9.393Z"
       transform="translate(-307.408)"
       fill="#fff" />
    <path
       id="Tracé_4172"
       data-name="Tracé 4172"
       d="M496.12,2.1h5.5V20.262h-5.5Z"
       transform="translate(-425.284 -1.8)"
       fill="#fff" />
    <path
       id="Tracé_4173"
       data-name="Tracé 4173"
       d="M538.8,2.1h6.235l3.921,12.225L552.877,2.1h6.235l-6.7,18.162H545.5Z"
       transform="translate(-461.871 -1.8)"
       fill="#fff" />
    <path
       id="Tracé_4174"
       data-name="Tracé 4174"
       d="M685.54,2.1h5.5V20.262h-5.5Z"
       transform="translate(-587.659 -1.8)"
       fill="#fff" />
    <path
       id="Tracé_4175"
       data-name="Tracé 4175"
       d="M742.52,2.1h5.494V15.468H754.9v4.793H742.52Z"
       transform="translate(-636.504 -1.8)"
       fill="#fff" />
    <path
       id="Tracé_4176"
       data-name="Tracé 4176"
       d="M835.933,11.979a8.461,8.461,0,0,0,5.854,2.342c1.035,0,2.015-.353,2.015-1.061s-.762-1.062-2.559-1.389c-3-.544-7.567-1.252-7.567-5.8,0-3.077,2.56-5.881,7.543-5.881a12,12,0,0,1,7.71,2.533L845.98,6.616a9.039,9.039,0,0,0-5.059-1.8c-1.362,0-1.661.49-1.661.952,0,.714.735.954,2.667,1.285,3,.517,7.435,1.388,7.435,5.581,0,4-2.968,6.317-7.841,6.317a11.964,11.964,0,0,1-8.441-2.886Z"
       transform="translate(-714.134 -0.163)"
       fill="#fff" />
    <path
       id="Tracé_4177"
       data-name="Tracé 4177"
       d="M358.61,181.13h8.114c5.718,0,9.966,3.267,9.966,9.066s-4.248,9.094-9.939,9.094h-8.138Zm8.114,13.368a4.2,4.2,0,0,0,4.383-4.3,3.97,3.97,0,0,0-4.356-4.275H364.11V194.5Z"
       transform="translate(-307.408 -155.268)"
       fill="#fff" />
    <path
       id="Tracé_4178"
       data-name="Tracé 4178"
       d="M496.83,148.444h13.777v4.569h-8.281v2.123h8.093v4.569H502.33v2.314h8.281v4.569H496.83Zm5.336-1.525L505.434,143h4.221l-4.221,3.921Z"
       transform="translate(-425.893 -122.583)"
       fill="#fff" />
    <path
       id="Tracé_4179"
       data-name="Tracé 4179"
       d="M610.17,181.13h13.778v4.57h-8.281v2.123h8.086v4.569h-8.081v6.888h-5.5Z"
       transform="translate(-523.05 -155.268)"
       fill="#fff" />
    <path
       id="Tracé_4180"
       data-name="Tracé 4180"
       d="M720.76,181.13h13.777v4.57h-8.281v2.123h8.087v4.569H726.26v2.314h8.281v4.569H720.76Z"
       transform="translate(-617.85 -155.268)"
       fill="#fff" />
    <path
       id="Tracé_4181"
       data-name="Tracé 4181"
       d="M839.61,189.543v9.748h-5.5V181.13h5.663l6.315,9.148V181.13h5.5v18.16H846.3Z"
       transform="translate(-715.016 -155.268)"
       fill="#fff" />
    <path
       id="Tracé_4182"
       data-name="Tracé 4182"
       d="M968.77,191.009a8.458,8.458,0,0,0,5.854,2.342c1.035,0,2.015-.354,2.015-1.061s-.762-1.062-2.559-1.389c-3-.544-7.567-1.252-7.567-5.8,0-3.077,2.56-5.881,7.543-5.881a12.008,12.008,0,0,1,7.71,2.531l-2.94,3.894a9.039,9.039,0,0,0-5.064-1.8c-1.362,0-1.662.49-1.662.952,0,.714.735.954,2.669,1.285,3,.517,7.435,1.388,7.435,5.581,0,4-2.968,6.317-7.843,6.317a11.96,11.96,0,0,1-8.44-2.886Z"
       transform="translate(-828.007 -153.631)"
       fill="#fff" />
    <path
       id="Tracé_4183"
       data-name="Tracé 4183"
       d="M1091.29,181.13h13.778v4.57h-8.281v2.123h8.086v4.569h-8.086v2.314h8.281v4.569H1091.29Z"
       transform="translate(-935.476 -155.268)"
       fill="#fff" />
    <path
       id="Tracé_4184"
       data-name="Tracé 4184"
       d="M959.77,2.29h2.92a4.158,4.158,0,0,1,4.382,4.283,4.14,4.14,0,0,1-4.382,4.261h-2.92Zm2.92,7.6a3.145,3.145,0,0,0,3.284-3.318,3.136,3.136,0,0,0-3.284-3.33h-1.856V9.886Z"
       transform="translate(-822.735 -1.963)"
       fill="#fff" />
    <path
       id="Tracé_4185"
       data-name="Tracé 4185"
       d="M1021.08,2.29h5.6v.948h-4.535V5.991h4.445v.948h-4.445V9.886h4.535v.948h-5.6Z"
       transform="translate(-875.291 -1.963)"
       fill="#fff" />
    <path
       id="Tracé_4186"
       data-name="Tracé 4186"
       d="M959.77,69.05h1.064v7.6H964.8V77.6h-5.03Z"
       transform="translate(-822.735 -59.191)"
       fill="#fff" />
    <path
       id="Tracé_4187"
       data-name="Tracé 4187"
       d="M1009.134,75.7H1004.8l-.757,1.895h-1.178l3.427-8.544h1.319l3.447,8.544h-1.178Zm-4.022-.945h3.7L1006.969,70Z"
       transform="translate(-859.681 -59.191)"
       fill="#fff" />
    <path
       id="Tracé_4188"
       data-name="Tracé 4188"
       d="M5.734,29.9V14.757a.571.571,0,0,1,.286-.494L19.4,6.541a.571.571,0,0,0,.286-.494V.733A.571.571,0,0,0,18.829.24L.286,10.943A.571.571,0,0,0,0,11.437V33.205a.571.571,0,0,0,.286.488L18.825,44.4a.571.571,0,0,0,.857-.494v-5.3a.571.571,0,0,0-.286-.494L6.018,30.4a.571.571,0,0,1-.284-.494Z"
       transform="translate(0 -0.141)"
       fill="#00377e"
       style="fill:#ffffff" />
    <path
       id="Tracé_4189"
       data-name="Tracé 4189"
       d="M169.85,15.016a.1.1,0,0,1,.051.089v14.42a.1.1,0,0,1-.051.089l-5.82,3.362a.1.1,0,0,1-.154-.09V11.748a.1.1,0,0,1,.157-.09ZM157.621.16a.571.571,0,0,0-.571.571V43.9a.571.571,0,0,0,.571.571.563.563,0,0,0,.286-.077l18.54-10.708a.571.571,0,0,0,.286-.493V11.434a.571.571,0,0,0-.286-.494L157.9.237a.563.563,0,0,0-.286-.077Z"
       transform="translate(-134.626 -0.137)"
       fill="#fd3e52"
       style="fill:#ffffff" />
  </g>
</svg>
